<svg class="main-svg" xmlns="http://www.w3.org/2000/svg" xmlns:xlink="http://www.w3.org/1999/xlink" width="912" height="500" style="" viewBox="0 0 912 500"><rect x="0" y="0" width="912" height="500" style="fill: rgb(255, 255, 255); fill-opacity: 0;"/><defs id="defs-c45afd"><g class="clips"><clipPath id="clipc45afdxyplot" class="plotclip"><rect width="857" height="359"/></clipPath><clipPath class="axesclip" id="clipc45afdx"><rect x="55" y="0" width="857" height="500"/></clipPath><clipPath class="axesclip" id="clipc45afdy"><rect x="0" y="100" width="912" height="359"/></clipPath><clipPath class="axesclip" id="clipc45afdxy"><rect x="55" y="100" width="857" height="359"/></clipPath></g><g class="gradients"/><g class="patterns"/></defs><g class="bglayer"><rect class="bg" x="55" y="100" width="857" height="359" style="fill: rgb(0, 0, 0); fill-opacity: 0; stroke-width: 0;"/></g><g class="layer-below"><g class="imagelayer"/><g class="shapelayer"/></g><g class="cartesianlayer"><g class="subplot xy"><g class="layer-subplot"><g class="shapelayer"/><g class="imagelayer"/></g><g class="gridlayer"><g class="x"><path class="xgrid crisp" transform="translate(140.79000000000002,0)" d="M0,100v359" style="stroke: rgb(128, 128, 128); stroke-opacity: 1; stroke-width: 1px;"/><path class="xgrid crisp" transform="translate(226.57,0)" d="M0,100v359" style="stroke: rgb(128, 128, 128); stroke-opacity: 1; stroke-width: 1px;"/><path class="xgrid crisp" transform="translate(312.36,0)" d="M0,100v359" style="stroke: rgb(128, 128, 128); stroke-opacity: 1; stroke-width: 1px;"/><path class="xgrid crisp" transform="translate(398.14,0)" d="M0,100v359" style="stroke: rgb(128, 128, 128); stroke-opacity: 1; stroke-width: 1px;"/><path class="xgrid crisp" transform="translate(483.93,0)" d="M0,100v359" style="stroke: rgb(128, 128, 128); stroke-opacity: 1; stroke-width: 1px;"/><path class="xgrid crisp" transform="translate(569.71,0)" d="M0,100v359" style="stroke: rgb(128, 128, 128); stroke-opacity: 1; stroke-width: 1px;"/><path class="xgrid crisp" transform="translate(655.5,0)" d="M0,100v359" style="stroke: rgb(128, 128, 128); stroke-opacity: 1; stroke-width: 1px;"/><path class="xgrid crisp" transform="translate(741.29,0)" d="M0,100v359" style="stroke: rgb(128, 128, 128); stroke-opacity: 1; stroke-width: 1px;"/><path class="xgrid crisp" transform="translate(827.07,0)" d="M0,100v359" style="stroke: rgb(128, 128, 128); stroke-opacity: 1; stroke-width: 1px;"/></g><g class="y"><path class="ygrid crisp" transform="translate(0,441.05)" d="M55,0h857" style="stroke: rgb(128, 128, 128); stroke-opacity: 1; stroke-width: 1px;"/><path class="ygrid crisp" transform="translate(0,360.27)" d="M55,0h857" style="stroke: rgb(128, 128, 128); stroke-opacity: 1; stroke-width: 1px;"/><path class="ygrid crisp" transform="translate(0,198.73000000000002)" d="M55,0h857" style="stroke: rgb(128, 128, 128); stroke-opacity: 1; stroke-width: 1px;"/><path class="ygrid crisp" transform="translate(0,117.95)" d="M55,0h857" style="stroke: rgb(128, 128, 128); stroke-opacity: 1; stroke-width: 1px;"/></g></g><g class="zerolinelayer"><path class="xzl zl crisp" transform="translate(55,0)" d="M0,100v359" style="stroke: rgb(128, 128, 128); stroke-opacity: 1; stroke-width: 2px;"/><path class="yzl zl crisp" transform="translate(0,279.5)" d="M55,0h857" style="stroke: rgb(128, 128, 128); stroke-opacity: 1; stroke-width: 2px;"/></g><path class="xlines-below"/><path class="ylines-below"/><g class="overlines-below"/><g class="xaxislayer-below"/><g class="yaxislayer-below"/><g class="overaxes-below"/><g class="plot" transform="translate(55,100)" clip-path="url(#clipc45afdxyplot)"><g class="scatterlayer mlayer"><g class="trace scatter trace97de75" style="stroke-miterlimit: 2; opacity: 1;"><g class="fills"/><g class="errorbars"/><g class="lines"><path class="js-line" d="M0,180.15L0.86,186.61L1.72,184.28L5.15,191.52L6.01,191.39L7.72,197.98L8.58,196.17L9.44,195.66L10.29,200.31L12.01,204.06L12.87,203.02L13.73,203.15L14.58,206.12L17.16,213.1L18.02,212.71L20.59,217.88L21.45,219.31L22.3,220.6L23.16,219.95L24.88,221.37L25.74,221.37L28.31,225.51L29.17,225.25L30.88,222.92L31.74,223.57L32.6,224.48L33.46,223.57L34.31,223.18L35.17,224.73L38.6,226.8L39.46,229.26L41.18,232.1L42.04,231.58L43.75,233.78L44.61,235.59L45.47,234.81L46.32,236.49L47.18,236.62L48.04,235.72L49.76,235.98L50.61,236.37L52.33,238.43L53.19,239.34L54.05,238.17L54.9,238.3L59.19,240.11L60.05,241.54L61.77,243.6L62.62,242.18L63.48,242.05L64.34,243.47L66.06,243.6L66.91,242.31L68.63,243.99L69.49,242.7L71.2,241.92L72.06,242.7L73.78,241.79L74.63,242.57L76.35,241.79L77.21,242.18L78.07,242.57L78.92,241.66L79.78,243.09L80.64,242.57L83.21,243.09L84.07,242.57L84.93,242.44L85.79,240.89L88.36,242.31L89.22,242.96L90.08,241.66L90.93,242.31L91.79,242.96L92.65,242.18L94.36,242.31L95.22,241.79L98.65,241.66L99.51,242.05L101.23,241.66L102.09,242.31L102.94,241.79L103.8,244.12L104.66,244.12L105.52,246.19L107.23,247.74L108.09,248L110.66,250.07L111.52,249.68L114.1,251.87L114.95,250.97L116.67,250.84L117.53,251.49L124.39,254.72L125.25,254.46L126.11,255.36L126.96,254.33L128.68,254.33L129.54,254.59L131.25,256.79L132.11,256.53L132.97,254.85L133.83,255.62L134.68,256.79L135.54,256.53L136.4,256.66L137.26,257.82L138.12,257.43L138.97,258.08L139.83,257.43L140.69,257.82L144.98,263.25L145.84,263.25L147.55,262.73L148.41,263.64L152.7,262.99L153.56,262.08L155.27,264.67L156.13,264.54L158.7,266.35L159.56,266.22L163.85,271L164.71,269.45L165.57,270.1L166.42,269.32L168.14,268.55L169,268.29L170.71,269.06L171.57,268.8L173.29,267.38L174.15,267.77L175.86,268.03L176.72,269.06L178.43,269.06L179.29,267.12L181.01,266.22L181.87,266.61L183.58,267.25L184.44,267.12L185.3,266.61L186.16,267.64L187.87,268.93L188.73,268.55L191.3,269.45L192.16,269.06L194.73,269.06L195.59,269.58L197.31,269.32L198.17,270.1L199.02,269.58L199.88,269.97L201.6,272.04L202.45,271.78L204.17,271.65L205.03,271.91L208.46,272.81L209.32,272.55L211.03,275.27L211.89,276.17L213.61,275.4L214.46,275.53L215.32,276.3L216.18,275.53L220.47,277.98L221.33,276.56L222.19,276.17L223.04,277.33L224.76,277.08L225.62,276.69L227.33,278.5L228.19,277.33L229.91,278.37L230.76,278.11L234.2,277.59L235.05,277.33L236.77,277.59L237.63,278.5L240.2,278.76L241.06,279.01L242.77,279.53L243.63,279.53L244.49,279.01L245.35,279.92L247.06,279.92L247.92,279.79L248.78,280.05L249.64,278.76L251.35,279.79L252.21,279.92L253.93,281.08L254.78,281.47L257.36,284.7L258.22,283.93L261.65,286.64L262.5,288.19L265.08,291.03L265.94,290.65L268.51,290.9L269.37,290.39L271.08,291.29L271.94,291.16L274.51,292.84L275.37,292.97L277.95,292.46L278.8,291.68L280.52,292.97L281.38,292.58L283.09,291.16L283.95,291.55L285.67,291.16L286.52,291.55L287.38,291.68L288.24,292.58L289.1,292.97L289.96,292.2L290.81,292.07L291.67,292.97L293.39,294.01L294.25,293.36L295.96,294.52L296.82,294.14L299.39,295.95L300.25,297.24L306.26,302.28L307.11,302.67L308.83,302.28L309.69,301.63L311.4,304.22L312.26,304.86L315.69,306.93L316.55,306.8L317.41,307.32L318.27,306.16L319.12,305.9L319.98,304.73L321.7,304.99L322.55,305.9L325.13,307.84L325.99,307.96L327.7,308.09L328.56,308.48L331.13,307.06L331.99,307.32L334.56,307.45L335.42,307.32L336.28,306.8L337.14,308.22L338.85,308.48L339.71,309L341.43,310.81L342.29,311.71L343.14,310.94L344,311.58L350.01,315.33L350.86,314.3L354.3,314.43L355.15,315.33L356.87,315.59L357.73,314.81L359.44,315.33L360.3,315.07L361.16,314.04L362.02,315.33L363.73,315.98L364.59,316.49L367.16,315.33L368.02,316.11L368.88,317.4L369.74,317.14L371.45,316.75L372.31,316.24L374.88,319.85L375.74,319.6L378.32,320.63L379.17,320.37L383.46,321.41L384.32,320.76L387.75,321.15L388.61,322.31L391.18,322.7L392.04,323.21L398.9,326.83L399.76,325.93L401.48,326.32L402.34,326.96L404.05,327.22L404.91,327.61L406.62,328.51L407.48,328.77L408.34,328.64L409.2,329.42L410.91,329.81L411.77,329.29L416.06,329.94L416.92,330.32L422.92,332.13L423.78,333.04L425.5,332.65L426.36,333.3L428.93,332.78L429.79,333.17L434.08,333.55L434.93,333.3L440.08,333.55L440.94,333.17L443.51,334.2L444.37,334.07L446.09,334.98L446.94,335.23L452.09,335.62L452.95,334.59L453.81,334.72L454.66,335.88L458.95,337.17L459.81,337.56L464.1,338.59L464.96,339.63L466.67,339.89L467.53,340.27L475.25,341.05L476.11,341.05L857,341.05" style="vector-effect: non-scaling-stroke; fill: none; stroke: rgb(99, 110, 250); stroke-opacity: 1; stroke-width: 2px; opacity: 1;"/></g><g class="points"/><g class="text"/></g><g class="trace scatter trace42bdf8" style="stroke-miterlimit: 2; opacity: 1;"><g class="fills"/><g class="errorbars"/><g class="lines"><path class="js-line" d="M0,177.3L0.86,177.69L1.72,173.55L2.57,176.4L3.43,174.98L4.29,173.81L5.15,169.29L7.72,166.32L8.58,163.22L11.15,156.75L12.01,155.72L14.58,157.01L15.44,157.14L17.16,156.5L18.02,157.79L19.73,150.94L20.59,153.01L21.45,153.52L22.3,149.9L24.88,147.84L25.74,147.19L26.59,146.29L27.45,144.09L29.17,140.99L30.03,140.34L31.74,140.47L32.6,140.73L33.46,144.35L34.31,142.54L35.17,141.5L36.03,137.76L36.89,138.4L37.75,137.5L39.46,135.82L40.32,136.46L42.89,132.59L43.75,132.07L45.47,129.1L46.32,127.93L48.9,127.29L49.76,127.93L50.61,126.12L51.47,127.93L54.05,126.77L54.9,127.29L56.62,126.38L57.48,126.12L60.91,123.02L61.77,122.63L63.48,122.12L64.34,120.83L65.2,120.57L66.06,118.89L66.91,118.63L67.77,120.7L68.63,121.86L69.49,119.02L71.2,118.24L72.06,116.69L74.63,120.7L75.49,121.47L78.92,120.7L79.78,119.4L81.5,117.85L82.35,116.69L83.21,116.43L84.07,114.62L84.93,113.46L85.79,114.36L87.5,112.94L88.36,111.91L90.08,109.84L90.93,109.97L96.94,108.55L97.8,109.45L98.65,109.06L99.51,107.64L100.37,107.77L101.23,106.87L105.52,108.42L106.37,106.48L107.23,107.25L108.09,106.09L111.52,104.8L112.38,105.45L115.81,100.92L116.67,101.44L120.96,101.18L121.82,100.92L124.39,98.34L125.25,99.24L126.11,98.73L126.96,99.11L127.82,99.11L128.68,98.34L129.54,97.95L130.39,96.27L131.25,96.14L132.11,97.17L133.83,97.69L134.68,96.66L136.4,97.95L137.26,96.92L138.12,98.47L138.97,97.95L139.83,99.11L140.69,98.47L144.98,95.24L145.84,93.3L150.13,89.55L150.98,88.9L151.84,90.2L152.7,89.94L153.56,88.77L154.41,89.16L156.13,88.26L156.99,89.94L158.7,89.42L159.56,88.77L161.28,87.48L162.14,86.83L162.99,87.09L163.85,88.26L165.57,86.96L166.42,87.48L170.71,89.29L171.57,88.52L172.43,88L173.29,88.64L176.72,86.45L177.58,87.35L178.43,87.61L179.29,86.45L180.15,86.19L181.01,84.64L181.87,85.15L182.72,87.22L184.44,86.83L185.3,85.41L189.59,85.41L190.44,84.77L193.02,86.71L193.88,85.8L195.59,86.58L196.45,85.03L197.31,84.77L198.17,83.47L199.88,79.47L200.74,79.99L202.45,78.56L203.31,79.21L204.17,79.34L205.03,78.31L206.74,77.53L207.6,77.14L209.32,80.5L210.18,79.99L211.03,80.11L211.89,79.34L213.61,79.6L214.46,78.05L216.18,81.15L217.04,80.76L217.9,79.47L218.75,79.73L219.61,80.37L220.47,79.21L223.04,78.69L223.9,77.66L224.76,78.69L225.62,77.14L228.19,74.17L229.05,74.17L234.2,72.49L235.05,73.78L237.63,74.04L238.48,72.88L241.06,71.71L241.92,72.1L245.35,71.46L246.21,71.46L247.92,72.49L248.78,70.81L249.64,70.16L250.49,70.55L252.21,69L253.07,69.65L259.07,66.29L259.93,67.19L260.79,66.67L261.65,67.06L262.5,67.58L263.36,66.42L265.08,68.48L265.94,68.48L268.51,65.51L269.37,65.25L270.23,64.86L271.08,63.18L271.94,62.93L272.8,61.89L275.37,61.37L276.23,59.44L279.66,58.53L280.52,58.01L281.38,57.24L282.24,57.89L283.09,55.95L283.95,56.21L284.81,55.56L285.67,56.46L288.24,56.33L289.1,55.04L289.96,55.17L290.81,54.52L291.67,53.23L292.53,53.49L296.82,56.08L297.68,54.65L298.53,55.82L299.39,55.69L300.25,56.72L301.11,54.91L301.97,55.04L302.82,53.88L303.68,53.49L304.54,54.01L305.4,52.97L306.26,53.62L307.97,51.55L308.83,52.33L310.54,52.59L311.4,52.97L313.12,50.13L313.98,50.39L317.41,46.51L318.27,46.25L322.55,45.74L323.41,46.25L324.27,47.03L325.13,46.12L328.56,47.42L329.42,46.25L330.28,45.61L331.13,46L331.99,45.74L332.85,44.44L333.71,43.8L334.56,44.44L335.42,44.7L336.28,43.93L338,45.09L338.85,45.35L340.57,44.44L341.43,45.22L343.14,43.28L344,42.25L345.72,42.12L346.57,41.47L347.43,40.57L348.29,40.95L349.15,40.05L350.01,40.44L350.86,41.34L351.72,40.83L353.44,39.92L354.3,40.18L355.15,40.57L356.01,39.15L359.44,39.15L360.3,38.76L364.59,38.5L365.45,38.5L368.02,36.95L368.88,37.08L369.74,36.69L370.59,37.21L371.45,36.17L372.31,36.56L376.6,38.37L377.46,36.95L381.75,34.88L382.6,35.79L383.46,34.88L384.32,35.27L386.89,33.98L387.75,34.49L388.61,34.88L389.47,34.11L391.18,34.75L392.04,33.2L394.61,32.55L395.47,32.81L397.19,33.59L398.05,32.94L406.62,30.36L407.48,31.13L408.34,30.62L409.2,31L410.91,29.58L411.77,29.71L413.49,29.58L414.35,29.45L415.2,29.06L416.06,29.84L419.49,29.19L420.35,28.81L424.64,27.64L425.5,27.26L428.93,28.55L429.79,28.29L432.36,28.68L433.22,27.77L437.51,25.06L438.37,25.19L440.94,23.25L441.8,23.25L443.51,22.86L444.37,23.12L450.38,21.18L451.23,20.66L452.95,21.31L453.81,21.57L455.52,20.79L456.38,19.89L458.95,19.11L459.81,19.37L462.39,18.08L463.24,17.95L465.82,19.11L466.67,18.73L468.39,18.34L469.25,18.47L473.54,18.34L474.4,18.73L476.97,18.47L477.83,18.47L481.26,18.34L482.12,18.73L485.55,18.73L486.41,18.98L488.98,17.95L489.84,18.08L494.98,18.47L495.84,18.21L496.7,18.73L497.56,18.21L498.42,18.85L499.27,18.34L501.85,18.98L502.7,18.6L504.42,18.73L505.28,18.08L510.43,19.37L511.28,18.34L513,18.34L513.86,18.21L515.57,18.34L516.43,18.85L518.15,18.6L519,18.34L524.15,18.47L525.01,18.08L529.3,18.98L530.16,18.47L533.59,18.85L534.45,18.34L539.59,18.85L540.45,18.73L543.02,18.6L543.88,18.34L549.89,18.73L550.74,18.6L553.32,18.21L554.18,18.73L560.18,18.73L561.04,18.08L563.61,19.11L564.47,19.11L565.33,18.47L566.19,18.85L574.76,18.47L575.62,18.21L579.05,19.11L579.91,18.6L581.63,18.47L582.49,18.34L584.2,19.5L585.06,18.6L586.77,18.47L587.63,19.24L590.21,18.47L591.06,19.24L593.64,19.11L594.5,18.73L596.21,18.34L597.07,18.73L601.36,18.6L602.22,18.85L615.08,18.98L615.94,19.11L616.8,18.6L617.66,18.98L620.23,18.6L621.09,18.47L622.8,18.85L623.66,18.73L626.24,18.85L627.09,18.6L634.81,18.73L635.67,19.37L639.1,18.6L639.96,18.85L642.54,18.98L643.39,19.11L645.97,18.6L646.82,18.98L648.54,19.89L649.4,18.98L651.97,18.21L652.83,18.85L654.55,18.34L655.4,18.34L657.12,19.11L657.98,18.34L660.55,18.6L661.41,18.47L664.84,18.47L665.7,18.85L666.56,18.98L667.41,18.34L668.27,18.85L669.13,18.34L671.7,18.85L672.56,18.34L675.13,19.37L675.99,18.73L679.42,18.98L680.28,18.73L684.57,18.47L685.43,19.24L688,18.85L688.86,19.24L692.29,18.34L693.15,18.6L694.86,18.6L695.72,18.08L697.44,18.98L698.3,18.85L700.87,18.34L701.73,18.34L702.59,18.98L703.44,18.34L704.3,18.73L705.16,18.21L706.87,18.73L707.73,18.73L708.59,19.11L709.45,18.6L718.88,18.73L719.74,19.11L721.46,18.85L722.32,18.34L724.03,18.21L724.89,18.08L726.61,18.73L727.46,18.34L730.89,18.47L731.75,18.21L733.47,18.73L734.33,18.47L736.04,18.73L736.9,18.6L755.77,18.47L756.63,19.11L758.35,18.47L759.2,18.47L762.64,18.47L763.49,18.6L765.21,18.47L766.07,18.08L767.78,18.47L768.64,18.34L771.21,19.24L772.07,18.34L772.93,19.11L773.79,18.6L776.36,18.34L777.22,18.73L779.79,18.6L780.65,18.85L785.8,18.73L786.66,18.98L788.37,18.34L789.23,18.34L796.09,18.34L796.95,18.98L797.81,18.47L798.67,18.98L805.53,18.21L806.39,18.21L814.11,18.85L814.96,18.98L817.54,18.47L818.4,18.08L824.4,18.21L825.26,18.98L828.69,18.21L829.55,18.21L845.85,18.21L846.71,18.85L854.43,18.34L855.28,18.6L857,18.6" style="vector-effect: non-scaling-stroke; fill: none; stroke: rgb(239, 85, 59); stroke-opacity: 1; stroke-width: 2px; opacity: 1;"/></g><g class="points"/><g class="text"/></g><g class="trace scatter trace92cb6a" style="stroke-miterlimit: 2; opacity: 1;"><g class="fills"/><g class="errorbars"/><g class="lines"><path class="js-line" d="M0,180.92L0.86,180.15L1.72,186.22L2.57,185.83L3.43,183.38L4.29,185.19L5.15,189.45L6.01,187.77L6.86,189.97L8.58,193.2L9.44,191.78L10.29,195.66L11.15,195.66L13.73,198.76L14.58,199.79L15.44,198.89L16.3,203.02L17.16,206.64L18.02,206.25L20.59,218.01L21.45,218.79L22.3,222.02L23.16,219.18L24.02,219.44L24.88,220.99L25.74,220.21L26.59,220.47L27.45,220.21L28.31,220.99L29.17,222.8L30.03,222.15L30.88,222.67L31.74,224.48L32.6,226.41L33.46,224.86L34.31,227.71L35.17,227.19L36.03,228.35L36.89,226.41L38.6,227.19L39.46,230.29L41.18,231.84L42.04,229.77L42.89,231.07L43.75,230.81L45.47,231.58L46.32,231.58L48.04,234.94L48.9,233.78L49.76,234.81L50.61,233.39L53.19,234.81L54.05,235.85L54.9,236.62L55.76,236.24L56.62,237.53L57.48,236.88L59.19,239.34L60.05,238.95L60.91,239.98L61.77,239.73L63.48,241.28L64.34,241.28L66.06,243.6L66.91,244.12L67.77,242.44L68.63,242.57L69.49,243.47L70.34,242.83L72.06,241.66L72.92,242.57L73.78,242.83L74.63,241.79L75.49,240.76L76.35,241.79L77.21,240.63L78.07,240.89L78.92,240.89L79.78,242.44L80.64,239.98L81.5,241.54L84.93,244.25L85.79,246.06L86.64,244.64L87.5,245.15L88.36,246.83L89.22,246.83L90.08,246.58L90.93,247.22L91.79,245.15L92.65,245.93L93.51,245.67L94.36,248L95.22,248.26L96.08,250.19L98.65,254.2L99.51,254.72L102.09,257.82L102.94,257.43L106.37,260.92L107.23,261.57L109.81,262.08L110.66,262.86L112.38,260.02L113.24,261.44L114.95,263.25L115.81,263.25L116.67,264.67L117.53,263.12L120.96,268.03L121.82,267.9L123.53,269.45L124.39,268.29L125.25,268.93L126.11,268.16L126.96,270.87L127.82,270.36L128.68,272.55L129.54,271.13L132.11,266.48L132.97,266.61L135.54,269.19L136.4,267.12L137.26,265.83L138.12,267L138.97,268.16L139.83,268.03L140.69,268.93L141.55,271L142.4,270.1L143.26,270.74L144.98,271.78L145.84,271.52L147.55,269.71L148.41,270.61L149.27,269.45L150.13,272.55L151.84,274.36L152.7,276.17L153.56,275.91L154.41,274.1L156.13,275.27L156.99,274.62L158.7,276.43L159.56,277.08L160.42,278.24L161.28,276.95L162.99,278.76L163.85,279.01L165.57,277.85L166.42,279.14L168.14,280.18L169,279.27L171.57,282.63L172.43,283.02L173.29,283.15L174.15,280.95L175.86,282.76L176.72,283.8L177.58,283.67L178.43,284.83L179.29,283.67L180.15,284.57L181.87,283.28L182.72,283.67L183.58,284.06L184.44,283.28L185.3,282.5L186.16,282.76L187.01,283.93L187.87,281.99L189.59,282.38L190.44,283.41L192.16,283.15L193.02,284.83L193.88,283.67L194.73,284.31L196.45,286.12L197.31,285.86L199.02,286.12L199.88,284.7L200.74,284.7L201.6,285.74L202.45,285.99L203.31,284.7L205.03,283.93L205.89,284.7L208.46,286.38L209.32,286.38L211.89,287.67L212.75,287.54L214.46,286.77L215.32,286.77L216.18,287.42L217.04,289.48L217.9,290.13L218.75,289.74L219.61,289.61L220.47,291.55L221.33,291.29L222.19,292.71L223.04,292.58L223.9,291.29L224.76,291.42L225.62,292.58L227.33,290.26L228.19,291.42L229.05,291.16L229.91,292.33L230.76,292.71L231.62,292.07L233.34,295.17L234.2,295.82L235.91,294.65L236.77,294.52L238.48,292.33L239.34,293.36L241.06,290.65L241.92,292.07L243.63,290.13L244.49,290L245.35,290.65L246.21,290.26L247.92,289.48L248.78,290.39L249.64,289.87L250.49,290.78L252.21,292.58L253.07,292.07L255.64,293.62L256.5,293.36L257.36,292.33L258.22,293.1L259.07,293.23L259.93,294.39L260.79,293.49L261.65,293.75L263.36,296.33L264.22,296.72L265.08,296.33L265.94,297.11L266.79,296.59L267.65,297.24L269.37,298.01L270.23,296.59L271.08,296.85L271.94,298.27L274.51,300.86L275.37,300.08L276.23,300.21L277.09,301.11L277.95,302.15L278.8,299.18L281.38,301.63L282.24,300.34L286.52,306.03L287.38,306.54L290.81,308.35L291.67,308.22L292.53,309L293.39,310.81L294.25,310.55L295.1,311.45L295.96,311.84L296.82,311.2L297.68,312.23L298.53,311.71L299.39,311.2L300.25,312.49L302.82,311.07L303.68,309.39L305.4,309.52L306.26,310.29L307.97,312.49L308.83,312.62L311.4,313.26L312.26,313.13L313.12,313.91L313.98,313L315.69,311.71L316.55,309.9L317.41,309.39L318.27,309.77L319.12,310.55L319.98,308.74L321.7,308.35L322.55,309.39L323.41,310.03L324.27,309.13L325.99,307.06L326.84,308.22L328.56,306.28L329.42,306.8L330.28,305.9L331.13,306.67L331.99,307.06L332.85,308.48L333.71,307.96L334.56,309L335.42,308.48L336.28,309.26L337.14,311.07L338,310.81L341.43,308.61L342.29,309.39L347.43,313.91L348.29,313.39L349.15,314.3L350.01,314.04L350.86,314.69L351.72,314.17L355.15,314.94L356.01,314.43L356.87,313.91L357.73,315.2L361.16,315.33L362.02,315.59L362.87,315.2L363.73,316.37L365.45,317.27L366.31,316.75L368.02,318.3L368.88,317.4L369.74,317.79L370.59,319.34L371.45,318.17L372.31,318.43L373.17,318.69L374.03,317.27L374.88,318.05L375.74,317.27L377.46,313.91L378.32,315.72L379.17,314.17L380.03,314.81L383.46,314.81L384.32,316.37L385.18,315.98L386.04,316.88L387.75,317.01L388.61,318.05L389.47,318.05L390.33,318.82L391.18,318.69L392.04,316.88L392.9,317.14L393.76,315.85L395.47,313.78L396.33,313.26L398.05,312.1L398.9,311.97L399.76,312.1L400.62,313L401.48,313.26L402.34,315.33L403.19,314.04L404.05,314.69L404.91,314.94L405.77,316.11L406.62,315.72L407.48,316.37L409.2,317.14L410.06,314.94L412.63,312.36L413.49,313.52L415.2,314.56L416.06,313.78L416.92,314.81L417.78,314.56L419.49,312.88L420.35,313.91L422.07,313.65L422.92,312.75L424.64,313L425.5,314.81L426.36,314.81L427.21,315.85L428.07,313.65L428.93,314.04L429.79,313L430.64,314.17L431.5,312.88L432.36,313.65L433.22,313.52L434.08,314.56L436.65,314.17L437.51,315.07L439.22,314.17L440.08,315.2L440.94,314.04L441.8,315.72L443.51,313.52L444.37,315.2L448.66,312.23L449.52,313L452.95,315.07L453.81,314.69L455.52,314.43L456.38,313.78L457.24,314.81L458.1,314.04L459.81,313.91L460.67,314.94L461.53,315.2L462.39,314.17L464.96,310.81L465.82,310.68L469.25,310.68L470.11,309.13L471.82,309.64L472.68,308.35L474.4,309.77L475.25,310.42L476.11,308.87L476.97,309.13L477.83,307.32L478.68,309.39L479.54,311.2L480.4,310.55L481.26,311.2L482.12,309.52L482.97,309.9L483.83,311.2L484.69,311.84L485.55,311.45L487.26,309L488.12,310.42L488.98,310.03L489.84,310.68L490.69,311.2L491.55,313L495.84,313.52L496.7,313.39L497.56,314.69L498.42,313.65L500.13,314.56L500.99,313.91L503.56,315.98L504.42,315.98L506.14,316.24L506.99,317.92L508.71,315.33L509.57,314.3L513,312.36L513.86,311.45L516.43,312.1L517.29,313.13L519.86,316.37L520.72,315.98L521.58,314.94L522.44,315.33L523.29,315.07L524.15,316.24L525.01,316.11L525.87,316.88L528.44,317.14L529.3,317.4L531.01,319.21L531.87,318.56L533.59,318.43L534.45,318.3L535.3,319.73L536.16,318.95L537.02,318.95L537.88,321.02L538.73,320.89L539.59,322.05L541.31,322.83L542.17,322.57L543.88,322.05L544.74,324.25L546.46,323.86L547.31,323.34L549.03,323.99L549.89,323.47L551.6,325.15L552.46,323.6L555.03,324.9L555.89,326.19L557.61,325.8L558.47,326.7L561.04,329.29L561.9,327.22L562.75,327.87L563.61,327.22L567.04,329.03L567.9,328.38L570.48,330.71L571.33,330.32L572.19,331.49L573.05,330.97L575.62,331.36L576.48,330.58L578.2,330.97L579.05,330.45L580.77,331.62L581.63,331.1L582.49,331.49L583.34,333.04L585.92,332L586.77,330.45L591.92,334.85L592.78,335.88L593.64,336.14L594.5,334.85L596.21,334.59L597.07,335.23L598.78,337.69L599.64,338.21L602.22,338.85L603.07,338.21L603.93,338.98L604.79,338.21L605.65,339.24L606.51,338.47L607.36,339.24L608.22,338.98L609.94,338.08L610.79,337.69L611.65,339.37L612.51,338.85L614.23,338.59L615.08,339.24L618.52,339.63L619.37,339.37L621.09,339.5L621.95,339.76L623.66,338.08L624.52,337.95L626.24,337.43L627.09,339.24L630.53,339.5L631.38,339.37L633.96,339.63L634.81,337.95L636.53,338.85L637.39,338.21L638.25,337.3L639.1,338.59L639.96,338.59L640.82,339.37L642.54,338.08L643.39,338.72L644.25,339.5L645.11,339.24L646.82,339.89L647.68,338.72L649.4,339.37L650.26,338.98L651.11,338.34L651.97,338.72L652.83,339.11L653.69,338.34L654.55,339.24L655.4,338.98L657.98,338.72L658.83,337.69L659.69,338.34L660.55,337.17L663.98,339.5L664.84,338.85L665.7,338.08L666.56,338.72L667.41,339.63L668.27,339.37L669.13,338.72L669.99,339.5L671.7,338.59L672.56,338.98L674.28,338.08L675.13,338.72L675.99,338.34L676.85,339.5L677.71,339.63L678.57,338.98L680.28,339.5L681.14,339.5L682,340.15L682.85,339.63L683.71,339.11L684.57,339.5L686.29,338.47L687.14,338.08L688.86,338.47L689.72,339.5L692.29,338.59L693.15,339.24L695.72,339.37L696.58,338.59L698.3,337.43L699.15,338.34L700.87,339.11L701.73,339.37L702.59,339.63L703.44,338.72L705.16,338.59L706.02,338.08L707.73,339.63L708.59,339.5L709.45,338.34L710.31,339.5L712.02,338.21L712.88,339.76L713.74,338.72L714.6,338.98L716.31,339.11L717.17,339.76L718.88,339.24L719.74,339.11L720.6,339.89L721.46,339.24L724.03,338.72L724.89,338.47L725.75,338.98L726.61,338.59L728.32,339.24L729.18,338.08L730.89,338.59L731.75,337.95L734.33,339.37L735.18,339.76L736.04,340.53L736.9,339.63L737.76,340.02L738.62,339.11L740.33,339.5L741.19,339.63L742.9,338.59L743.76,339.37L746.34,338.59L747.19,339.37L750.63,338.21L751.48,339.5L752.34,338.21L753.2,338.72L758.35,339.11L759.2,339.5L763.49,338.72L764.35,339.11L766.07,339.89L766.92,339.24L768.64,338.85L769.5,339.76L772.07,340.15L772.93,339.76L773.79,339.76L774.65,338.72L777.22,339.11L778.08,337.69L778.93,339.5L779.79,338.72L780.65,339.76L781.51,339.37L782.37,338.72L783.22,339.5L784.08,339.37L784.94,338.47L787.51,339.37L788.37,339.37L790.09,338.85L790.94,337.95L791.8,338.85L792.66,338.59L793.52,339.37L794.38,338.72L795.23,338.47L796.09,339.11L800.38,338.72L801.24,339.37L802.1,338.85L802.95,339.63L805.53,340.02L806.39,338.98L808.1,338.98L808.96,339.24L810.68,337.82L811.53,337.95L814.11,339.37L814.96,339.63L815.82,338.85L816.68,339.11L817.54,339.63L818.4,338.85L819.25,337.69L820.11,339.63L823.54,338.34L824.4,339.76L825.26,339.89L826.12,339.11L827.83,339.11L828.69,338.21L831.26,339.37L832.12,339.63L833.84,338.47L834.7,339.11L836.41,339.37L837.27,339.24L838.98,340.27L839.84,340.27L843.27,338.98L844.13,339.37L845.85,339.24L846.71,338.21L847.56,338.98L848.42,338.59L849.28,339.37L850.14,338.72L852.71,339.63L853.57,339.24L855.28,339.37L856.14,338.47L857,338.34" style="vector-effect: non-scaling-stroke; fill: none; stroke: rgb(0, 204, 150); stroke-opacity: 1; stroke-width: 2px; opacity: 1;"/></g><g class="points"/><g class="text"/></g><g class="trace scatter trace1438c0" style="stroke-miterlimit: 2; opacity: 1;"><g class="fills"/><g class="errorbars"/><g class="lines"><path class="js-line" d="M0,175.75L0.86,172.91L1.72,176.01L2.57,178.21L3.43,177.69L4.29,178.34L5.15,177.56L6.01,177.95L6.86,173.43L7.72,172.13L8.58,173.3L9.44,172.39L10.29,170.07L11.15,170.84L12.01,169.94L12.87,170.45L13.73,169.55L15.44,164.38L16.3,165.15L17.16,163.35L18.02,163.99L18.87,164.77L19.73,162.7L20.59,163.99L21.45,160.76L24.02,165.67L24.88,164.64L26.59,168.51L27.45,164.38L28.31,164.25L29.17,165.03L30.03,161.15L30.88,161.41L32.6,158.69L33.46,159.6L35.17,158.18L36.03,158.95L36.89,157.53L37.75,159.47L38.6,161.79L39.46,155.85L40.32,156.62L41.18,159.47L42.04,160.11L42.89,158.82L43.75,158.56L44.61,159.86L46.32,152.75L47.18,153.39L48.9,154.3L49.76,153.14L50.61,153.65L51.47,150.03L52.33,153.01L53.19,152.75L54.9,154.56L55.76,155.2L57.48,149.39L58.33,148.87L59.19,148.35L60.05,149.65L60.91,152.23L61.77,147.84L63.48,145.9L64.34,147.71L65.2,148.09L66.06,146.93L66.91,146.93L67.77,144.73L69.49,147.84L70.34,148.22L71.2,149.77L72.06,149.13L73.78,151.58L74.63,150.94L77.21,152.23L78.07,149.13L78.92,147.84L79.78,148.61L83.21,144.22L84.07,146.03L84.93,146.16L85.79,145.38L88.36,141.63L89.22,142.41L90.93,141.76L91.79,137.88L94.36,140.6L95.22,138.4L96.08,139.31L96.94,138.79L97.8,138.92L98.65,138.27L99.51,137.5L100.37,138.4L101.23,134.78L102.09,135.3L103.8,137.24L104.66,137.76L105.52,137.37L106.37,138.53L108.09,136.72L108.95,132.84L109.81,132.72L110.66,130L111.52,128.19L112.38,128.71L114.1,130.39L114.95,130.26L115.81,130.13L116.67,128.84L119.24,124.19L120.1,125.61L121.82,124.31L122.67,125.48L123.53,128.97L124.39,128.97L126.11,125.22L126.96,127.55L127.82,128.84L128.68,128.71L129.54,130.39L130.39,130.13L132.11,130.39L132.97,128.97L135.54,127.42L136.4,127.55L137.26,128.19L138.12,130.26L139.83,131.29L140.69,130L142.4,131.94L143.26,134.52L144.12,134.65L144.98,132.72L145.84,130.52L146.69,131.42L149.27,134.01L150.13,133.36L151.84,138.01L152.7,137.88L153.56,140.34L154.41,139.44L157.85,138.53L158.7,140.08L160.42,138.66L161.28,139.18L162.99,136.98L163.85,136.98L164.71,138.27L165.57,137.11L166.42,137.24L167.28,138.79L170.71,137.76L171.57,136.33L174.15,136.59L175,135.17L175.86,135.04L176.72,132.07L177.58,132.59L178.43,129.87L180.15,130.52L181.01,131.94L181.87,131.16L182.72,127.67L184.44,128.71L185.3,126.9L186.16,127.03L187.01,125.09L188.73,121.6L189.59,120.83L191.3,120.44L192.16,121.99L193.02,119.92L193.88,120.7L195.59,120.18L196.45,122.25L197.31,121.47L198.17,123.28L199.88,123.67L200.74,123.93L205.03,127.67L205.89,128.45L206.74,130.52L207.6,130L209.32,133.62L210.18,135.69L211.03,138.27L211.89,138.14L212.75,138.79L213.61,138.27L214.46,138.4L215.32,139.95L216.18,138.01L217.04,138.53L218.75,134.65L219.61,137.37L220.47,136.98L221.33,137.88L223.04,140.73L223.9,140.6L224.76,139.44L225.62,140.34L227.33,138.53L228.19,140.08L229.05,141.24L229.91,139.95L230.76,136.08L231.62,136.08L232.48,135.82L233.34,134.27L234.2,130.91L235.05,131.81L235.91,134.65L236.77,134.52L237.63,136.59L238.48,133.49L241.92,131.81L242.77,131.29L243.63,131.04L244.49,129.61L245.35,132.33L246.21,131.42L247.06,128.19L247.92,130.52L248.78,129.23L249.64,130.52L250.49,130.78L251.35,131.94L256.5,137.88L257.36,137.11L258.22,138.01L259.07,137.11L259.93,134.91L260.79,135.17L261.65,133.36L262.5,134.4L265.08,130.52L265.94,130.52L266.79,131.16L267.65,130L269.37,126.38L270.23,126.25L271.08,124.06L271.94,124.96L273.66,126.25L274.51,125.48L275.37,123.41L276.23,123.54L277.09,121.73L277.95,124.19L278.8,125.35L279.66,123.8L281.38,122.12L282.24,122.89L283.95,122.38L284.81,122.89L285.67,120.44L286.52,122.51L289.1,124.06L289.96,126.51L290.81,125.22L291.67,122.25L294.25,123.28L295.1,125.48L295.96,128.45L296.82,126.64L297.68,127.29L298.53,124.83L299.39,127.03L300.25,125.22L301.97,127.16L302.82,124.96L303.68,123.67L304.54,120.83L305.4,120.83L306.26,120.05L307.97,120.83L308.83,121.99L309.69,122.76L310.54,122.12L311.4,120.95L312.26,121.21L313.12,120.95L313.98,121.86L314.83,120.31L315.69,120.95L316.55,120.31L317.41,121.99L318.27,123.54L319.12,121.34L319.98,120.7L320.84,121.99L321.7,122.38L322.55,124.06L324.27,121.86L325.13,120.7L325.99,119.53L326.84,119.92L329.42,123.8L330.28,123.41L331.99,117.98L332.85,118.5L333.71,119.92L334.56,118.76L335.42,119.02L336.28,117.21L338,115.4L338.85,114.1L339.71,115.66L340.57,113.85L341.43,114.36L342.29,112.81L343.14,111.91L344,112.68L344.86,112.3L345.72,109.32L347.43,106.61L348.29,108.03L349.15,108.03L350.01,107L350.86,106.22L351.72,106.48L353.44,106.09L354.3,107.64L357.73,108.42L358.58,110.1L359.44,110.36L360.3,112.04L361.16,113.33L362.02,108.81L363.73,108.81L364.59,111.13L366.31,112.17L367.16,111.65L368.88,111.78L369.74,111L370.59,109.19L371.45,112.17L372.31,113.59L373.17,113.2L374.88,114.49L375.74,116.82L376.6,117.21L377.46,116.17L378.32,115.14L379.17,115.53L380.03,114.75L380.89,115.14L383.46,114.23L384.32,115.27L386.04,112.81L386.89,113.98L388.61,115.53L389.47,113.46L391.18,110.36L392.04,111.39L392.9,111.39L393.76,112.3L395.47,112.3L396.33,113.33L397.19,112.04L398.05,114.36L400.62,112.42L401.48,113.33L402.34,112.04L403.19,112.94L404.91,111.13L405.77,112.42L406.62,113.85L407.48,112.04L410.91,115.4L411.77,114.62L412.63,114.88L413.49,113.46L414.35,115.91L415.2,115.14L416.06,115.14L416.92,114.1L417.78,114.36L418.63,113.59L419.49,114.36L420.35,112.68L422.07,110.62L422.92,107.9L423.78,108.68L424.64,107.9L425.5,108.29L426.36,106.74L427.21,107.9L428.07,106.61L429.79,105.45L430.64,106.61L432.36,105.32L433.22,105.96L434.08,106.35L434.93,105.83L435.79,107.64L436.65,106.74L438.37,102.47L439.22,103.38L440.08,101.44L440.94,102.6L442.65,100.79L443.51,103.12L446.09,100.41L446.94,98.98L449.52,100.92L450.38,99.76L451.23,102.21L452.09,101.31L452.95,100.02L453.81,96.53L454.66,95.62L455.52,97.82L456.38,98.08L457.24,100.53L458.95,99.76L459.81,100.41L461.53,97.82L462.39,97.82L464.96,96.14L465.82,98.21L467.53,97.04L468.39,98.73L469.25,98.47L470.11,99.24L471.82,97.17L472.68,97.56L473.54,98.21L474.4,96.14L475.25,94.98L476.11,95.62L476.97,96.14L477.83,95.75L479.54,94.85L480.4,96.01L481.26,95.24L482.12,96.66L482.97,95.88L483.83,97.56L484.69,97.56L485.55,96.4L486.41,98.73L487.26,96.66L488.98,97.95L489.84,97.3L490.69,97.17L491.55,96.27L494.98,90.45L495.84,89.68L497.56,91.88L498.42,91.23L499.27,93.68L500.13,92.91L501.85,94.46L502.7,95.36L503.56,96.79L504.42,96.14L506.14,98.47L506.99,98.47L508.71,99.5L509.57,97.95L511.28,94.59L512.14,95.36L513,95.11L513.86,94.07L514.71,93.56L515.57,94.85L516.43,95.24L517.29,97.43L518.15,96.66L519,100.79L519.86,99.89L520.72,100.66L521.58,102.47L522.44,101.44L524.15,98.98L525.01,98.6L525.87,98.34L526.72,99.37L527.58,97.82L528.44,98.85L529.3,99.63L530.16,97.43L531.01,95.75L531.87,96.01L535.3,98.85L536.16,98.85L537.02,96.66L537.88,97.04L539.59,99.11L540.45,101.57L542.17,103.64L543.02,101.31L544.74,102.86L545.6,102.34L546.46,103.38L547.31,100.15L548.17,99.37L549.03,96.01L549.89,97.43L550.74,96.4L552.46,99.11L553.32,98.6L555.03,99.76L555.89,101.57L556.75,100.53L557.61,97.17L561.04,101.7L561.9,99.11L562.75,98.6L563.61,96.27L564.47,96.66L565.33,97.95L567.04,98.47L567.9,97.17L568.76,99.89L569.62,99.37L570.48,99.24L571.33,100.79L572.19,99.63L573.05,99.76L574.76,100.15L575.62,98.6L576.48,100.41L577.34,97.43L579.05,96.66L579.91,97.69L581.63,95.75L582.49,94.07L584.2,96.01L585.06,96.4L586.77,95.36L587.63,96.14L588.49,96.4L589.35,94.72L590.21,95.75L591.06,95.11L591.92,94.2L592.78,96.14L595.35,95.62L596.21,93.04L597.93,91.75L598.78,91.23L600.5,88.52L601.36,90.58L602.22,90.32L603.07,91.49L603.93,91.75L604.79,89.94L605.65,92.91L606.51,92L608.22,93.43L609.08,94.07L610.79,91.88L611.65,93.43L613.37,94.2L614.23,93.04L615.08,91.49L615.94,91.88L617.66,96.14L618.52,97.82L623.66,102.47L624.52,103.89L625.38,104.41L626.24,101.7L627.09,98.6L627.95,98.34L628.81,97.82L629.67,99.37L630.53,100.28L631.38,96.79L633.96,100.02L634.81,98.73L635.67,99.63L636.53,98.21L637.39,97.95L638.25,99.11L639.96,100.92L640.82,100.66L642.54,104.54L643.39,104.15L644.25,103.89L645.11,101.83L645.97,99.24L646.82,99.24L647.68,100.53L648.54,100.28L650.26,98.47L651.11,98.85L652.83,97.56L653.69,97.17L655.4,93.43L656.26,93.3L657.98,91.88L658.83,93.56L660.55,92.26L661.41,93.04L662.27,93.3L663.12,94.46L663.98,94.98L664.84,96.79L666.56,93.56L667.41,92.65L668.27,91.36L669.13,88.39L670.84,85.93L671.7,88.77L675.13,86.06L675.99,86.83L676.85,88L677.71,87.09L678.57,86.58L679.42,88.26L681.14,86.32L682,86.32L682.85,87.61L683.71,87.09L684.57,84.9L685.43,87.48L686.29,85.8L687.14,87.09L690.58,86.83L691.43,86.58L692.29,86.71L693.15,87.61L694.01,88.26L694.86,85.41L695.72,85.8L696.58,87.22L697.44,90.32L698.3,88.77L700.87,86.83L701.73,85.67L702.59,84.25L703.44,86.06L704.3,88.26L705.16,87.87L706.87,84.51L707.73,85.03L708.59,85.41L709.45,87.35L712.02,84.25L712.88,81.41L714.6,83.47L715.45,82.7L716.31,83.6L717.17,80.76L718.03,81.92L718.88,81.67L720.6,84.51L721.46,84.77L722.32,84.38L723.17,85.67L724.03,84.51L724.89,85.54L726.61,84.38L727.46,81.92L728.32,82.44L729.18,80.24L730.04,79.6L730.89,80.11L731.75,82.31L732.61,81.67L733.47,79.99L734.33,81.67L735.18,77.92L736.04,78.69L736.9,76.24L737.76,76.37L740.33,79.21L741.19,78.18L742.05,80.11L742.9,79.86L744.62,82.96L745.48,80.63L746.34,83.22L747.19,80.89L748.05,81.79L748.91,80.63L750.63,78.05L751.48,77.01L752.34,78.69L753.2,77.53L754.91,76.62L755.77,76.62L756.63,77.01L757.49,81.67L759.2,78.43L760.06,78.18L762.64,77.27L763.49,75.2L764.35,75.46L765.21,74.04L766.07,74.17L766.92,75.33L767.78,76.5L768.64,76.11L769.5,75.85L770.36,76.62L772.07,77.79L772.93,78.18L773.79,77.27L774.65,78.82L776.36,76.62L777.22,77.79L778.93,78.69L779.79,78.31L780.65,80.89L781.51,79.47L782.37,79.86L783.22,81.41L784.08,79.34L784.94,80.37L786.66,77.27L787.51,77.4L788.37,77.27L789.23,79.47L790.09,79.73L790.94,78.43L791.8,77.79L792.66,76.11L793.52,74.17L794.38,74.56L796.09,73.39L796.95,74.82L797.81,74.3L798.67,76.24L799.52,76.11L800.38,74.82L802.95,78.82L803.81,77.27L805.53,78.31L806.39,77.4L807.24,78.95L808.1,76.75L810.68,75.98L811.53,74.82L812.39,75.33L813.25,73.65L814.96,76.11L815.82,75.98L816.68,76.62L817.54,75.59L818.4,74.56L819.25,75.59L821.83,73.91L822.69,71.71L823.54,69.52L824.4,71.33L825.26,71.07L826.12,72.75L827.83,70.94L828.69,70.55L830.41,69.78L831.26,68.22L832.12,68.87L832.98,70.94L833.84,71.97L834.7,71.58L835.55,73.01L836.41,71.97L838.13,70.94L838.98,71.07L839.84,69.9L840.7,70.55L841.56,70.94L842.42,69L844.13,67.71L844.99,69.39L845.85,68.87L846.71,69.65L848.42,68.1L849.28,68.61L850.99,70.42L851.85,69.39L852.71,69.13L853.57,70.81L854.43,73.39L855.28,72.1L856.14,72.1L857,69.26" style="vector-effect: non-scaling-stroke; fill: none; stroke: rgb(171, 99, 250); stroke-opacity: 1; stroke-width: 2px; opacity: 1;"/></g><g class="points"/><g class="text"/></g><g class="trace scatter trace837c6c" style="stroke-miterlimit: 2; opacity: 1;"><g class="fills"/><g class="errorbars"/><g class="lines"><path class="js-line" d="M0,176.4L0.86,178.34L1.72,173.68L2.57,167.35L3.43,167.09L4.29,165.28L5.15,165.54L6.01,164.12L6.86,165.03L8.58,161.79L9.44,164.25L12.87,174.98L13.73,174.2L15.44,167.87L16.3,167.74L17.16,168L18.02,166.83L18.87,162.83L19.73,167.48L20.59,165.8L21.45,169.29L24.02,178.34L24.88,178.21L25.74,178.08L26.59,174.72L29.17,171.1L30.03,169.16L30.88,170.45L31.74,167.61L32.6,168.77L33.46,168.64L36.03,173.3L36.89,171.87L37.75,174.59L38.6,171.75L39.46,172.52L40.32,168.64L42.04,175.24L42.89,171.75L43.75,174.85L44.61,173.94L46.32,177.95L47.18,177.82L48.9,182.86L49.76,183.38L51.47,179.63L52.33,178.72L53.19,181.18L54.05,180.15L54.9,180.53L55.76,178.47L56.62,181.18L57.48,179.11L58.33,178.47L59.19,179.89L60.91,179.11L61.77,181.83L62.62,179.24L63.48,180.15L66.06,184.28L66.91,183.51L67.77,184.93L68.63,180.66L70.34,184.28L71.2,182.86L72.92,185.06L73.78,185.06L74.63,186.74L75.49,185.45L77.21,182.99L78.07,184.15L80.64,180.02L81.5,180.79L82.35,179.37L83.21,182.47L84.07,182.21L84.93,181.05L86.64,182.99L87.5,182.6L88.36,182.34L89.22,181.18L90.08,177.95L90.93,177.82L92.65,175.75L93.51,177.17L94.36,174.72L95.22,175.62L96.08,175.88L96.94,177.56L99.51,175.11L100.37,178.6L101.23,180.28L102.09,177.95L102.94,178.98L103.8,178.72L104.66,178.08L105.52,179.76L107.23,176.79L108.09,177.17L108.95,177.95L109.81,176.66L110.66,174.33L111.52,174.33L112.38,175.49L113.24,173.81L114.1,175.11L114.95,174.98L115.81,175.88L116.67,174.98L117.53,175.36L118.38,178.21L120.1,180.66L120.96,180.15L121.82,182.6L122.67,181.31L124.39,178.6L125.25,180.02L126.11,180.92L126.96,178.98L127.82,179.5L128.68,178.34L129.54,179.5L130.39,177.43L131.25,174.46L132.11,175.49L132.97,176.92L133.83,175.24L135.54,173.04L136.4,171.36L138.12,169.94L138.97,172.52L140.69,173.04L141.55,172.13L143.26,176.14L144.12,173.43L144.98,170.32L145.84,170.97L146.69,170.19L147.55,172.91L148.41,171.1L149.27,166.58L150.13,168.64L150.98,168.39L151.84,168.64L152.7,166.58L153.56,163.47L154.41,164.64L156.13,166.83L156.99,165.41L162.14,158.05L162.99,156.5L163.85,154.3L164.71,156.5L165.57,156.5L166.42,158.3L167.28,158.05L168.14,159.47L169,156.75L169.86,158.18L170.71,155.59L171.57,157.27L172.43,156.37L173.29,154.17L174.15,155.2L175,154.94L176.72,151.2L177.58,151.33L178.43,151.71L179.29,150.16L181.01,155.07L181.87,154.94L183.58,155.2L184.44,155.46L185.3,156.24L186.16,158.43L187.01,157.14L187.87,159.6L188.73,157.14L189.59,157.79L190.44,159.73L191.3,159.47L193.02,159.98L193.88,160.89L195.59,164.12L196.45,162.18L197.31,160.24L198.17,162.05L199.88,163.86L200.74,162.7L201.6,162.31L202.45,163.86L204.17,159.98L205.03,159.73L206.74,157.01L207.6,159.47L211.03,160.5L211.89,161.15L213.61,158.69L214.46,158.82L216.18,161.15L217.04,158.95L217.9,160.24L218.75,159.73L220.47,157.01L221.33,160.11L223.04,153.78L223.9,153.26L225.62,151.2L226.47,151.2L228.19,147.71L229.05,148.74L229.91,147.58L230.76,149.39L232.48,149.65L233.34,147.06L234.2,146.93L235.05,148.09L235.91,146.8L236.77,149.52L237.63,150.03L238.48,148.87L241.06,150.16L241.92,150.16L242.77,151.71L243.63,149.65L245.35,154.69L246.21,151.07L247.06,151.71L247.92,150.42L248.78,149.9L249.64,151.33L250.49,153.26L251.35,153.26L252.21,152.1L253.07,152.49L253.93,151.33L254.78,152.49L256.5,149.65L257.36,148.35L259.07,152.36L259.93,152.88L260.79,151.2L261.65,151.71L262.5,150.94L263.36,154.94L265.08,154.04L265.94,154.94L267.65,157.27L268.51,155.33L269.37,154.94L270.23,152.36L271.08,153.01L271.94,151.97L272.8,155.33L273.66,154.82L274.51,152.88L275.37,155.46L277.09,153.14L277.95,153.65L278.8,153.78L279.66,154.82L281.38,152.36L282.24,153.01L283.09,151.71L283.95,151.97L285.67,153.91L286.52,154.82L288.24,154.94L289.1,156.62L289.96,155.46L290.81,157.66L291.67,154.69L292.53,155.72L293.39,154.17L294.25,156.62L295.1,152.23L295.96,151.97L297.68,155.2L298.53,152.75L299.39,151.84L300.25,148.74L301.11,148.48L301.97,144.09L302.82,146.03L303.68,143.44L305.4,144.22L306.26,143.57L308.83,143.96L309.69,146.67L312.26,140.47L313.12,139.44L315.69,144.99L316.55,144.86L317.41,146.29L318.27,144.86L319.12,142.8L319.98,144.09L321.7,144.09L322.55,144.22L324.27,147.84L325.13,146.29L326.84,142.54L327.7,143.18L329.42,140.99L330.28,141.89L331.13,142.28L331.99,141.5L333.71,139.05L334.56,141.12L335.42,141.5L336.28,140.6L337.14,135.04L338,135.04L338.85,136.08L339.71,139.05L341.43,136.08L342.29,135.56L344,132.59L344.86,133.75L345.72,134.91L346.57,133.49L347.43,136.98L348.29,136.72L349.15,139.31L350.01,136.33L350.86,135.56L351.72,133.75L352.58,134.14L353.44,135.43L354.3,136.72L355.15,135.95L356.01,137.88L356.87,136.2L360.3,132.07L361.16,131.04L362.02,132.46L362.87,129.1L363.73,124.96L364.59,125.74L365.45,122.76L366.31,126.25L368.02,127.16L368.88,127.8L369.74,126.64L370.59,124.06L373.17,129.61L374.03,128.84L374.88,128.19L375.74,125.99L377.46,127.29L378.32,129.61L380.03,126.9L380.89,128.06L383.46,121.73L384.32,123.41L385.18,124.7L386.04,123.15L388.61,118.63L389.47,118.5L390.33,118.5L391.18,116.04L392.04,117.46L392.9,116.95L394.61,117.08L395.47,114.88L397.19,111.26L398.05,110.23L398.9,111.91L399.76,110.74L400.62,109.97L401.48,107.9L404.05,110.36L404.91,109.97L405.77,108.93L406.62,110.1L408.34,108.42L409.2,108.93L410.91,114.23L411.77,112.3L412.63,115.01L413.49,110.74L414.35,111.13L415.2,110.49L416.92,102.47L417.78,102.73L418.63,101.31L419.49,102.86L420.35,101.57L421.21,104.02L422.07,99.76L422.92,101.83L423.78,99.63L424.64,99.5L425.5,99.5L426.36,101.18L428.07,102.6L428.93,99.5L429.79,95.24L430.64,97.04L432.36,102.86L433.22,103.12L435.79,98.73L436.65,100.02L437.51,102.09L438.37,101.83L440.08,100.92L440.94,100.92L441.8,99.76L442.65,100.02L444.37,97.69L445.23,96.01L446.09,97.17L446.94,94.85L447.8,94.85L448.66,95.88L449.52,98.08L450.38,95.62L451.23,95.75L452.09,95.11L453.81,91.23L454.66,90.71L455.52,94.85L456.38,94.33L457.24,94.72L458.1,92.52L459.81,88L460.67,88.13L461.53,86.83L462.39,87.87L463.24,87.48L464.1,85.15L464.96,84.64L465.82,85.67L467.53,83.47L468.39,84.51L470.96,80.89L471.82,82.31L472.68,82.7L473.54,78.95L476.97,74.56L477.83,74.43L478.68,77.27L479.54,76.24L480.4,74.69L481.26,75.46L482.12,79.21L482.97,75.07L483.83,73.91L484.69,75.59L485.55,74.69L486.41,76.37L487.26,73.78L488.12,75.2L488.98,75.59L489.84,73.65L490.69,72.49L491.55,68.22L493.27,71.07L494.13,70.03L496.7,72.75L497.56,71.97L498.42,72.36L499.27,69.65L500.13,67.45L500.99,69.65L501.85,70.81L502.7,68.87L504.42,71.97L505.28,70.94L506.14,70.55L506.99,73.01L508.71,77.92L509.57,77.01L510.43,78.43L511.28,75.85L512.14,74.3L513,75.72L515.57,70.55L516.43,69.9L517.29,70.42L518.15,70.03L521.58,67.32L522.44,68.1L524.15,65.12L525.01,66.54L525.87,64.73L526.72,65.51L527.58,68.48L528.44,67.71L529.3,66.67L530.16,67.97L531.01,68.22L531.87,66.67L537.02,66.03L537.88,65.25L539.59,62.93L540.45,62.54L541.31,60.21L542.17,63.57L543.02,66.93L543.88,67.19L544.74,69L545.6,68.74L547.31,59.31L548.17,56.98L549.03,56.21L549.89,53.62L551.6,54.14L552.46,53.36L553.32,49.61L554.18,49.61L555.03,49.61L555.89,51.55L556.75,52.07L557.61,54.78L559.32,49.74L560.18,52.2L561.9,46.64L562.75,49.23L565.33,55.17L566.19,55.17L567.9,54.01L568.76,50.65L569.62,50.52L570.48,49.48L571.33,51.04L572.19,50.91L573.05,51.68L573.91,49.87L575.62,47.68L576.48,50L577.34,49.74L578.2,52.97L579.05,53.23L579.91,54.78L580.77,53.88L581.63,50.26L582.49,51.42L583.34,47.8L585.06,45.35L585.92,46L586.77,46.77L587.63,46.25L588.49,44.96L589.35,46.9L590.21,45.09L591.06,47.16L591.92,47.55L592.78,50.13L597.07,40.31L597.93,40.57L598.78,41.73L599.64,41.6L602.22,39.15L603.07,41.21L603.93,41.21L604.79,38.63L605.65,39.4L606.51,41.47L608.22,43.15L609.08,42.63L609.94,40.44L610.79,40.44L611.65,36.82L612.51,36.82L613.37,35.14L614.23,36.17L615.08,35.01L615.94,35.53L616.8,34.36L617.66,36.82L618.52,32.3L619.37,32.42L620.23,29.71L621.09,31.65L622.8,30.23L623.66,30.87L625.38,29.84L626.24,31.26L627.09,31.26L627.95,32.04L629.67,30.87L630.53,31.65L633.1,28.94L633.96,29.84L634.81,31.91L635.67,31.91L638.25,34.36L639.1,34.62L642.54,27.26L643.39,25.96L644.25,27.51L645.11,26.35L646.82,29.19L647.68,27.77L648.54,28.81L649.4,28.42L650.26,30.36L651.11,29.97L651.97,28.68L652.83,30.36L654.55,28.81L655.4,28.42L657.12,30.87L657.98,31.39L658.83,31.65L659.69,30.36L660.55,28.94L661.41,29.45L663.12,29.97L663.98,29.84L664.84,30.36L665.7,29.45L668.27,27.13L669.13,29.06L669.99,28.29L670.84,28.68L672.56,29.32L673.42,28.29L674.28,28.68L675.13,31.26L675.99,31.65L676.85,33.59L677.71,29.45L678.57,30.1L680.28,27.9L681.14,28.55L682,28.55L682.85,31.13L684.57,32.94L685.43,31.65L687.14,29.45L688,29.84L690.58,31.78L691.43,31.52L692.29,32.42L693.15,31L694.01,32.17L694.86,31.13L696.58,32.94L697.44,32.04L698.3,29.84L699.15,30.1L700.01,30.1L700.87,31.91L702.59,29.06L703.44,30.1L704.3,29.45L705.16,27.26L707.73,26.48L708.59,27.9L709.45,27.64L710.31,28.42L712.02,25.58L712.88,27.64L714.6,28.55L715.45,30.1L716.31,30.23L717.17,29.58L718.03,28.94L718.88,31.26L719.74,31.65L720.6,30.49L721.46,32.3L722.32,31.91L723.17,29.06L724.03,29.45L724.89,28.03L725.75,28.81L727.46,28.68L728.32,27.77L730.04,26.09L730.89,27.64L731.75,29.45L732.61,28.42L733.47,26.09L734.33,26.74L735.18,28.42L736.04,32.04L736.9,29.19L737.76,29.71L738.62,30.1L739.47,31.78L740.33,28.68L741.19,30.1L742.9,30.62L743.76,29.32L745.48,30.49L746.34,32.94L747.19,33.2L748.05,31L748.91,28.94L749.77,30.62L753.2,28.55L754.06,30.36L754.91,30.62L755.77,33.72L756.63,33.72L757.49,31.26L758.35,31.26L759.2,29.45L760.06,31.52L760.92,28.68L762.64,29.97L763.49,29.71L764.35,29.71L765.21,28.94L766.07,27.9L766.92,28.68L769.5,24.93L770.36,27L772.07,28.94L772.93,27.51L774.65,29.06L775.5,28.55L777.22,32.3L778.08,31L778.93,30.49L779.79,33.07L782.37,28.81L783.22,30.62L784.94,29.06L785.8,29.97L790.09,30.62L790.94,28.29L791.8,25.83L792.66,27L794.38,26.48L795.23,27.9L796.09,24.93L796.95,26.09L798.67,30.23L799.52,28.68L800.38,28.68L801.24,26.74L802.1,28.68L802.95,28.29L805.53,30.1L806.39,31.26L807.24,33.72L808.1,31.13L808.96,31L809.82,29.84L810.68,30.1L811.53,28.55L813.25,28.94L814.11,30.1L814.96,32.3L815.82,30.49L816.68,31L817.54,32.81L819.25,29.45L820.11,28.03L821.83,30.36L822.69,29.58L823.54,29.32L824.4,27.77L825.26,31.78L826.12,29.32L827.83,27.13L828.69,27.9L829.55,25.96L830.41,25.96L832.12,27.9L832.98,29.19L833.84,30.62L834.7,28.81L835.55,32.81L836.41,28.55L838.13,27.38L838.98,28.42L840.7,29.32L841.56,28.03L842.42,29.32L843.27,28.81L844.13,29.45L844.99,31.26L846.71,33.59L847.56,30.49L848.42,29.84L849.28,31.78L850.99,32.17L851.85,29.97L853.57,30.74L854.43,30.49L856.14,32.94L857,30.36" style="vector-effect: non-scaling-stroke; fill: none; stroke: rgb(255, 161, 90); stroke-opacity: 1; stroke-width: 2px; opacity: 1;"/></g><g class="points"/><g class="text"/></g><g class="trace scatter trace94eb7b" style="stroke-miterlimit: 2; opacity: 1;"><g class="fills"/><g class="errorbars"/><g class="lines"><path class="js-line" d="M0,182.47L0.86,182.21L1.72,179.89L2.57,180.79L3.43,175.24L4.29,175.36L5.15,181.44L6.01,181.44L6.86,180.15L8.58,182.6L9.44,186.09L10.29,186.48L11.15,193.2L12.01,196.95L12.87,205.22L14.58,207.55L15.44,206.25L17.16,193.46L18.02,195.78L19.73,191L20.59,191.78L22.3,190.87L23.16,191.78L24.02,191.91L24.88,191.13L26.59,196.17L27.45,197.85L28.31,197.59L29.17,193.85L33.46,208.06L34.31,204.83L36.03,194.62L36.89,196.17L38.6,194.36L39.46,193.85L40.32,195.01L41.18,194.36L42.89,190.74L43.75,191.13L44.61,190.74L45.47,185.96L46.32,186.22L47.18,184.93L48.04,184.41L48.9,181.05L49.76,185.57L50.61,181.18L52.33,184.02L53.19,181.83L54.05,184.67L54.9,190.36L55.76,189.19L56.62,184.8L57.48,183.64L58.33,180.66L59.19,182.21L60.05,181.05L60.91,181.96L61.77,181.18L63.48,176.27L64.34,177.43L65.2,178.72L66.06,181.7L66.91,185.45L67.77,184.8L68.63,190.74L69.49,190.23L71.2,188.29L72.06,191.26L72.92,193.85L73.78,191.91L74.63,195.4L75.49,192.29L76.35,194.62L77.21,194.36L78.07,195.78L78.92,199.4L79.78,200.57L80.64,196.56L82.35,196.43L83.21,196.69L84.07,193.33L84.93,193.46L85.79,192.94L86.64,198.5L89.22,206.64L90.08,207.67L90.93,210.39L91.79,207.8L93.51,206.64L94.36,209.23L95.22,210.26L96.08,210L96.94,208.84L97.8,215.43L103.8,202.63L104.66,202.76L105.52,204.7L106.37,203.93L107.23,206.12L108.09,203.8L112.38,195.27L113.24,194.49L114.1,191.91L114.95,197.59L115.81,199.53L116.67,198.5L117.53,197.59L118.38,199.53L119.24,199.92L120.1,201.34L122.67,203.93L123.53,210.39L124.39,211.16L125.25,205.35L126.96,201.6L127.82,204.83L128.68,206.25L129.54,205.86L133.83,196.3L134.68,197.08L135.54,190.23L136.4,191.39L138.12,191L138.97,185.32L139.83,183.25L140.69,183.89L141.55,184.54L142.4,186.61L143.26,189.19L144.12,188.16L146.69,185.57L147.55,185.83L148.41,183.64L149.27,183.51L150.13,184.28L150.98,183.12L151.84,182.99L152.7,186.35L154.41,181.57L155.27,183.12L156.13,178.98L156.99,181.7L157.85,182.21L158.7,180.53L159.56,182.99L160.42,182.86L161.28,185.96L162.14,184.8L164.71,184.8L165.57,186.87L166.42,186.87L167.28,185.57L168.14,185.7L169,183.38L169.86,184.67L170.71,188.29L171.57,187.38L172.43,184.41L173.29,182.99L174.15,188.16L175,186.35L175.86,182.73L176.72,185.32L177.58,183.38L178.43,182.34L179.29,183.12L181.01,184.28L181.87,187.25L182.72,189.84L183.58,189.84L184.44,190.74L185.3,190.36L186.16,193.2L187.01,191.65L187.87,195.53L188.73,193.97L189.59,194.75L190.44,191.78L191.3,193.59L192.16,191.65L193.02,194.1L193.88,191.78L195.59,193.97L196.45,194.1L197.31,196.3L198.17,195.14L199.02,198.11L199.88,192.55L201.6,199.02L202.45,196.95L203.31,195.4L204.17,192.17L205.03,193.72L205.89,193.46L207.6,193.85L208.46,195.78L209.32,195.78L210.18,194.62L212.75,196.95L213.61,201.21L215.32,203.8L216.18,201.99L217.9,207.03L218.75,204.7L220.47,201.47L221.33,201.86L222.19,201.34L223.04,198.37L224.76,198.11L225.62,199.79L229.05,206.77L229.91,205.09L232.48,210.91L233.34,210.52L235.05,216.72L235.91,214.39L237.63,213.1L238.48,214.01L240.2,208.58L241.06,209.61L241.92,209.1L242.77,211.42L243.63,211.29L244.49,212.33L245.35,211.16L246.21,213.75L247.06,216.46L247.92,215.43L248.78,216.07L249.64,215.04L251.35,215.69L252.21,212.71L253.07,213.36L253.93,215.43L254.78,215.04L255.64,218.01L256.5,217.76L257.36,219.31L258.22,219.82L259.07,225.51L259.93,226.41L260.79,223.05L261.65,223.44L262.5,226.16L263.36,223.83L264.22,226.93L265.08,226.54L265.94,222.41L266.79,219.44L267.65,222.67L269.37,219.31L270.23,222.15L271.94,219.82L272.8,217.76L275.37,224.09L276.23,219.44L277.09,220.08L277.95,219.56L280.52,225.77L281.38,225.12L282.24,222.67L283.09,222.8L283.95,220.08L284.81,214.65L285.67,214.27L286.52,210.39L287.38,210.78L288.24,212.07L289.1,208.97L289.96,211.94L292.53,204.18L293.39,201.99L294.25,197.85L295.1,200.44L295.96,200.18L296.82,202.5L297.68,201.73L298.53,205.61L299.39,208.97L300.25,206.38L301.11,205.74L301.97,202.5L302.82,204.83L303.68,203.28L305.4,205.61L306.26,209.35L307.97,207.42L308.83,207.16L309.69,207.03L310.54,203.41L312.26,205.74L313.12,205.09L314.83,206.64L315.69,204.83L316.55,205.35L317.41,204.83L318.27,203.8L319.12,207.55L319.98,207.42L320.84,205.74L321.7,206.12L322.55,202.25L325.13,204.31L325.99,209.48L326.84,208.45L327.7,204.96L328.56,207.03L329.42,197.85L331.13,198.89L331.99,197.98L333.71,199.66L334.56,199.79L335.42,197.59L336.28,198.63L337.14,195.78L338,197.46L338.85,199.66L339.71,196.43L341.43,194.49L342.29,195.78L344,197.85L344.86,197.34L346.57,195.01L347.43,199.14L348.29,199.14L349.15,196.69L350.86,190.87L351.72,191.78L352.58,192.81L353.44,196.17L354.3,197.59L355.15,196.95L356.01,197.21L356.87,195.91L358.58,192.55L359.44,192.42L361.16,197.98L362.02,196.43L362.87,198.63L363.73,197.85L365.45,205.22L366.31,203.15L367.16,201.34L368.02,203.67L368.88,204.31L369.74,201.34L370.59,200.18L371.45,197.59L372.31,197.46L373.17,194.88L374.03,199.4L374.88,198.89L376.6,201.34L377.46,201.47L378.32,201.34L379.17,202.38L380.03,200.44L380.89,200.7L382.6,194.23L383.46,193.33L385.18,198.5L386.04,200.95L386.89,204.18L387.75,203.67L390.33,207.67L391.18,206.25L392.9,199.92L393.76,199.79L394.61,202.12L395.47,201.86L397.19,203.8L398.05,200.31L399.76,208.71L400.62,208.45L401.48,208.45L402.34,207.16L404.05,213.75L404.91,213.36L405.77,216.72L406.62,215.3L408.34,216.46L409.2,218.66L410.06,214.65L410.91,215.17L411.77,211.29L412.63,212.84L414.35,207.93L415.2,212.07L416.06,211.29L416.92,212.2L417.78,214.78L418.63,212.33L419.49,208.97L420.35,210.65L421.21,207.42L422.07,209.35L422.92,207.55L423.78,209.23L425.5,204.96L426.36,207.29L428.07,201.08L428.93,202.63L430.64,205.61L431.5,205.22L434.93,211.29L435.79,211.16L436.65,209.48L437.51,210.52L438.37,209.74L439.22,212.33L440.08,213.36L440.94,211.42L441.8,215.17L442.65,212.71L444.37,217.5L445.23,214.27L446.09,213.62L446.94,210.91L447.8,213.36L448.66,213.23L449.52,213.75L450.38,213.1L452.09,211.16L452.95,213.49L453.81,211.94L454.66,213.62L456.38,216.2L457.24,217.76L458.1,215.82L458.95,217.11L460.67,210L461.53,214.14L462.39,214.27L463.24,215.3L464.96,217.88L465.82,218.27L466.67,219.95L467.53,219.82L468.39,219.82L469.25,218.92L470.11,220.47L470.96,218.27L471.82,219.95L472.68,214.52L473.54,212.84L474.4,213.75L475.25,214.91L476.11,214.01L476.97,212.97L477.83,213.62L478.68,213.88L479.54,213.23L480.4,213.62L481.26,215.43L482.12,215.82L482.97,214.39L484.69,215.56L485.55,214.27L486.41,212.97L487.26,215.95L488.12,218.92L488.98,216.85L489.84,214.91L490.69,215.95L492.41,212.46L493.27,212.33L494.13,210.39L494.98,212.46L498.42,212.33L499.27,213.23L500.99,205.35L501.85,206.77L502.7,204.96L503.56,206.77L504.42,210.52L505.28,210.78L506.14,210.78L506.99,213.75L507.85,214.27L508.71,215.95L510.43,220.99L511.28,218.01L513,221.5L513.86,220.08L514.71,219.31L515.57,220.08L516.43,218.66L517.29,215.04L518.15,216.07L519,220.73L519.86,220.34L520.72,223.96L521.58,221.76L522.44,224.09L523.29,230.42L524.15,229.52L525.01,227.06L525.87,227.58L526.72,227.58L527.58,228.48L528.44,228.48L529.3,232.23L530.16,231.97L531.01,228.35L532.73,225.25L533.59,227.06L534.45,229.77L535.3,229L539.59,218.01L540.45,221.76L543.02,226.16L543.88,230.55L544.74,230.81L545.6,225.9L548.17,231.45L549.03,228.35L550.74,224.99L551.6,224.35L552.46,222.15L553.32,224.22L555.89,231.2L556.75,230.42L557.61,233.26L558.47,230.16L559.32,226.03L560.18,228.22L561.04,231.58L561.9,229.13L562.75,229.13L563.61,230.29L565.33,226.67L566.19,227.84L567.04,225.25L567.9,226.16L568.76,223.96L569.62,224.35L571.33,227.97L572.19,224.86L573.91,227.06L574.76,227.45L575.62,226.67L576.48,233.39L578.2,232.36L579.05,238.3L579.91,237.01L580.77,239.98L581.63,239.86L582.49,243.09L583.34,242.05L584.2,239.6L585.06,240.11L585.92,239.73L587.63,227.84L588.49,223.44L589.35,224.35L590.21,226.8L591.06,227.97L591.92,231.84L594.5,235.2L595.35,237.14L596.21,235.85L597.07,237.66L597.93,237.4L598.78,240.11L600.5,241.92L601.36,238.82L603.07,237.53L603.93,238.3L605.65,241.54L606.51,241.41L607.36,239.34L608.22,234.43L609.08,234.04L609.94,238.43L614.23,244.9L615.08,245.8L615.94,243.22L616.8,247.35L617.66,243.99L618.52,248L619.37,242.7L620.23,243.22L621.09,240.89L621.95,242.96L622.8,246.7L623.66,243.47L624.52,246.7L625.38,246.32L626.24,246.32L627.09,245.15L628.81,245.93L629.67,242.57L630.53,244.64L631.38,243.73L633.96,242.31L634.81,243.34L635.67,247.22L636.53,246.83L637.39,248.38L638.25,248.38L639.96,248L640.82,246.32L641.68,246.06L642.54,244.12L643.39,245.67L644.25,244.77L645.11,242.96L645.97,244.12L646.82,244.51L647.68,246.45L648.54,245.8L649.4,243.6L651.11,246.96L651.97,247.87L653.69,251.36L654.55,251.75L656.26,250.97L657.12,251.49L657.98,253.81L658.83,251.75L660.55,249.42L661.41,250.97L663.12,254.07L663.98,257.69L664.84,257.3L665.7,258.72L667.41,259.24L668.27,260.92L669.99,257.95L670.84,258.34L671.7,260.92L672.56,259.24L673.42,257.95L674.28,262.21L675.13,263.38L675.99,269.71L676.85,270.36L677.71,266.48L678.57,267L679.42,263.25L680.28,261.31L681.14,261.57L682.85,263.76L683.71,266.35L684.57,268.68L685.43,267.64L686.29,270.23L687.14,270.1L688,269.58L688.86,273.97L689.72,275.01L690.58,274.49L691.43,272.94L692.29,275.4L693.15,273.07L694.01,274.88L697.44,265.57L698.3,269.06L700.01,268.8L700.87,269.97L703.44,273.07L704.3,272.04L705.16,272.04L706.02,275.91L708.59,278.5L709.45,281.34L710.31,281.73L711.16,279.01L712.02,277.85L712.88,277.98L713.74,275.53L714.6,276.56L715.45,277.72L716.31,280.69L718.03,280.57L718.88,275.53L720.6,278.89L721.46,276.3L722.32,279.27L723.17,279.01L724.03,281.6L724.89,280.31L726.61,277.59L727.46,277.46L728.32,276.04L729.18,277.72L730.89,278.37L731.75,275.91L736.04,277.85L736.9,277.08L737.76,271.13L738.62,270.87L739.47,270.74L740.33,271.39L741.19,271.78L742.05,270.87L742.9,270.74L743.76,273.07L744.62,273.85L745.48,273.2L747.19,275.78L748.05,275.4L748.91,274.23L749.77,270.23L750.63,269.58L751.48,267.12L753.2,274.23L754.06,273.2L755.77,272.55L756.63,268.29L759.2,268.8L760.06,264.8L763.49,276.3L764.35,276.17L766.07,276.43L766.92,279.14L768.64,278.63L769.5,277.72L772.93,287.54L773.79,285.22L774.65,286.25L775.5,283.54L776.36,285.09L777.22,282.76L778.08,281.86L778.93,285.22L779.79,288.19L780.65,286.9L781.51,288.45L782.37,285.35L783.22,282.25L784.08,283.41L784.94,284.31L785.8,287.42L786.66,288.45L787.51,293.62L790.09,294.52L790.94,293.1L791.8,291.55L792.66,292.71L793.52,289.61L794.38,290.26L796.09,290.65L796.95,288.84L797.81,286.51L798.67,287.16L799.52,288.58L800.38,286.77L802.1,287.67L802.95,287.03L803.81,290.78L804.67,290.78L805.53,293.1L806.39,290.13L807.24,287.8L808.1,288.45L809.82,292.07L810.68,291.55L812.39,288.32L813.25,287.67L814.11,288.58L814.96,288.19L816.68,283.02L817.54,283.41L819.25,288.45L820.11,285.35L820.97,287.54L821.83,286.9L822.69,289.74L823.54,285.09L824.4,285.35L825.26,281.47L828.69,286.9L829.55,285.09L831.26,287.16L832.12,286.77L834.7,278.24L835.55,284.06L836.41,281.47L837.27,284.18L838.13,285.48L838.98,283.41L839.84,288.71L840.7,288.45L841.56,287.54L842.42,284.31L843.27,281.86L844.13,282.25L845.85,290.52L846.71,287.8L847.56,288.19L848.42,290.13L849.28,286.77L850.14,288.19L850.99,291.68L851.85,289.1L852.71,289.61L853.57,287.03L854.43,284.7L855.28,287.03L857,289.22" style="vector-effect: non-scaling-stroke; fill: none; stroke: rgb(25, 211, 243); stroke-opacity: 1; stroke-width: 2px; opacity: 1;"/></g><g class="points"/><g class="text"/></g><g class="trace scatter trace000c32" style="stroke-miterlimit: 2; opacity: 1;"><g class="fills"/><g class="errorbars"/><g class="lines"><path class="js-line" d="M0,178.47L3.43,165.8L4.29,166.06L5.15,168.26L6.01,168.39L7.72,172.39L8.58,172.52L9.44,169.68L10.29,169.68L11.15,172.91L12.01,169.94L14.58,179.5L15.44,181.96L16.3,178.08L17.16,181.05L18.02,179.89L18.87,183.25L19.73,184.02L20.59,180.28L22.3,179.63L23.16,181.44L24.88,185.19L25.74,183.76L26.59,181.18L27.45,181.18L28.31,180.53L29.17,176.66L30.03,174.72L30.88,177.82L31.74,180.53L32.6,177.17L33.46,178.34L34.31,177.17L35.17,174.46L36.03,175.88L36.89,178.34L37.75,174.98L38.6,178.47L39.46,177.04L40.32,179.24L41.18,177.56L42.04,180.4L42.89,176.27L44.61,176.79L45.47,178.6L46.32,176.92L47.18,178.85L48.04,179.63L48.9,178.6L49.76,183.76L50.61,182.21L52.33,178.98L53.19,181.83L54.05,181.18L54.9,186.09L55.76,192.29L56.62,191.26L57.48,186.48L58.33,187.51L60.91,181.7L61.77,181.7L62.62,179.5L63.48,184.02L64.34,185.32L65.2,184.8L68.63,191.65L69.49,186.48L72.92,188.29L73.78,187.25L74.63,187.77L75.49,187.13L76.35,185.7L77.21,187.13L78.92,173.94L79.78,180.02L83.21,185.83L84.07,185.57L85.79,176.79L86.64,175.24L89.22,181.96L90.08,178.85L90.93,178.98L91.79,175.62L92.65,176.53L93.51,173.04L94.36,178.21L95.22,176.27L96.08,173.81L96.94,174.07L97.8,176.14L98.65,171.23L101.23,161.66L102.09,163.09L102.94,166.58L103.8,165.67L105.52,171.36L106.37,178.47L107.23,179.37L108.09,177.17L108.95,177.56L109.81,175.62L110.66,175.24L111.52,180.02L113.24,179.37L114.1,181.18L114.95,178.72L115.81,180.66L116.67,180.15L117.53,181.96L120.1,176.27L120.96,176.53L121.82,174.72L122.67,177.56L123.53,177.17L124.39,173.81L125.25,179.37L126.11,179.63L128.68,183.38L129.54,185.06L132.11,192.81L132.97,186.74L135.54,184.15L136.4,186.09L137.26,190.74L138.12,189.32L138.97,191.39L139.83,190.23L140.69,188.03L141.55,188.81L144.12,175.88L144.98,178.98L145.84,181.83L146.69,178.98L147.55,176.14L148.41,179.24L149.27,180.4L150.13,179.37L150.98,178.98L151.84,180.79L152.7,180.92L153.56,179.24L155.27,177.95L156.13,179.37L157.85,173.81L158.7,176.79L159.56,175.24L160.42,175.62L161.28,175.62L162.14,173.68L162.99,176.53L163.85,173.3L165.57,173.94L166.42,173.17L167.28,174.2L168.14,171.23L169,169.81L169.86,170.71L170.71,170.32L171.57,170.84L172.43,171.62L173.29,169.16L175,170.19L175.86,174.59L176.72,174.59L177.58,173.43L179.29,177.56L180.15,176.79L181.01,174.98L181.87,176.79L183.58,173.94L184.44,176.01L185.3,171.36L186.16,172.65L187.01,169.29L187.87,170.58L188.73,167.35L189.59,168.13L191.3,163.6L192.16,166.96L193.02,172.78L193.88,171.1L194.73,172.39L195.59,170.84L196.45,166.45L197.31,169.55L198.17,169.16L199.02,161.66L200.74,163.09L201.6,161.79L202.45,158.43L203.31,158.95L204.17,159.47L205.03,161.66L205.89,158.95L206.74,159.21L207.6,155.59L208.46,156.62L209.32,160.24L210.18,159.47L211.03,158.82L211.89,163.35L212.75,167.87L213.61,164.64L214.46,163.6L215.32,166.96L216.18,166.19L217.04,164.38L217.9,166.58L218.75,166.06L220.47,169.81L221.33,171.49L223.04,168L223.9,170.71L224.76,169.16L225.62,170.07L228.19,162.44L229.05,162.44L229.91,162.7L230.76,162.05L231.62,161.92L232.48,164.51L233.34,165.15L234.2,163.6L235.91,170.84L236.77,172.39L237.63,176.4L238.48,174.98L239.34,176.79L240.2,175.88L241.06,175.49L241.92,178.34L242.77,177.82L243.63,183.38L244.49,181.31L245.35,181.44L246.21,182.47L247.06,179.89L247.92,177.82L248.78,179.11L249.64,184.15L250.49,183.12L251.35,185.19L252.21,181.7L253.07,180.02L253.93,181.18L254.78,181.83L255.64,181.18L256.5,175.88L257.36,176.92L258.22,175.36L259.07,176.27L261.65,186.74L262.5,188.29L264.22,189.71L265.08,184.54L265.94,181.83L266.79,181.7L267.65,182.21L268.51,178.6L269.37,179.5L270.23,175.75L271.94,180.66L272.8,179.37L274.51,180.66L275.37,178.72L276.23,179.89L277.09,178.85L277.95,177.56L278.8,181.57L279.66,177.17L280.52,180.53L281.38,178.6L282.24,182.86L283.09,184.15L283.95,181.44L285.67,177.95L286.52,175.88L287.38,172.13L288.24,172.52L289.1,172.78L289.96,171.1L290.81,170.07L291.67,174.07L292.53,177.82L293.39,177.69L294.25,177.82L295.1,179.89L295.96,178.98L296.82,184.41L297.68,185.7L298.53,184.67L299.39,184.93L300.25,182.73L301.11,178.34L301.97,180.4L302.82,179.76L303.68,183.51L305.4,181.44L306.26,179.24L307.97,183.76L308.83,180.02L309.69,177.43L310.54,180.92L312.26,179.37L313.12,180.53L314.83,185.83L315.69,185.06L317.41,177.69L318.27,177.17L319.12,176.66L319.98,172L322.55,173.04L323.41,171.49L324.27,171.49L325.13,168.77L326.84,170.97L327.7,171.36L328.56,171.87L329.42,169.81L330.28,167.87L331.13,172L331.99,169.94L332.85,170.07L334.56,165.8L335.42,165.54L336.28,166.96L337.14,165.54L338.85,161.02L339.71,160.24L341.43,163.99L342.29,163.22L343.14,163.22L344,159.34L344.86,159.73L345.72,157.27L346.57,156.62L347.43,157.14L349.15,149.39L350.01,150.55L351.72,149.39L352.58,151.45L353.44,150.68L354.3,145.77L355.15,146.03L356.01,148.87L356.87,150.94L357.73,148.74L358.58,151.07L359.44,147.71L361.16,150.03L362.02,149L362.87,147.19L363.73,147.84L364.59,147.71L365.45,149.13L367.16,144.73L368.02,145.12L368.88,143.31L369.74,144.48L371.45,141.89L372.31,139.82L374.03,149L374.88,150.94L375.74,147.97L376.6,150.29L377.46,150.68L378.32,149L379.17,146.16L380.03,148.35L381.75,159.73L382.6,160.11L383.46,152.23L384.32,154.82L385.18,152.49L386.04,153.91L387.75,156.75L388.61,155.72L389.47,154.04L390.33,155.07L391.18,152.49L392.04,157.01L393.76,152.62L394.61,149.77L395.47,149.77L396.33,146.8L397.19,145.77L398.05,146.16L399.76,151.2L400.62,150.81L401.48,153.14L402.34,153.26L403.19,148.74L404.05,149L407.48,158.43L408.34,158.43L409.2,159.08L410.06,158.56L410.91,162.57L411.77,158.95L413.49,165.93L414.35,161.66L415.2,160.37L416.06,155.72L416.92,154.69L417.78,157.01L418.63,155.33L419.49,157.4L422.07,165.54L422.92,163.86L424.64,168.13L425.5,165.54L426.36,169.68L427.21,166.45L428.93,165.15L429.79,165.03L431.5,160.89L432.36,162.31L433.22,158.05L434.08,157.66L435.79,159.73L436.65,158.05L437.51,157.66L438.37,158.43L440.08,162.83L440.94,166.45L441.8,161.79L442.65,169.55L444.37,166.32L445.23,165.93L446.09,163.47L446.94,167.35L447.8,172L448.66,170.97L449.52,175.11L450.38,173.55L451.23,171.62L452.09,174.2L452.95,174.72L453.81,176.79L455.52,178.98L456.38,176.4L457.24,177.95L458.1,175.36L458.95,172.39L459.81,176.14L461.53,170.19L462.39,176.92L463.24,178.6L464.1,178.21L465.82,183.51L466.67,186.87L468.39,180.15L469.25,179.37L470.96,178.98L471.82,177.56L474.4,178.85L475.25,176.66L476.97,174.72L477.83,172.91L478.68,173.3L479.54,169.81L482.12,163.6L482.97,163.22L484.69,156.62L485.55,155.59L486.41,151.2L487.26,152.23L488.12,152.62L488.98,151.71L489.84,155.98L490.69,153.14L492.41,153.52L493.27,153.01L494.13,152.36L494.98,153.52L495.84,149.39L496.7,152.49L497.56,152.75L498.42,150.94L500.13,160.76L500.99,156.88L502.7,152.36L503.56,152.1L504.42,153.14L505.28,150.55L506.99,152.62L507.85,153.14L510.43,161.02L511.28,159.08L512.14,157.14L513,157.79L513.86,155.07L514.71,157.4L516.43,165.8L517.29,171.23L518.15,170.71L519,171.49L520.72,165.67L521.58,165.67L522.44,162.18L523.29,162.31L524.15,164.38L525.01,162.7L525.87,161.54L526.72,164.25L527.58,170.45L528.44,168.13L530.16,168.26L531.01,167.35L534.45,174.33L535.3,169.42L536.16,168.13L537.02,169.94L537.88,168.26L538.73,168.39L539.59,169.68L540.45,166.96L541.31,166.96L542.17,166.06L543.02,166.32L543.88,167.87L544.74,168L545.6,169.55L546.46,170.07L547.31,165.54L548.17,165.67L549.03,162.57L549.89,162.83L550.74,166.32L551.6,164.51L552.46,159.86L553.32,161.15L554.18,160.63L555.03,161.15L555.89,158.43L556.75,154.94L557.61,157.79L558.47,157.92L559.32,154.69L561.04,151.71L561.9,154.17L562.75,155.33L563.61,161.15L564.47,158.43L565.33,158.69L567.9,151.97L568.76,153.65L570.48,155.07L571.33,154.56L573.05,152.1L573.91,153.14L574.76,154.94L575.62,153.39L576.48,153.91L577.34,150.55L579.91,145.38L580.77,144.61L581.63,147.45L582.49,142.93L583.34,143.18L584.2,141.5L585.06,140.21L585.92,142.15L586.77,143.05L587.63,146.41L589.35,142.28L590.21,142.8L591.92,149.52L592.78,149.52L595.35,144.48L596.21,145.9L597.07,143.83L597.93,144.48L599.64,150.16L600.5,149L602.22,147.06L603.07,147.45L604.79,148.35L605.65,146.54L607.36,144.09L608.22,145.51L609.94,141.89L610.79,140.73L611.65,144.99L612.51,142.8L614.23,144.22L615.08,141.5L615.94,144.22L616.8,142.02L618.52,139.95L619.37,136.46L620.23,136.72L621.09,140.6L621.95,140.34L622.8,142.15L626.24,147.06L627.09,143.7L627.95,143.05L628.81,140.34L631.38,142.41L632.24,135.82L633.1,130.65L633.96,134.65L634.81,138.66L635.67,136.72L636.53,137.24L637.39,135.43L638.25,136.08L639.1,135.17L640.82,132.59L641.68,129.23L642.54,127.67L643.39,129.35L645.11,130.39L645.97,130.13L646.82,129.74L647.68,130.52L648.54,131.68L649.4,130.91L650.26,131.16L651.11,133.36L652.83,127.55L653.69,127.67L655.4,132.46L656.26,137.88L657.98,143.83L658.83,141.37L660.55,145.25L661.41,146.03L662.27,142.67L663.12,144.99L664.84,149.9L665.7,150.03L667.41,146.54L668.27,141.12L669.13,141.24L669.99,145.51L670.84,142.28L671.7,144.99L673.42,140.86L674.28,144.09L675.99,135.3L676.85,138.53L677.71,135.17L678.57,136.98L679.42,137.24L680.28,136.46L681.14,137.5L682,134.4L682.85,138.27L683.71,137.24L684.57,137.5L685.43,141.89L686.29,142.15L687.14,141.12L688,146.03L688.86,145.64L689.72,147.06L690.58,145.25L693.15,132.33L694.01,130.13L696.58,128.71L697.44,130.78L698.3,127.67L699.15,129.87L700.01,128.45L700.87,132.2L701.73,132.84L702.59,136.2L704.3,134.01L705.16,136.85L706.87,132.33L707.73,124.06L708.59,121.6L709.45,122.38L711.16,125.87L712.02,124.96L713.74,121.6L714.6,124.06L715.45,126.38L716.31,126.51L718.03,115.4L718.88,116.3L719.74,115.53L720.6,112.94L722.32,116.3L723.17,115.14L724.03,114.1L724.89,116.04L725.75,115.78L726.61,114.62L728.32,113.59L729.18,114.1L730.04,114.1L730.89,111.39L734.33,122.89L735.18,122.63L736.04,119.92L736.9,121.08L737.76,124.06L738.62,122.63L739.47,119.53L740.33,121.47L742.9,126.38L743.76,121.99L744.62,122.76L745.48,121.08L746.34,124.44L747.19,124.44L748.05,133.36L748.91,133.23L750.63,125.22L751.48,130.26L754.06,123.8L754.91,125.74L756.63,130.13L757.49,130.65L758.35,131.68L759.2,131.16L760.06,135.56L760.92,135.95L762.64,142.15L763.49,140.21L764.35,133.62L765.21,135.82L766.07,134.27L766.92,136.72L768.64,142.67L769.5,143.05L771.21,139.56L772.07,143.18L772.93,144.09L773.79,141.24L775.5,144.35L776.36,143.83L778.93,136.98L779.79,137.37L780.65,136.08L781.51,137.5L782.37,133.23L783.22,138.14L784.94,135.56L785.8,137.63L786.66,139.95L787.51,139.44L788.37,140.6L789.23,147.06L790.09,145.51L790.94,142.41L793.52,143.18L794.38,139.44L795.23,138.4L796.09,141.63L796.95,142.8L797.81,141.89L799.52,144.86L800.38,143.83L802.1,135.3L802.95,138.92L803.81,140.21L804.67,139.31L805.53,141.24L806.39,139.44L807.24,135.95L808.1,140.86L808.96,142.28L809.82,145.9L811.53,146.93L812.39,146.16L813.25,147.84L814.11,142.15L814.96,141.76L815.82,138.27L816.68,138.01L817.54,142.54L818.4,142.02L819.25,142.8L820.11,143.31L820.97,139.95L822.69,136.33L823.54,138.01L824.4,134.4L825.26,137.11L828.69,142.8L829.55,142.28L830.41,137.88L831.26,138.79L832.12,144.61L832.98,143.83L833.84,143.18L834.7,138.53L836.41,133.49L837.27,136.33L838.98,140.86L839.84,137.11L840.7,137.63L841.56,140.99L842.42,139.95L843.27,145.9L844.13,144.73L844.99,140.21L846.71,136.85L847.56,136.72L848.42,138.14L849.28,135.17L850.14,134.91L850.99,139.56L851.85,139.69L852.71,138.01L853.57,136.72L854.43,137.76L855.28,135.56L856.14,136.2L857,138.01" style="vector-effect: non-scaling-stroke; fill: none; stroke: rgb(255, 102, 146); stroke-opacity: 1; stroke-width: 2px; opacity: 1;"/></g><g class="points"/><g class="text"/></g><g class="trace scatter trace47c1f7" style="stroke-miterlimit: 2; opacity: 1;"><g class="fills"/><g class="errorbars"/><g class="lines"><path class="js-line" d="M0,185.57L1.72,182.6L2.57,184.02L3.43,183.76L4.29,178.72L5.15,173.55L6.01,176.14L6.86,179.76L7.72,177.43L9.44,176.4L10.29,172L11.15,175.36L12.01,173.17L12.87,172L13.73,173.94L14.58,174.07L15.44,177.17L16.3,180.02L17.16,176.27L18.87,181.83L19.73,188.81L20.59,188.55L21.45,186.35L23.16,190.1L24.02,190.49L25.74,193.85L26.59,193.59L27.45,191.13L28.31,191.52L29.17,190.23L30.03,190.87L30.88,189.06L31.74,198.37L33.46,185.96L34.31,186.61L36.03,184.67L36.89,185.83L37.75,191.26L38.6,190.87L39.46,187.25L40.32,189.58L41.18,189.06L42.04,192.94L43.75,186.48L44.61,186.61L45.47,184.8L46.32,186.74L48.04,191.13L48.9,192.29L49.76,193.2L50.61,187.38L51.47,187.25L52.33,190.23L53.19,188.29L54.05,190.23L55.76,188.81L56.62,189.19L57.48,188.55L58.33,186.87L59.19,189.32L60.05,187.13L60.91,184.41L61.77,187.38L62.62,181.44L63.48,183.25L64.34,181.96L65.2,178.6L66.06,182.86L66.91,180.79L67.77,182.99L68.63,180.79L69.49,181.7L70.34,178.85L72.06,176.01L72.92,171.87L73.78,171.49L74.63,169.03L75.49,168.51L76.35,171.36L77.21,170.45L78.07,171.49L78.92,170.58L79.78,172L80.64,170.19L81.5,172.52L83.21,174.72L84.07,174.59L84.93,171.23L85.79,173.55L87.5,181.05L88.36,180.66L90.93,185.45L91.79,189.84L92.65,190.1L93.51,191.78L96.08,198.11L96.94,192.04L97.8,192.17L98.65,190.74L100.37,188.42L101.23,189.06L102.09,188.29L102.94,190.87L104.66,186.22L105.52,187.38L106.37,183.38L107.23,185.32L108.09,183.76L108.95,180.28L109.81,183.76L110.66,182.08L112.38,177.82L113.24,178.47L114.1,175.75L114.95,175.62L116.67,168.39L117.53,174.98L118.38,178.72L119.24,177.17L120.96,173.55L121.82,174.2L122.67,173.55L123.53,178.6L124.39,177.04L125.25,178.21L126.11,178.34L126.96,184.67L127.82,181.83L128.68,185.83L129.54,189.06L130.39,189.06L133.83,197.21L134.68,194.75L135.54,194.36L136.4,196.82L138.12,189.58L138.97,186.22L139.83,179.63L140.69,187.51L141.55,188.29L142.4,187.51L144.12,191.52L144.98,189.45L146.69,190.49L147.55,194.62L148.41,193.33L149.27,190.49L150.98,188.16L151.84,184.28L152.7,186.87L153.56,192.42L154.41,188.68L155.27,190.23L156.13,184.54L156.99,189.71L158.7,185.06L159.56,185.7L160.42,188.55L161.28,185.96L162.14,189.97L162.99,186.35L164.71,182.21L165.57,179.24L167.28,185.57L168.14,181.7L169,182.34L169.86,185.32L171.57,180.92L172.43,181.7L173.29,185.19L174.15,184.93L175,182.99L175.86,185.32L176.72,183.38L177.58,185.83L179.29,185.06L180.15,187.77L182.72,186.48L183.58,181.7L184.44,182.73L185.3,178.98L186.16,173.81L187.01,174.07L188.73,177.69L189.59,171.36L190.44,172.13L191.3,170.97L193.02,165.54L193.88,164.77L194.73,164.12L195.59,168.51L196.45,165.41L197.31,170.19L199.02,161.54L199.88,161.02L200.74,160.11L201.6,157.4L202.45,157.53L203.31,160.76L204.17,160.63L205.03,155.72L206.74,163.35L207.6,162.57L208.46,158.18L209.32,164.51L210.18,162.31L211.03,164.25L211.89,165.41L212.75,163.47L214.46,171.49L215.32,169.03L218.75,160.89L219.61,166.06L220.47,160.24L221.33,165.54L222.19,164.51L223.04,158.82L223.9,158.82L224.76,156.24L225.62,158.18L226.47,155.07L228.19,162.44L229.05,162.7L229.91,162.7L230.76,160.24L234.2,174.46L235.05,173.17L236.77,176.4L237.63,173.94L238.48,172.26L239.34,175.62L240.2,177.17L241.06,174.59L242.77,166.96L243.63,168L244.49,168.9L245.35,168.26L247.06,175.11L247.92,172L248.78,169.42L249.64,174.72L250.49,174.98L251.35,170.71L252.21,165.67L253.07,168L253.93,168.26L254.78,163.86L255.64,165.15L256.5,162.7L258.22,165.93L259.07,166.83L259.93,170.97L260.79,169.81L261.65,173.55L262.5,173.55L263.36,172.39L264.22,174.33L266.79,166.32L267.65,166.06L268.51,158.95L269.37,159.34L271.08,161.15L271.94,161.41L272.8,162.83L273.66,172.52L274.51,170.19L275.37,171.49L276.23,171.75L277.09,168.77L277.95,169.16L278.8,164.51L279.66,164.51L280.52,165.54L281.38,162.44L282.24,162.7L283.09,165.03L283.95,163.35L284.81,169.29L285.67,168.64L286.52,170.07L287.38,169.81L288.24,170.19L289.1,169.03L289.96,170.97L290.81,169.42L291.67,166.96L292.53,169.68L293.39,167.35L294.25,172L295.96,167.09L296.82,166.83L297.68,166.71L298.53,170.58L299.39,171.36L300.25,169.94L301.11,170.19L301.97,173.68L302.82,170.32L303.68,170.32L304.54,169.16L305.4,169.55L306.26,170.84L307.11,169.42L307.97,170.71L308.83,176.14L309.69,175.88L310.54,174.72L311.4,175.11L312.26,171.23L313.12,175.62L313.98,173.94L315.69,179.5L316.55,177.82L317.41,176.66L318.27,177.3L319.12,178.6L319.98,181.31L322.55,187.13L323.41,185.32L324.27,187.25L325.13,186.87L326.84,190.61L327.7,187.64L328.56,190.36L329.42,190.36L331.13,196.82L331.99,200.05L332.85,204.18L333.71,204.44L334.56,199.66L335.42,199.66L336.28,198.76L337.14,195.91L338.85,198.11L339.71,196.82L342.29,193.2L343.14,190.1L344.86,201.47L345.72,198.63L346.57,198.37L347.43,196.82L348.29,197.98L349.15,192.81L350.01,189.19L350.86,190.87L352.58,194.49L353.44,194.49L354.3,194.49L355.15,196.43L356.01,192.81L356.87,194.49L357.73,193.46L358.58,194.1L359.44,199.4L360.3,199.92L361.16,199.66L362.02,195.4L362.87,192.81L363.73,187.38L364.59,185.45L365.45,186.35L368.02,180.28L368.88,180.15L369.74,182.73L370.59,181.96L371.45,182.08L372.31,185.32L374.88,191.26L375.74,190.74L377.46,197.85L378.32,196.3L380.03,192.68L380.89,194.1L383.46,201.86L384.32,198.37L385.18,196.04L386.04,200.44L386.89,200.82L387.75,200.31L389.47,193.72L390.33,192.04L391.18,191.13L392.04,192.94L392.9,190.23L393.76,192.42L395.47,196.95L396.33,198.11L397.19,198.89L398.05,196.17L398.9,195.53L399.76,193.46L402.34,184.93L403.19,190.36L404.91,196.04L405.77,194.49L406.62,197.21L407.48,197.08L408.34,202.38L409.2,197.72L410.91,195.4L411.77,190.87L412.63,189.45L413.49,190.49L414.35,192.81L415.2,191.52L416.06,192.68L416.92,186.48L417.78,193.97L418.63,191.52L420.35,195.53L421.21,194.88L422.07,191.52L422.92,184.28L423.78,184.67L424.64,187.38L425.5,184.93L426.36,190.49L427.21,193.2L428.07,191L428.93,194.88L429.79,193.46L430.64,194.62L431.5,192.29L432.36,186.74L433.22,190.87L434.08,192.55L434.93,191.13L435.79,193.46L436.65,197.98L437.51,201.08L438.37,201.21L439.22,202.5L440.08,207.03L440.94,206.38L441.8,207.29L442.65,206.25L443.51,210L444.37,212.33L445.23,211.16L446.09,209.87L446.94,211.94L447.8,210.26L448.66,212.84L449.52,214.39L450.38,211.68L452.09,208.06L452.95,206.9L453.81,205.74L454.66,202.63L456.38,197.46L457.24,195.01L458.95,196.82L459.81,192.17L461.53,201.34L462.39,200.44L463.24,202.25L464.1,199.92L464.96,200.05L465.82,198.5L467.53,188.16L468.39,191.65L469.25,190.61L470.11,194.49L470.96,197.08L471.82,196.56L472.68,191.91L473.54,198.37L475.25,204.18L476.11,205.22L477.83,201.6L478.68,207.67L479.54,209.48L480.4,209.48L481.26,209.35L482.12,204.7L483.83,207.42L484.69,204.7L485.55,201.86L486.41,203.8L487.26,202.25L488.12,202.63L488.98,203.8L489.84,203.15L490.69,204.57L491.55,204.18L494.13,195.4L494.98,198.76L495.84,197.46L496.7,199.66L498.42,190.1L499.27,188.03L500.99,190.74L501.85,191.13L502.7,191.26L503.56,188.16L505.28,185.57L506.14,184.67L508.71,195.4L509.57,195.53L510.43,195.01L511.28,199.66L512.14,199.14L513,204.57L513.86,204.7L514.71,199.92L516.43,195.91L517.29,195.91L518.15,195.91L519,194.62L519.86,193.2L520.72,194.88L522.44,196.82L523.29,194.62L524.15,194.88L525.01,199.4L525.87,201.99L526.72,200.82L529.3,209.1L530.16,210.52L531.87,215.17L532.73,213.1L534.45,214.78L535.3,213.62L536.16,214.78L537.02,208.19L538.73,202.76L539.59,204.06L540.45,201.86L541.31,204.31L543.88,208.84L544.74,213.23L546.46,219.44L547.31,216.33L549.03,216.46L549.89,218.53L551.6,214.52L552.46,218.79L553.32,214.65L554.18,215.3L555.03,214.52L555.89,212.2L558.47,214.91L559.32,216.33L560.18,215.69L561.04,212.71L562.75,206.51L563.61,209.61L564.47,206.25L565.33,212.71L567.9,207.8L568.76,211.42L569.62,213.75L570.48,213.49L571.33,212.33L572.19,214.78L573.05,213.75L573.91,217.37L574.76,219.44L575.62,216.07L576.48,213.36L577.34,213.75L578.2,213.23L579.05,211.81L581.63,202.89L582.49,209.23L583.34,210.39L584.2,205.99L585.06,207.8L585.92,206.51L586.77,203.93L587.63,204.06L588.49,204.96L589.35,204.18L591.06,212.97L591.92,205.35L592.78,203.15L593.64,206.77L595.35,208.32L596.21,206.51L597.93,214.27L598.78,213.36L599.64,215.43L600.5,213.23L601.36,211.29L602.22,216.59L604.79,223.05L605.65,221.76L607.36,218.92L608.22,219.44L609.08,216.2L609.94,217.11L610.79,215.95L611.65,218.01L612.51,220.21L613.37,219.56L614.23,215.82L615.08,219.95L616.8,215.82L617.66,218.66L618.52,216.33L619.37,219.18L621.95,211.16L622.8,206.38L623.66,203.15L624.52,202.89L625.38,205.09L626.24,210.13L627.95,213.23L628.81,212.2L629.67,211.16L630.53,215.56L631.38,218.01L632.24,216.2L633.96,210.26L634.81,208.97L636.53,207.42L637.39,206.77L638.25,212.33L639.1,211.29L639.96,216.2L640.82,214.52L641.68,214.78L642.54,218.53L643.39,219.31L644.25,217.76L645.11,219.31L645.97,218.14L648.54,219.82L649.4,213.62L650.26,215.04L651.11,221.12L653.69,218.4L654.55,223.05L655.4,220.86L656.26,224.86L658.83,230.94L659.69,229.39L663.12,223.83L663.98,225.25L664.84,223.7L665.7,225.25L666.56,223.96L667.41,226.28L669.13,230.81L669.99,228.74L670.84,230.81L671.7,226.93L672.56,228.74L673.42,228.22L674.28,227.32L675.13,228.09L675.99,227.45L676.85,225.12L678.57,219.95L679.42,222.54L680.28,219.05L681.14,219.31L682.85,224.22L683.71,222.67L684.57,219.05L685.43,219.31L686.29,219.44L687.14,217.5L688,213.62L688.86,213.49L689.72,216.07L690.58,214.78L691.43,212.84L692.29,217.5L693.15,216.46L694.01,217.76L694.86,217.37L695.72,219.18L696.58,217.76L697.44,214.78L698.3,215.04L699.15,216.85L700.01,221.24L700.87,218.53L701.73,215.69L702.59,221.5L703.44,222.15L704.3,218.79L705.16,216.46L706.02,220.08L707.73,223.05L708.59,218.53L709.45,218.66L710.31,221.63L711.16,222.02L712.02,219.82L713.74,226.93L714.6,223.7L715.45,226.67L716.31,224.48L717.17,221.76L718.03,224.99L718.88,226.28L719.74,225.51L720.6,227.06L721.46,224.86L722.32,224.35L723.17,227.84L724.03,230.94L724.89,230.29L727.46,236.11L728.32,234.69L729.18,234.81L730.04,231.45L730.89,231.71L731.75,228.09L732.61,226.67L733.47,228.22L734.33,228.74L735.18,224.09L736.04,218.92L736.9,220.21L737.76,220.08L738.62,223.44L740.33,230.16L741.19,226.16L742.05,226.8L742.9,226.28L743.76,228.35L744.62,226.93L745.48,221.12L746.34,223.44L747.19,221.76L748.05,222.15L749.77,219.44L750.63,219.31L752.34,216.33L753.2,218.27L754.06,218.01L754.91,213.36L756.63,204.96L757.49,207.55L759.2,203.41L760.06,207.29L760.92,204.57L761.78,205.22L762.64,200.31L763.49,201.34L765.21,204.18L766.07,200.05L766.92,200.05L767.78,196.95L769.5,189.84L770.36,187.13L772.93,181.7L773.79,182.73L776.36,176.79L777.22,173.43L778.08,174.59L778.93,170.71L781.51,168L782.37,164.38L783.22,164.51L784.08,162.57L784.94,162.7L785.8,167.74L786.66,165.28L787.51,169.55L788.37,166.71L789.23,167.22L790.09,163.99L790.94,164.51L794.38,173.3L795.23,172.39L797.81,182.73L798.67,182.34L799.52,184.02L800.38,175.11L801.24,174.98L802.1,176.01L804.67,173.43L805.53,174.33L807.24,179.76L808.1,180.92L808.96,185.32L809.82,185.57L812.39,181.96L813.25,181.96L814.11,179.5L814.96,174.2L815.82,172.26L816.68,174.85L817.54,176.53L818.4,176.14L820.11,173.04L820.97,174.85L821.83,173.68L822.69,170.45L824.4,176.01L825.26,177.82L826.12,183.76L826.97,181.83L829.55,185.7L830.41,188.55L831.26,185.57L832.12,188.55L832.98,189.32L833.84,188.55L834.7,185.45L835.55,185.32L836.41,185.06L837.27,182.73L838.13,178.6L838.98,181.18L840.7,178.08L841.56,176.53L842.42,175.49L843.27,180.15L844.99,184.28L845.85,183.64L846.71,181.83L847.56,183.76L848.42,185.7L849.28,184.67L850.14,181.96L850.99,183.51L852.71,176.79L853.57,172.91L855.28,167.74L856.14,170.19L857,168.9" style="vector-effect: non-scaling-stroke; fill: none; stroke: rgb(182, 232, 128); stroke-opacity: 1; stroke-width: 2px; opacity: 1;"/></g><g class="points"/><g class="text"/></g></g></g><g class="overplot"/><path class="xlines-above crisp" d="M0,0" style="fill: none;"/><path class="ylines-above crisp" d="M0,0" style="fill: none;"/><g class="overlines-above"/><g class="xaxislayer-above"><g class="xtick"><text text-anchor="middle" x="0" y="472" transform="translate(55,0)" style="font-family: 'Open Sans', verdana, arial, sans-serif; font-size: 12px; fill: rgb(0, 255, 255); fill-opacity: 1; white-space: pre; opacity: 1;">0</text></g><g class="xtick"><text text-anchor="middle" x="0" y="472" style="font-family: 'Open Sans', verdana, arial, sans-serif; font-size: 12px; fill: rgb(0, 255, 255); fill-opacity: 1; white-space: pre; opacity: 1;" transform="translate(140.79000000000002,0)">100</text></g><g class="xtick"><text text-anchor="middle" x="0" y="472" style="font-family: 'Open Sans', verdana, arial, sans-serif; font-size: 12px; fill: rgb(0, 255, 255); fill-opacity: 1; white-space: pre; opacity: 1;" transform="translate(226.57,0)">200</text></g><g class="xtick"><text text-anchor="middle" x="0" y="472" style="font-family: 'Open Sans', verdana, arial, sans-serif; font-size: 12px; fill: rgb(0, 255, 255); fill-opacity: 1; white-space: pre; opacity: 1;" transform="translate(312.36,0)">300</text></g><g class="xtick"><text text-anchor="middle" x="0" y="472" style="font-family: 'Open Sans', verdana, arial, sans-serif; font-size: 12px; fill: rgb(0, 255, 255); fill-opacity: 1; white-space: pre; opacity: 1;" transform="translate(398.14,0)">400</text></g><g class="xtick"><text text-anchor="middle" x="0" y="472" style="font-family: 'Open Sans', verdana, arial, sans-serif; font-size: 12px; fill: rgb(0, 255, 255); fill-opacity: 1; white-space: pre; opacity: 1;" transform="translate(483.93,0)">500</text></g><g class="xtick"><text text-anchor="middle" x="0" y="472" style="font-family: 'Open Sans', verdana, arial, sans-serif; font-size: 12px; fill: rgb(0, 255, 255); fill-opacity: 1; white-space: pre; opacity: 1;" transform="translate(569.71,0)">600</text></g><g class="xtick"><text text-anchor="middle" x="0" y="472" style="font-family: 'Open Sans', verdana, arial, sans-serif; font-size: 12px; fill: rgb(0, 255, 255); fill-opacity: 1; white-space: pre; opacity: 1;" transform="translate(655.5,0)">700</text></g><g class="xtick"><text text-anchor="middle" x="0" y="472" style="font-family: 'Open Sans', verdana, arial, sans-serif; font-size: 12px; fill: rgb(0, 255, 255); fill-opacity: 1; white-space: pre; opacity: 1;" transform="translate(741.29,0)">800</text></g><g class="xtick"><text text-anchor="middle" x="0" y="472" style="font-family: 'Open Sans', verdana, arial, sans-serif; font-size: 12px; fill: rgb(0, 255, 255); fill-opacity: 1; white-space: pre; opacity: 1;" transform="translate(827.07,0)">900</text></g></g><g class="yaxislayer-above"><g class="ytick"><text text-anchor="end" x="54" y="4.199999999999999" transform="translate(0,441.05)" style="font-family: 'Open Sans', verdana, arial, sans-serif; font-size: 12px; fill: rgb(0, 255, 255); fill-opacity: 1; white-space: pre; opacity: 1;">1</text></g><g class="ytick"><text text-anchor="end" x="54" y="4.199999999999999" style="font-family: 'Open Sans', verdana, arial, sans-serif; font-size: 12px; fill: rgb(0, 255, 255); fill-opacity: 1; white-space: pre; opacity: 1;" transform="translate(0,360.27)">0.5</text></g><g class="ytick"><text text-anchor="end" x="54" y="4.199999999999999" style="font-family: 'Open Sans', verdana, arial, sans-serif; font-size: 12px; fill: rgb(0, 255, 255); fill-opacity: 1; white-space: pre; opacity: 1;" transform="translate(0,279.5)">0</text></g><g class="ytick"><text text-anchor="end" x="54" y="4.199999999999999" style="font-family: 'Open Sans', verdana, arial, sans-serif; font-size: 12px; fill: rgb(0, 255, 255); fill-opacity: 1; white-space: pre; opacity: 1;" transform="translate(0,198.73000000000002)">0.5</text></g><g class="ytick"><text text-anchor="end" x="54" y="4.199999999999999" style="font-family: 'Open Sans', verdana, arial, sans-serif; font-size: 12px; fill: rgb(0, 255, 255); fill-opacity: 1; white-space: pre; opacity: 1;" transform="translate(0,117.95)">1</text></g></g><g class="overaxes-above"/></g></g><g class="polarlayer"/><g class="smithlayer"/><g class="ternarylayer"/><g class="geolayer"/><g class="funnelarealayer"/><g class="pielayer"/><g class="iciclelayer"/><g class="treemaplayer"/><g class="sunburstlayer"/><g class="glimages"/><defs id="topdefs-c45afd"><g class="clips"/><clipPath id="legendc45afd"><rect width="773" height="29" x="0" y="0"/></clipPath></defs><g class="layer-above"><g class="imagelayer"/><g class="shapelayer"/></g><g class="infolayer"><g class="legend" pointer-events="all" transform="translate(97,64.09999999999997)"><rect class="bg" shape-rendering="crispEdges" style="stroke: rgb(68, 68, 68); stroke-opacity: 1; fill: rgb(255, 255, 255); fill-opacity: 0; stroke-width: 0px;" width="773" height="29" x="0" y="0"/><g class="scrollbox" transform="" clip-path="url(#legendc45afd)"><g class="groups"><g class="traces" transform="translate(0,14.5)" style="opacity: 1;"><text class="legendtext" text-anchor="start" x="40" y="4.680000000000001" style="font-family: 'Open Sans', verdana, arial, sans-serif; font-size: 12px; fill: rgb(0, 255, 255); fill-opacity: 1; white-space: pre;">T*=1.0</text><g class="layers" style="opacity: 1;"><g class="legendfill"/><g class="legendlines"><path class="js-line" d="M5,0h30" style="fill: none; stroke: rgb(99, 110, 250); stroke-opacity: 1; stroke-width: 2px;"/></g><g class="legendsymbols"><g class="legendpoints"/></g></g><rect class="legendtoggle" x="0" y="-9.5" width="88.34375" height="19" style="fill: rgb(0, 0, 0); fill-opacity: 0;"/></g><g class="traces" transform="translate(90.84375,14.5)" style="opacity: 1;"><text class="legendtext" text-anchor="start" x="40" y="4.680000000000001" style="font-family: 'Open Sans', verdana, arial, sans-serif; font-size: 12px; fill: rgb(0, 255, 255); fill-opacity: 1; white-space: pre;">T*=1.25</text><g class="layers" style="opacity: 1;"><g class="legendfill"/><g class="legendlines"><path class="js-line" d="M5,0h30" style="fill: none; stroke: rgb(239, 85, 59); stroke-opacity: 1; stroke-width: 2px;"/></g><g class="legendsymbols"><g class="legendpoints"/></g></g><rect class="legendtoggle" x="0" y="-9.5" width="95.96875" height="19" style="fill: rgb(0, 0, 0); fill-opacity: 0;"/></g><g class="traces" transform="translate(189.3125,14.5)" style="opacity: 1;"><text class="legendtext" text-anchor="start" x="40" y="4.680000000000001" style="font-family: 'Open Sans', verdana, arial, sans-serif; font-size: 12px; fill: rgb(0, 255, 255); fill-opacity: 1; white-space: pre;">T*=1.5</text><g class="layers" style="opacity: 1;"><g class="legendfill"/><g class="legendlines"><path class="js-line" d="M5,0h30" style="fill: none; stroke: rgb(0, 204, 150); stroke-opacity: 1; stroke-width: 2px;"/></g><g class="legendsymbols"><g class="legendpoints"/></g></g><rect class="legendtoggle" x="0" y="-9.5" width="88.34375" height="19" style="fill: rgb(0, 0, 0); fill-opacity: 0;"/></g><g class="traces" transform="translate(280.15625,14.5)" style="opacity: 1;"><text class="legendtext" text-anchor="start" x="40" y="4.680000000000001" style="font-family: 'Open Sans', verdana, arial, sans-serif; font-size: 12px; fill: rgb(0, 255, 255); fill-opacity: 1; white-space: pre;">T*=1.75</text><g class="layers" style="opacity: 1;"><g class="legendfill"/><g class="legendlines"><path class="js-line" d="M5,0h30" style="fill: none; stroke: rgb(171, 99, 250); stroke-opacity: 1; stroke-width: 2px;"/></g><g class="legendsymbols"><g class="legendpoints"/></g></g><rect class="legendtoggle" x="0" y="-9.5" width="95.96875" height="19" style="fill: rgb(0, 0, 0); fill-opacity: 0;"/></g><g class="traces" transform="translate(378.625,14.5)" style="opacity: 1;"><text class="legendtext" text-anchor="start" x="40" y="4.680000000000001" style="font-family: 'Open Sans', verdana, arial, sans-serif; font-size: 12px; fill: rgb(0, 255, 255); fill-opacity: 1; white-space: pre;">T*=2.0</text><g class="layers" style="opacity: 1;"><g class="legendfill"/><g class="legendlines"><path class="js-line" d="M5,0h30" style="fill: none; stroke: rgb(255, 161, 90); stroke-opacity: 1; stroke-width: 2px;"/></g><g class="legendsymbols"><g class="legendpoints"/></g></g><rect class="legendtoggle" x="0" y="-9.5" width="88.34375" height="19" style="fill: rgb(0, 0, 0); fill-opacity: 0;"/></g><g class="traces" transform="translate(469.46875,14.5)" style="opacity: 1;"><text class="legendtext" text-anchor="start" x="40" y="4.680000000000001" style="font-family: 'Open Sans', verdana, arial, sans-serif; font-size: 12px; fill: rgb(0, 255, 255); fill-opacity: 1; white-space: pre;">T*=2.262</text><g class="layers" style="opacity: 1;"><g class="legendfill"/><g class="legendlines"><path class="js-line" d="M5,0h30" style="fill: none; stroke: rgb(25, 211, 243); stroke-opacity: 1; stroke-width: 2px;"/></g><g class="legendsymbols"><g class="legendpoints"/></g></g><rect class="legendtoggle" x="0" y="-9.5" width="103.609375" height="19" style="fill: rgb(0, 0, 0); fill-opacity: 0;"/></g><g class="traces" transform="translate(575.578125,14.5)" style="opacity: 1;"><text class="legendtext" text-anchor="start" x="40" y="4.680000000000001" style="font-family: 'Open Sans', verdana, arial, sans-serif; font-size: 12px; fill: rgb(0, 255, 255); fill-opacity: 1; white-space: pre;">T*=2.381</text><g class="layers" style="opacity: 1;"><g class="legendfill"/><g class="legendlines"><path class="js-line" d="M5,0h30" style="fill: none; stroke: rgb(255, 102, 146); stroke-opacity: 1; stroke-width: 2px;"/></g><g class="legendsymbols"><g class="legendpoints"/></g></g><rect class="legendtoggle" x="0" y="-9.5" width="103.234375" height="19" style="fill: rgb(0, 0, 0); fill-opacity: 0;"/></g><g class="traces" transform="translate(681.3125,14.5)" style="opacity: 1;"><text class="legendtext" text-anchor="start" x="40" y="4.680000000000001" style="font-family: 'Open Sans', verdana, arial, sans-serif; font-size: 12px; fill: rgb(0, 255, 255); fill-opacity: 1; white-space: pre;">T*=2.5</text><g class="layers" style="opacity: 1;"><g class="legendfill"/><g class="legendlines"><path class="js-line" d="M5,0h30" style="fill: none; stroke: rgb(182, 232, 128); stroke-opacity: 1; stroke-width: 2px;"/></g><g class="legendsymbols"><g class="legendpoints"/></g></g><rect class="legendtoggle" x="0" y="-9.5" width="88.34375" height="19" style="fill: rgb(0, 0, 0); fill-opacity: 0;"/></g></g></g><rect class="scrollbar" rx="20" ry="3" width="0" height="0" style="fill: rgb(128, 139, 164); fill-opacity: 1;" x="0" y="0"/></g><g class="g-gtitle"><text class="gtitle" x="456" y="50" text-anchor="middle" dy="0.7em" style="font-family: 'Open Sans', verdana, arial, sans-serif; font-size: 17px; fill: rgb(0, 255, 255); opacity: 1; font-weight: normal; white-space: pre;">magnetization in a system of 50x50 spins for various temperatures</text></g><g class="g-xtitle" transform="translate(0,-2.8000000000000114)"><text class="xtitle" x="483.5" y="499.8" text-anchor="middle" style="font-family: 'Open Sans', verdana, arial, sans-serif; font-size: 14px; fill: rgb(0, 255, 255); opacity: 1; font-weight: normal; white-space: pre;">time t [MCS]</text></g><g class="g-ytitle" transform="translate(14.2529296875,0)"><text class="ytitle" transform="rotate(-90,-0.25312499999999716,279.5)" x="-0.25312499999999716" y="279.5" text-anchor="middle" style="font-family: 'Open Sans', verdana, arial, sans-serif; font-size: 14px; fill: rgb(0, 255, 255); opacity: 1; font-weight: normal; white-space: pre;">magnetization m [-]</text></g></g></svg>