<svg class="main-svg" xmlns="http://www.w3.org/2000/svg" xmlns:xlink="http://www.w3.org/1999/xlink" width="912" height="500" style="" viewBox="0 0 912 500"><rect x="0" y="0" width="912" height="500" style="fill: rgb(255, 255, 255); fill-opacity: 0;"/><defs id="defs-2a1208"><g class="clips"><clipPath id="clip2a1208xyplot" class="plotclip"><rect width="857" height="359"/></clipPath><clipPath class="axesclip" id="clip2a1208x"><rect x="55" y="0" width="857" height="500"/></clipPath><clipPath class="axesclip" id="clip2a1208y"><rect x="0" y="100" width="912" height="359"/></clipPath><clipPath class="axesclip" id="clip2a1208xy"><rect x="55" y="100" width="857" height="359"/></clipPath></g><g class="gradients"/><g class="patterns"/></defs><g class="bglayer"><rect class="bg" x="55" y="100" width="857" height="359" style="fill: rgb(0, 0, 0); fill-opacity: 0; stroke-width: 0;"/></g><g class="layer-below"><g class="imagelayer"/><g class="shapelayer"/></g><g class="cartesianlayer"><g class="subplot xy"><g class="layer-subplot"><g class="shapelayer"/><g class="imagelayer"/></g><g class="gridlayer"><g class="x"><path class="xgrid crisp" transform="translate(140.79000000000002,0)" d="M0,100v359" style="stroke: rgb(128, 128, 128); stroke-opacity: 1; stroke-width: 1px;"/><path class="xgrid crisp" transform="translate(226.57,0)" d="M0,100v359" style="stroke: rgb(128, 128, 128); stroke-opacity: 1; stroke-width: 1px;"/><path class="xgrid crisp" transform="translate(312.36,0)" d="M0,100v359" style="stroke: rgb(128, 128, 128); stroke-opacity: 1; stroke-width: 1px;"/><path class="xgrid crisp" transform="translate(398.14,0)" d="M0,100v359" style="stroke: rgb(128, 128, 128); stroke-opacity: 1; stroke-width: 1px;"/><path class="xgrid crisp" transform="translate(483.93,0)" d="M0,100v359" style="stroke: rgb(128, 128, 128); stroke-opacity: 1; stroke-width: 1px;"/><path class="xgrid crisp" transform="translate(569.71,0)" d="M0,100v359" style="stroke: rgb(128, 128, 128); stroke-opacity: 1; stroke-width: 1px;"/><path class="xgrid crisp" transform="translate(655.5,0)" d="M0,100v359" style="stroke: rgb(128, 128, 128); stroke-opacity: 1; stroke-width: 1px;"/><path class="xgrid crisp" transform="translate(741.29,0)" d="M0,100v359" style="stroke: rgb(128, 128, 128); stroke-opacity: 1; stroke-width: 1px;"/><path class="xgrid crisp" transform="translate(827.07,0)" d="M0,100v359" style="stroke: rgb(128, 128, 128); stroke-opacity: 1; stroke-width: 1px;"/></g><g class="y"><path class="ygrid crisp" transform="translate(0,441.05)" d="M55,0h857" style="stroke: rgb(128, 128, 128); stroke-opacity: 1; stroke-width: 1px;"/><path class="ygrid crisp" transform="translate(0,360.08)" d="M55,0h857" style="stroke: rgb(128, 128, 128); stroke-opacity: 1; stroke-width: 1px;"/><path class="ygrid crisp" transform="translate(0,198.14)" d="M55,0h857" style="stroke: rgb(128, 128, 128); stroke-opacity: 1; stroke-width: 1px;"/><path class="ygrid crisp" transform="translate(0,117.17)" d="M55,0h857" style="stroke: rgb(128, 128, 128); stroke-opacity: 1; stroke-width: 1px;"/></g></g><g class="zerolinelayer"><path class="xzl zl crisp" transform="translate(55,0)" d="M0,100v359" style="stroke: rgb(0, 0, 0); stroke-opacity: 1; stroke-width: 2px;"/><path class="yzl zl crisp" transform="translate(0,279.11)" d="M55,0h857" style="stroke: rgb(0, 0, 0); stroke-opacity: 1; stroke-width: 2px;"/></g><path class="xlines-below"/><path class="ylines-below"/><g class="overlines-below"/><g class="xaxislayer-below"/><g class="yaxislayer-below"/><g class="overaxes-below"/><g class="plot" transform="translate(55,100)" clip-path="url(#clip2a1208xyplot)"><g class="scatterlayer mlayer"><g class="trace scatter trace1db236" style="stroke-miterlimit: 2; opacity: 1;"><g class="fills"/><g class="errorbars"/><g class="lines"><path class="js-line" d="M0,178.2L1.72,183.39L2.57,180.93L3.43,178.85L4.29,181.18L5.15,176.13L6.01,176.78L9.44,173.8L10.29,170.17L11.15,169.65L12.01,172.37L13.73,172.5L14.58,174.45L15.44,174.45L16.3,173.54L17.16,174.84L18.02,174.58L18.87,174.45L19.73,175.1L20.59,177.82L21.45,177.56L24.02,179.76L24.88,178.59L25.74,178.98L26.59,180.8L27.45,179.5L28.31,179.89L29.17,181.96L30.03,181.96L30.88,181.96L31.74,183.52L33.46,187.4L34.31,188.96L35.17,191.16L36.03,189.99L36.89,190.9L37.75,193.88L41.18,194.92L42.04,194.01L42.89,193.62L43.75,191.68L45.47,191.42L46.32,192.33L48.04,194.79L48.9,194.27L50.61,195.05L51.47,195.18L52.33,198.67L53.19,197.51L54.9,197.12L55.76,195.82L57.48,198.03L58.33,197.12L59.19,196.08L60.05,197.51L61.77,196.6L62.62,198.54L65.2,200.88L66.06,201.52L67.77,200.62L68.63,201.52L71.2,203.99L72.06,203.21L72.92,202.82L73.78,201.01L74.63,201.65L75.49,200.62L76.35,202.17L77.21,201.52L79.78,200.36L80.64,201.39L81.5,203.21L82.35,201.78L84.07,203.21L84.93,202.3L85.79,202.69L86.64,204.24L88.36,207.09L89.22,207.48L90.93,207.09L91.79,209.94L92.65,208.78L93.51,208.91L96.08,208.13L96.94,208.91L98.65,210.33L99.51,212.15L101.23,212.41L102.09,212.28L104.66,214.87L105.52,214.74L106.37,215.39L107.23,215L108.09,213.83L108.95,214.35L111.52,217.72L112.38,218.49L114.95,217.85L115.81,218.62L118.38,219.14L119.24,220.18L120.1,219.66L120.96,220.83L122.67,221.73L123.53,222.77L124.39,222.38L125.25,223.81L126.96,223.42L127.82,222.25L128.68,222.25L129.54,223.16L130.39,222.64L131.25,223.94L132.97,225.62L133.83,227.17L137.26,226.66L138.12,228.08L140.69,226.92L141.55,227.56L143.26,227.82L144.12,228.47L144.98,228.34L145.84,229.38L147.55,228.21L148.41,228.34L152.7,226.14L153.56,227.43L155.27,226.27L156.13,227.05L156.99,227.05L157.85,226.27L160.42,228.6L161.28,227.56L162.99,225.88L163.85,227.69L164.71,226.53L165.57,226.79L167.28,224.45L168.14,224.71L169.86,226.53L170.71,226.92L172.43,228.6L173.29,230.02L175,229.25L175.86,230.41L176.72,232.36L177.58,230.8L178.43,231.19L179.29,230.02L180.15,230.02L181.01,231.84L185.3,231.32L186.16,230.93L187.87,230.41L188.73,231.71L192.16,232.1L193.02,231.97L193.88,231.84L194.73,233.39L196.45,234.43L197.31,233.39L199.02,231.97L199.88,233.13L200.74,233.91L201.6,233.13L203.31,233.39L204.17,232.75L205.03,231.84L205.89,232.87L206.74,232.1L207.6,234.17L208.46,234.56L209.32,232.23L210.18,232.49L211.03,231.71L212.75,231.97L213.61,232.49L215.32,232.36L216.18,233.65L217.9,235.08L218.75,234.69L222.19,236.11L223.04,237.41L224.76,238.32L225.62,238.32L227.33,237.67L228.19,238.06L229.05,236.24L229.91,236.37L230.76,236.11L231.62,237.8L232.48,240L233.34,239.74L235.05,238.7L235.91,239.35L236.77,238.96L237.63,239.74L238.48,239.22L239.34,240.91L242.77,240.91L243.63,241.55L246.21,242.72L247.06,242.33L248.78,242.98L249.64,242.2L250.49,244.28L251.35,244.28L253.07,242.59L253.93,243.89L255.64,245.83L256.5,245.18L257.36,244.41L258.22,245.31L259.93,245.7L260.79,245.83L262.5,247.26L263.36,248.29L267.65,249.85L268.51,249.46L269.37,249.59L270.23,248.94L271.94,247.38L272.8,247.26L273.66,249.59L274.51,249.46L275.37,248.94L276.23,249.33L277.95,248.03L278.8,248.68L279.66,248.94L280.52,251.14L281.38,250.62L282.24,251.4L285.67,252.44L286.52,253.99L288.24,254.38L289.1,253.6L290.81,252.31L291.67,252.18L294.25,252.44L295.1,252.57L296.82,252.96L297.68,252.05L299.39,252.57L300.25,253.34L303.68,252.57L304.54,253.47L306.26,252.83L307.11,254.51L307.97,254.12L308.83,254.9L309.69,255.29L310.54,254.12L313.12,254.77L313.98,253.86L316.55,254.64L317.41,253.21L319.12,254.12L319.98,255.94L321.7,257.23L322.55,257.36L324.27,258.91L325.13,258.66L325.99,260.21L326.84,260.08L329.42,258.91L330.28,259.04L331.99,260.47L332.85,261.25L335.42,262.28L336.28,262.93L337.14,262.54L338,264.36L341.43,267.85L342.29,268.37L343.14,269.93L344,269.28L344.86,269.15L345.72,271.09L348.29,276.14L349.15,275.11L350.01,274.72L350.86,276.02L351.72,276.66L352.58,276.27L353.44,276.53L354.3,277.83L356.01,278.35L356.87,279.64L357.73,279.51L358.58,280.16L361.16,282.75L362.02,283.27L365.45,283.92L366.31,285.08L368.88,287.93L369.74,288.58L370.59,288.71L371.45,290.01L372.31,289.75L373.17,290.4L374.88,292.6L375.74,292.86L377.46,293.89L378.32,295.84L379.17,294.28L380.03,295.84L380.89,295.97L381.75,295.32L382.6,295.19L383.46,296.23L385.18,295.06L386.04,295.58L390.33,294.28L391.18,294.28L392.04,296.1L392.9,294.93L394.61,296.1L395.47,295.32L396.33,295.84L397.19,295.19L398.9,296.61L399.76,296.48L401.48,296.61L402.34,296.48L404.05,297.26L404.91,297.78L407.48,297.78L408.34,298.43L409.2,298.43L410.06,297.65L410.91,298.95L411.77,298.43L413.49,299.59L414.35,298.95L415.2,298.69L416.06,297.39L418.63,299.21L419.49,300.11L421.21,299.85L422.07,300.63L425.5,302.57L426.36,303.74L427.21,304.52L428.07,303.61L429.79,304.26L430.64,304.52L433.22,305.55L434.08,305.29L435.79,306.59L436.65,306.98L438.37,307.5L439.22,307.63L441.8,308.79L442.65,308.66L446.09,308.79L446.94,308.4L452.09,310.35L452.95,309.83L455.52,311.25L456.38,312.29L457.24,312.94L458.1,312.42L459.81,313.97L460.67,313.97L462.39,313.84L463.24,314.88L466.67,316.82L467.53,315.92L469.25,315.53L470.11,315.27L472.68,316.05L473.54,316.44L474.4,316.31L475.25,317.47L478.68,319.41L479.54,320.32L481.26,320.58L482.12,321.49L483.83,322.01L484.69,322.14L485.55,322.39L486.41,323.43L487.26,323.04L488.12,324.08L490.69,326.15L491.55,326.02L493.27,326.15L494.13,326.15L495.84,326.67L496.7,326.02L498.42,325.76L499.27,325.89L502.7,326.54L503.56,326.15L506.99,328.22L507.85,328.22L510.43,328.61L511.28,328.87L513.86,329.26L514.71,329.26L517.29,329.52L518.15,330.17L521.58,331.33L522.44,331.07L525.01,331.46L525.87,331.85L529.3,331.98L530.16,332.37L531.01,332.24L531.87,332.89L535.3,335.48L536.16,334.96L541.31,336.9L542.17,336.77L544.74,338.07L545.6,337.81L549.03,338.59L549.89,338.46L551.6,338.98L552.46,339.11L554.18,339.24L555.03,339.37L557.61,341.05L558.47,340.66L565.33,341.05L566.19,341.05L590.21,340.92L591.06,340.27L592.78,341.05L593.64,340.92L857,340.79" style="vector-effect: non-scaling-stroke; fill: none; stroke: rgb(99, 110, 250); stroke-opacity: 1; stroke-width: 2px; opacity: 1;"/></g><g class="points"/><g class="text"/></g><g class="trace scatter tracec05f35" style="stroke-miterlimit: 2; opacity: 1;"><g class="fills"/><g class="errorbars"/><g class="lines"><path class="js-line" d="M0,176.78L0.86,177.56L1.72,176.26L3.43,180.41L4.29,177.3L5.15,174.84L6.01,177.17L6.86,174.97L7.72,176L8.58,178.85L9.44,176.52L10.29,174.58L11.15,176.39L14.58,164.08L15.44,163.57L16.3,163.82L17.16,163.05L18.02,164.6L18.87,163.18L21.45,160.72L22.3,164.08L23.16,164.99L24.02,164.21L25.74,163.05L26.59,163.69L27.45,163.82L28.31,165.38L29.17,167.06L30.03,166.54L32.6,163.18L33.46,162.4L34.31,163.05L35.17,162.27L36.89,160.2L37.75,160.84L38.6,158.38L39.46,160.2L41.18,158.77L42.04,159.55L42.89,159.16L43.75,160.46L44.61,159.42L45.47,160.46L46.32,160.2L47.18,157.74L48.04,157.09L48.9,158.38L50.61,158.12L51.47,157.86L53.19,154.89L54.05,156.83L54.9,159.03L55.76,157.86L56.62,157.22L57.48,157.61L59.19,158.64L60.05,157.48L60.91,156.7L61.77,157.09L62.62,158.12L63.48,155.79L64.34,155.92L65.2,152.16L66.91,153.33L67.77,152.94L69.49,152.81L70.34,153.85L73.78,155.4L74.63,155.01L75.49,155.27L76.35,153.46L77.21,155.27L78.07,153.98L78.92,154.89L79.78,152.55L80.64,152.42L81.5,153.2L83.21,155.01L84.07,154.24L85.79,155.01L86.64,155.27L87.5,154.11L88.36,154.24L90.93,153.07L91.79,155.4L92.65,155.92L93.51,154.5L94.36,154.76L95.22,153.85L96.94,154.63L97.8,153.72L98.65,154.11L99.51,155.53L100.37,154.89L101.23,152.81L102.94,150.22L103.8,152.16L106.37,149.57L107.23,149.7L108.09,147.76L108.95,148.15L110.66,147.37L111.52,148.8L114.1,149.06L114.95,149.57L115.81,147.37L116.67,148.54L118.38,150.87L119.24,150.74L120.1,150.61L120.96,152.42L121.82,150.74L122.67,152.04L125.25,156.31L126.11,154.89L126.96,156.05L127.82,153.59L128.68,153.72L129.54,154.89L131.25,152.94L132.11,152.81L133.83,154.11L134.68,153.59L135.54,152.42L136.4,152.68L137.26,152.55L138.12,153.33L139.83,156.57L140.69,157.22L141.55,157.99L142.4,157.48L143.26,157.09L144.12,157.86L146.69,160.46L147.55,162.01L148.41,163.31L149.27,160.33L150.13,160.07L150.98,158.77L153.56,158.38L154.41,159.68L156.99,158.64L157.85,158.25L159.56,160.07L160.42,159.94L162.14,161.88L162.99,161.36L163.85,161.75L164.71,159.29L165.57,158.77L166.42,160.84L168.14,162.79L169,161.62L169.86,160.84L170.71,158.77L171.57,160.33L172.43,160.07L174.15,161.88L175,161.49L178.43,161.62L179.29,161.75L181.01,161.75L181.87,160.59L183.58,158.38L184.44,157.74L186.16,157.86L187.01,157.09L187.87,157.35L188.73,156.57L189.59,155.79L190.44,156.18L192.16,156.57L193.02,156.44L194.73,157.86L195.59,157.61L197.31,156.31L198.17,157.22L199.02,156.7L199.88,157.74L200.74,158.12L201.6,157.09L204.17,160.84L205.03,160.2L205.89,161.62L206.74,161.23L208.46,160.72L209.32,161.36L211.03,161.75L211.89,160.72L212.75,161.23L213.61,160.72L214.46,161.62L215.32,160.2L216.18,161.23L217.04,160.46L218.75,159.42L219.61,159.29L223.04,162.01L223.9,161.49L224.76,161.75L225.62,163.57L227.33,164.21L228.19,164.73L229.91,163.95L230.76,164.21L231.62,163.44L232.48,165.12L234.2,164.99L235.05,164.86L236.77,162.79L237.63,163.31L238.48,164.08L239.34,165.9L241.92,166.03L242.77,165.25L244.49,165.38L245.35,163.57L247.06,162.53L247.92,161.36L248.78,161.49L249.64,160.84L251.35,159.94L252.21,159.16L256.5,155.66L257.36,155.4L258.22,155.92L259.07,158.38L259.93,157.22L260.79,157.61L261.65,158.12L262.5,157.61L263.36,156.7L264.22,154.24L265.94,154.89L266.79,156.18L269.37,157.22L270.23,159.55L271.94,160.72L272.8,159.68L273.66,159.03L274.51,159.68L278.8,157.35L279.66,158.25L281.38,159.03L282.24,160.46L283.09,160.2L283.95,162.14L285.67,163.57L286.52,164.21L288.24,162.66L289.1,160.59L290.81,159.68L291.67,159.55L292.53,158.77L293.39,159.94L294.25,160.2L295.1,159.55L296.82,159.55L297.68,159.55L298.53,160.33L299.39,160.07L301.11,162.27L301.97,160.59L302.82,160.84L303.68,159.42L305.4,162.01L306.26,160.97L307.11,160.97L307.97,162.01L308.83,162.01L309.69,160.33L310.54,160.2L311.4,161.36L314.83,161.75L315.69,163.82L316.55,164.08L317.41,165.64L318.27,165.51L319.12,164.6L320.84,166.29L321.7,165.38L324.27,162.4L325.13,162.79L325.99,161.75L326.84,163.44L327.7,164.47L328.56,164.21L331.13,166.67L331.99,166.93L333.71,165.25L334.56,166.29L336.28,167.84L337.14,168.36L338,168.23L338.85,169.65L340.57,169.78L341.43,169.01L343.14,169.01L344,170.95L344.86,171.99L345.72,171.6L347.43,171.34L348.29,172.5L349.15,171.73L350.01,173.02L350.86,171.86L351.72,172.63L355.15,174.97L356.01,171.86L356.87,172.63L357.73,172.12L358.58,171.47L359.44,173.93L361.16,171.86L362.02,172.63L362.87,172.89L363.73,171.99L366.31,172.63L367.16,171.99L368.88,169.14L369.74,169.14L370.59,168.88L371.45,169.78L372.31,169.78L373.17,171.08L374.88,167.97L375.74,168.36L376.6,170.04L377.46,169.4L379.17,171.34L380.03,170.3L380.89,169.4L381.75,170.95L382.6,172.5L383.46,172.37L384.32,173.28L385.18,172.76L390.33,170.43L391.18,171.47L393.76,172.25L394.61,170.82L397.19,172.5L398.05,173.8L398.9,173.02L399.76,173.41L400.62,172.76L401.48,173.15L402.34,173.15L403.19,174.84L404.05,175.22L404.91,174.45L406.62,174.71L407.48,175.74L410.91,175.74L411.77,177.04L413.49,177.56L414.35,176.91L417.78,176.65L418.63,177.56L421.21,175.22L422.07,175.61L424.64,175.1L425.5,175.1L427.21,172.76L428.07,173.54L429.79,174.06L430.64,172.63L431.5,172.76L432.36,171.73L434.08,173.02L434.93,172.37L436.65,171.47L437.51,172.37L438.37,172.76L439.22,171.73L441.8,171.73L442.65,172.5L444.37,171.73L445.23,170.04L446.94,168.62L447.8,169.91L449.52,169.52L450.38,170.43L451.23,170.3L452.09,171.34L452.95,173.15L453.81,173.15L454.66,172.12L455.52,172.37L456.38,172.63L457.24,171.86L461.53,173.41L462.39,173.28L464.96,171.6L465.82,170.95L466.67,170.82L467.53,169.91L470.11,173.41L470.96,172.76L471.82,173.54L472.68,172.63L473.54,173.02L474.4,172.5L475.25,171.6L476.11,172.89L477.83,172.5L478.68,173.54L479.54,174.32L480.4,173.67L482.97,172.12L483.83,172.25L484.69,171.73L485.55,172.12L486.41,172.89L487.26,171.99L488.12,172.76L488.98,171.99L489.84,169.52L490.69,170.82L493.27,172.12L494.13,171.47L494.98,170.56L495.84,171.73L498.42,169.91L499.27,170.43L500.13,171.21L500.99,170.82L501.85,168.62L502.7,169.65L504.42,169.65L505.28,170.56L507.85,172.5L508.71,172.12L510.43,171.86L511.28,172.63L512.14,174.45L513,173.93L513.86,172.89L514.71,174.71L518.15,177.56L519,177.3L519.86,177.56L520.72,176.78L521.58,177.04L522.44,178.72L523.29,178.85L524.15,179.89L525.01,178.85L525.87,180.67L531.01,179.24L531.87,176.91L535.3,176.52L536.16,177.17L537.02,177.3L537.88,178.33L538.73,178.46L539.59,177.82L542.17,176.39L543.02,177.04L545.6,176.13L546.46,176.52L548.17,176.52L549.03,176.52L551.6,176.13L552.46,175.22L553.32,176.39L554.18,176.26L555.03,174.71L555.89,174.71L556.75,174.19L557.61,175.1L558.47,174.84L559.32,175.87L560.18,178.33L561.04,177.3L564.47,175.48L565.33,175.61L567.9,175.48L568.76,177.04L570.48,174.45L571.33,174.84L573.91,174.71L574.76,176L575.62,175.35L576.48,176L577.34,175.61L578.2,177.17L581.63,178.2L582.49,176.13L585.92,179.63L586.77,178.98L587.63,179.5L588.49,178.72L589.35,180.67L590.21,180.67L591.92,181.18L592.78,180.54L593.64,181.05L594.5,183.13L595.35,181.7L596.21,182.09L597.07,181.05L597.93,181.7L598.78,181.83L599.64,183L600.5,183.78L601.36,183L602.22,183.65L603.07,183.26L603.93,181.44L604.79,181.96L607.36,182.22L608.22,182.48L609.94,181.96L610.79,182.74L612.51,181.57L613.37,181.96L614.23,180.8L615.08,181.18L615.94,182.35L616.8,182.09L618.52,182.48L619.37,181.7L621.09,181.18L621.95,179.63L622.8,180.41L623.66,178.72L625.38,178.85L626.24,180.41L627.95,182.35L628.81,181.7L630.53,179.24L631.38,180.28L633.1,178.85L633.96,179.63L634.81,178.33L635.67,179.24L638.25,179.24L639.1,181.18L641.68,182.22L642.54,182.09L643.39,180.93L644.25,181.18L645.11,180.41L645.97,181.83L647.68,183.9L648.54,183.52L649.4,184.03L650.26,183.39L651.11,182.74L651.97,183.52L653.69,182.48L654.55,182.48L657.98,181.44L658.83,180.41L659.69,181.18L660.55,183L662.27,180.02L663.12,180.41L663.98,180.41L664.84,181.57L665.7,182.22L666.56,181.31L667.41,181.18L668.27,182.35L675.13,183L675.99,184.03L676.85,183.26L677.71,184.68L678.57,185.85L679.42,185.2L680.28,184.94L681.14,183.78L682.85,183.39L683.71,183.13L684.57,183.26L685.43,181.7L686.29,181.57L687.14,182.61L688,181.7L688.86,183.39L690.58,182.61L691.43,183.39L692.29,184.03L693.15,183.65L694.01,184.68L694.86,184.42L695.72,183.39L696.58,184.03L698.3,183.13L699.15,184.55L700.01,184.16L700.87,182.22L701.73,182.22L702.59,183.13L704.3,183.65L705.16,182.48L706.02,182.09L706.87,182.74L707.73,181.57L708.59,182.09L712.02,181.57L712.88,180.8L714.6,179.11L715.45,178.98L718.88,177.95L719.74,180.8L721.46,178.85L722.32,179.24L723.17,178.85L724.03,179.5L724.89,180.15L725.75,179.5L727.46,180.67L728.32,179.5L730.89,179.89L731.75,178.72L732.61,178.33L733.47,179.11L735.18,178.2L736.04,178.46L739.47,179.11L740.33,178.07L742.05,178.72L742.9,177.56L744.62,178.85L745.48,178.46L747.19,178.07L748.05,179.11L749.77,178.98L750.63,180.02L751.48,179.11L752.34,180.15L753.2,179.5L754.06,180.28L757.49,180.41L758.35,180.8L760.06,180.93L760.92,180.15L762.64,181.31L763.49,180.67L764.35,181.7L765.21,181.18L766.07,181.31L766.92,182.74L768.64,184.55L769.5,184.81L770.36,185.33L771.21,184.94L772.93,185.46L773.79,184.94L774.65,186.5L775.5,185.85L778.08,185.98L778.93,184.68L780.65,185.72L781.51,184.16L783.22,185.46L784.08,184.42L785.8,183L786.66,182.61L787.51,182.22L788.37,183.52L789.23,182.22L790.09,183.65L792.66,181.31L793.52,181.7L794.38,180.02L795.23,181.05L796.95,178.2L797.81,179.37L798.67,178.33L799.52,178.59L800.38,178.72L801.24,180.28L802.95,178.33L803.81,179.24L805.53,180.28L806.39,180.93L814.11,187.01L814.96,187.4L817.54,190.25L818.4,192.58L819.25,194.92L820.11,194.79L821.83,192.58L822.69,193.36L823.54,192.97L824.4,193.49L826.12,194.92L826.97,193.88L828.69,194.14L829.55,194.79L831.26,194.01L832.12,193.88L834.7,193.88L835.55,195.05L836.41,195.69L837.27,193.88L838.98,194.66L839.84,194.01L840.7,192.71L841.56,193.1L842.42,193.49L843.27,192.58L844.99,191.81L845.85,190.38L848.42,188.57L849.28,189.99L852.71,188.05L853.57,188.57L855.28,188.18L856.14,189.09L857,189.35" style="vector-effect: non-scaling-stroke; fill: none; stroke: rgb(239, 85, 59); stroke-opacity: 1; stroke-width: 2px; opacity: 1;"/></g><g class="points"/><g class="text"/></g><g class="trace scatter tracec3677d" style="stroke-miterlimit: 2; opacity: 1;"><g class="fills"/><g class="errorbars"/><g class="lines"><path class="js-line" d="M0,179.63L1.72,173.67L2.57,176.65L3.43,175.87L4.29,176.65L5.15,177.43L6.01,174.32L6.86,173.54L7.72,175.61L10.29,181.31L11.15,178.85L12.01,180.54L12.87,179.11L14.58,177.69L15.44,175.74L16.3,175.87L17.16,175.1L18.02,174.58L18.87,175.74L19.73,176.52L20.59,179.76L21.45,174.84L22.3,176.78L23.16,174.71L24.02,176.39L24.88,178.2L25.74,176.91L28.31,174.58L29.17,174.97L32.6,172.12L33.46,174.19L34.31,175.61L35.17,175.48L36.03,177.43L36.89,176.65L37.75,177.3L38.6,173.28L39.46,170.95L40.32,173.41L43.75,162.53L44.61,162.14L46.32,165.38L47.18,164.86L48.04,164.47L48.9,162.92L49.76,163.31L50.61,161.62L52.33,160.84L53.19,162.27L54.05,162.79L54.9,161.23L55.76,161.88L56.62,160.72L60.05,155.53L60.91,155.4L61.77,156.05L62.62,154.63L63.48,152.04L64.34,152.55L65.2,151.39L66.06,152.16L66.91,151.78L67.77,152.29L69.49,150.87L70.34,151.52L72.06,153.59L72.92,152.55L75.49,151.52L76.35,148.54L77.21,146.72L78.07,147.37L79.78,147.5L80.64,146.72L82.35,147.63L83.21,146.98L85.79,145.17L86.64,145.3L87.5,143.36L88.36,144L89.22,146.08L90.08,144.91L90.93,143.61L91.79,145.17L92.65,145.3L93.51,146.33L95.22,149.96L96.08,152.16L96.94,152.55L97.8,151.13L98.65,150.35L99.51,147.11L100.37,148.54L101.23,148.15L102.94,144.13L103.8,144.65L104.66,144.91L105.52,143.61L107.23,140.63L108.09,140.76L108.95,141.54L109.81,139.6L110.66,140.12L111.52,139.21L114.1,135.97L114.95,135.32L115.81,134.8L116.67,135.84L118.38,133.38L119.24,134.42L120.1,132.47L120.96,133.51L121.82,132.73L122.67,133.12L124.39,135.06L125.25,135.84L126.11,134.29L126.96,130.01L129.54,130.14L130.39,131.31L132.11,129.49L132.97,128.85L133.83,128.2L134.68,128.98L135.54,128.46L136.4,128.85L137.26,129.62L138.12,126L140.69,120.94L141.55,120.81L142.4,119.52L143.26,121.59L144.98,120.68L145.84,121.33L146.69,121.85L147.55,121.33L149.27,121.72L150.13,120.55L152.7,117.45L153.56,118.74L155.27,116.15L156.13,115.63L156.99,113.3L157.85,114.98L160.42,112L161.28,111.87L162.14,110.97L162.99,111.23L164.71,111.23L165.57,111.49L166.42,111.49L167.28,112.52L168.14,113.3L169,112.91L169.86,111.1L170.71,112.78L174.15,112.13L175,111.1L175.86,112.13L176.72,109.93L177.58,109.67L178.43,107.73L179.29,107.6L180.15,109.15L181.01,106.69L181.87,106.95L182.72,108.64L183.58,107.86L186.16,108.38L187.01,109.93L187.87,108.38L188.73,108.77L189.59,107.47L190.44,110.58L191.3,109.67L192.16,110.19L193.88,107.08L194.73,107.21L196.45,109.93L197.31,108.12L198.17,108.89L199.02,108.12L200.74,107.47L201.6,108.12L205.89,105.66L206.74,104.62L208.46,103.32L209.32,104.75L211.03,104.36L211.89,104.1L213.61,104.49L214.46,105.79L216.18,103.84L217.04,103.58L217.9,105.4L218.75,104.36L219.61,102.55L220.47,102.55L221.33,103.19L222.19,102.29L224.76,101.9L225.62,102.16L227.33,104.23L228.19,104.23L229.91,102.03L230.76,100.34L231.62,100.34L232.48,97.88L233.34,97.49L234.2,99.44L235.05,100.09L235.91,99.31L237.63,96.85L238.48,96.98L240.2,98.66L241.06,96.59L241.92,97.88L242.77,96.59L246.21,97.11L247.06,98.14L251.35,94.26L252.21,92.57L253.07,93.09L253.93,92.05L254.78,93.74L255.64,92.7L256.5,91.53L257.36,91.92L259.07,90.76L259.93,90.24L260.79,89.46L261.65,89.85L265.08,86.35L265.94,86.61L266.79,87.39L267.65,86.87L268.51,85.71L269.37,86.61L270.23,87L271.08,86.09L271.94,86.35L272.8,87.52L273.66,86.35L274.51,86.61L276.23,85.06L277.09,86.87L278.8,85.96L279.66,84.15L282.24,80.78L283.09,81.43L283.95,81.95L284.81,81.17L287.38,82.98L288.24,82.21L289.1,80.26L289.96,80.65L290.81,80.65L291.67,78.71L295.1,73.53L295.96,72.49L297.68,72.75L298.53,75.6L300.25,76.77L301.11,75.6L305.4,70.94L306.26,72.62L307.97,70.68L308.83,71.45L311.4,73.27L312.26,72.49L313.12,71.71L313.98,73.27L314.83,72.88L315.69,71.45L318.27,67.96L319.12,67.05L319.98,67.83L320.84,67.18L321.7,65.5L322.55,66.53L323.41,66.14L324.27,66.92L325.13,67.18L325.99,68.35L326.84,67.57L327.7,69.38L330.28,66.53L331.13,67.05L338,63.16L338.85,63.16L339.71,64.85L340.57,63.55L342.29,62.39L343.14,62.77L346.57,64.59L347.43,64.85L348.29,64.46L349.15,63.16L350.01,63.16L350.86,60.44L354.3,62.65L355.15,61.09L356.01,60.83L356.87,59.67L358.58,60.18L359.44,62L362.02,58.37L362.87,59.02L364.59,58.76L365.45,56.94L366.31,57.33L367.16,55.39L368.88,52.8L369.74,53.71L371.45,50.47L372.31,53.06L374.88,51.63L375.74,49.82L380.89,43.99L381.75,43.99L382.6,43.34L383.46,44.38L384.32,44.51L385.18,43.73L386.89,42.18L387.75,41.92L388.61,42.56L389.47,41.66L390.33,42.05L391.18,41.4L392.04,42.18L392.9,41.66L394.61,44.64L395.47,44.12L396.33,43.08L397.19,43.73L398.9,42.44L399.76,42.44L401.48,39.07L402.34,39.2L403.19,39.2L404.05,40.1L405.77,38.29L406.62,38.42L409.2,37.38L410.06,36.86L411.77,32.98L412.63,34.79L414.35,34.14L415.2,34.92L416.06,35.7L416.92,34.92L417.78,34.27L418.63,35.83L420.35,34.01L421.21,34.01L424.64,33.11L425.5,31.81L427.21,29.74L428.07,28.31L428.93,29.09L429.79,28.57L431.5,28.96L432.36,27.93L434.08,27.54L434.93,26.24L435.79,25.98L436.65,26.63L437.51,27.54L438.37,27.15L439.22,27.54L440.08,26.11L440.94,26.37L441.8,25.08L444.37,23L445.23,24.04L446.09,22.48L446.94,23.91L450.38,23L451.23,21.71L452.09,22.23L452.95,21.71L458.95,19.89L459.81,19.25L460.67,18.47L461.53,18.99L466.67,18.6L467.53,19.5L470.11,18.73L470.96,18.73L473.54,18.86L474.4,19.12L476.97,19.5L477.83,18.99L478.68,18.6L479.54,19.38L482.97,18.34L483.83,19.12L485.55,19.89L486.41,20.67L487.26,20.93L488.12,19.76L489.84,19.76L490.69,19.63L491.55,18.6L492.41,19.5L493.27,18.6L494.13,19.89L496.7,20.15L497.56,19.63L498.42,18.6L499.27,18.99L500.99,18.6L501.85,18.6L502.7,18.21L503.56,18.73L507.85,19.12L508.71,18.6L510.43,18.86L511.28,17.95L512.14,18.86L513,18.6L513.86,19.12L514.71,18.6L516.43,18.99L517.29,18.99L519,20.67L519.86,19.63L521.58,19.12L522.44,19.76L524.15,19.25L525.01,20.02L525.87,18.86L526.72,20.15L528.44,19.12L529.3,20.67L531.01,19.38L531.87,19.5L533.59,18.86L534.45,19.76L535.3,20.02L536.16,19.38L540.45,19.25L541.31,20.54L543.02,19.12L543.88,19.5L544.74,19.89L545.6,18.86L546.46,17.95L547.31,18.21L554.18,19.63L555.03,19.38L556.75,18.86L557.61,19.76L561.04,18.86L561.9,19.25L562.75,19.12L563.61,20.02L565.33,20.28L566.19,20.28L567.04,19.5L567.9,20.15L568.76,21.06L569.62,18.73L571.33,19.76L572.19,20.28L575.62,18.34L576.48,18.6L578.2,20.15L579.05,19.63L579.91,19.25L580.77,19.76L584.2,20.02L585.06,19.76L587.63,20.02L588.49,19.38L590.21,18.34L591.06,18.86L592.78,18.6L593.64,19.38L599.64,18.73L600.5,17.95L601.36,19.63L602.22,18.99L603.93,19.76L604.79,20.8L607.36,20.54L608.22,19.38L610.79,18.99L611.65,19.89L614.23,18.86L615.08,18.73L616.8,19.63L617.66,18.99L620.23,19.89L621.09,21.19L623.66,19.63L624.52,19.63L627.09,18.86L627.95,19.63L629.67,20.28L630.53,19.76L631.38,18.47L632.24,19.12L633.96,21.58L634.81,20.67L635.67,20.28L636.53,21.32L637.39,19.63L638.25,19.63L639.1,19.12L639.96,19.89L644.25,18.73L645.11,19.12L645.97,18.21L646.82,18.86L647.68,18.99L648.54,20.02L649.4,19.12L650.26,20.15L651.11,19.25L651.97,19.5L653.69,18.73L654.55,19.76L655.4,19.38L656.26,20.15L657.98,18.6L658.83,19.12L664.84,18.73L665.7,19.89L667.41,19.25L668.27,19.63L669.99,19.38L670.84,20.02L673.42,18.86L674.28,18.08L680.28,18.86L681.14,18.34L682.85,19.25L683.71,18.99L684.57,19.76L685.43,19.38L687.14,19.89L688,19.63L689.72,19.38L690.58,18.99L693.15,18.86L694.01,18.86L696.58,20.15L697.44,19.5L701.73,18.6L702.59,18.86L705.16,19.25L706.02,18.6L706.87,19.25L707.73,18.47L711.16,19.12L712.02,19.25L714.6,19.5L715.45,18.99L716.31,19.76L717.17,18.99L718.03,18.47L718.88,19.38L719.74,20.41L720.6,19.25L724.03,19.76L724.89,20.02L725.75,18.73L726.61,19.76L727.46,19.89L728.32,19.12L729.18,19.38L730.04,18.47L730.89,18.34L731.75,19.12L732.61,19.25L733.47,18.47L736.04,19.12L736.9,18.47L737.76,19.5L738.62,19.12L740.33,18.86L741.19,19.63L744.62,19.76L745.48,19.76L748.05,21.97L748.91,20.15L750.63,18.6L751.48,18.73L752.34,18.47L753.2,19.38L754.91,18.34L755.77,19.5L757.49,18.86L758.35,19.5L759.2,18.6L760.06,19.38L761.78,19.12L762.64,20.15L763.49,18.73L764.35,19.25L765.21,19.89L766.07,18.99L768.64,18.21L769.5,18.73L770.36,18.6L771.21,19.63L772.93,19.12L773.79,19.12L774.65,18.6L775.5,19.12L779.79,19.76L780.65,18.47L782.37,19.89L783.22,19.89L784.94,19.5L785.8,19.63L786.66,19.63L787.51,18.6L793.52,19.5L794.38,19.25L795.23,18.47L796.09,18.86L797.81,18.47L798.67,19.38L799.52,18.99L800.38,19.63L801.24,20.15L802.1,19.38L803.81,20.41L804.67,19.5L805.53,18.73L806.39,19.25L808.1,19.76L808.96,19.12L810.68,20.28L811.53,18.86L814.96,19.63L815.82,18.34L819.25,19.12L820.11,19.12L823.54,19.5L824.4,19.38L826.97,20.28L827.83,19.89L828.69,18.99L829.55,19.38L830.41,19.89L831.26,19.25L832.12,18.99L832.98,19.63L834.7,19.25L835.55,20.15L838.98,20.8L839.84,19.76L842.42,19.38L843.27,18.99L844.99,19.5L845.85,18.86L848.42,18.34L849.28,19.25L851.85,18.6L852.71,19.12L855.28,19.89L856.14,19.76L857,19.63" style="vector-effect: non-scaling-stroke; fill: none; stroke: rgb(0, 204, 150); stroke-opacity: 1; stroke-width: 2px; opacity: 1;"/></g><g class="points"/><g class="text"/></g><g class="trace scatter trace353745" style="stroke-miterlimit: 2; opacity: 1;"><g class="fills"/><g class="errorbars"/><g class="lines"><path class="js-line" d="M0,182.35L0.86,181.05L1.72,184.29L3.43,192.97L4.29,191.29L6.01,192.97L6.86,191.68L8.58,196.86L9.44,191.42L13.73,196.6L14.58,195.82L15.44,197.25L16.3,196.34L18.87,191.94L19.73,186.11L20.59,185.07L21.45,187.66L22.3,194.53L23.16,195.31L24.02,197.51L24.88,195.82L26.59,199.45L27.45,198.41L28.31,197.51L29.17,198.03L32.6,195.82L33.46,196.99L34.31,195.82L35.17,198.8L37.75,207.61L38.6,209.17L39.46,208.26L40.32,211.11L42.04,212.54L42.89,214.35L43.75,216.29L44.61,215.52L45.47,217.33L46.32,216.94L48.04,216.03L48.9,217.98L50.61,215.52L51.47,216.29L52.33,215.64L53.19,216.42L54.9,219.53L55.76,219.01L56.62,218.37L57.48,219.4L58.33,218.11L59.19,219.66L62.62,228.21L63.48,226.4L65.2,228.73L66.06,229.12L67.77,231.45L68.63,228.47L69.49,226.92L70.34,232.36L71.2,233.13L72.06,232.23L72.92,232.36L73.78,235.08L74.63,236.63L75.49,235.98L77.21,241.3L78.07,242.59L79.78,244.92L80.64,243.89L82.35,246.22L83.21,246.35L84.07,245.57L84.93,246.48L85.79,246.74L86.64,249.46L89.22,252.57L90.08,254.25L90.93,252.7L91.79,252.83L92.65,253.08L93.51,250.11L94.36,249.2L95.22,250.23L96.08,251.92L96.94,251.01L99.51,253.99L100.37,254.51L103.8,252.05L104.66,253.47L107.23,260.08L108.09,258.91L109.81,257.36L110.66,257.88L111.52,259.04L112.38,256.32L113.24,256.19L114.1,260.08L114.95,260.86L115.81,260.6L116.67,260.6L117.53,262.02L119.24,263.06L120.1,265.52L122.67,263.19L123.53,264.23L124.39,263.06L125.25,263.71L126.96,266.82L127.82,266.95L128.68,267.47L129.54,266.95L131.25,268.76L132.11,267.85L133.83,268.76L134.68,270.57L135.54,270.57L136.4,271.61L138.12,274.72L138.97,273.81L140.69,275.89L141.55,274.72L143.26,272.65L144.12,273.94L145.84,275.11L146.69,277.31L149.27,279.25L150.13,278.22L150.98,278.22L151.84,276.79L155.27,278.09L156.13,278.22L159.56,278.22L160.42,277.18L162.14,275.11L162.99,276.14L164.71,276.92L165.57,276.4L166.42,277.18L167.28,279.51L170.71,278.48L171.57,280.94L173.29,282.1L174.15,284.57L175,284.44L175.86,282.62L176.72,282.23L177.58,283.79L178.43,283.79L179.29,284.57L180.15,284.18L181.01,285.86L182.72,287.29L183.58,286.9L184.44,288.06L185.3,287.55L187.87,282.49L188.73,283.53L191.3,281.97L192.16,283.66L193.88,285.08L194.73,281.2L196.45,285.34L197.31,284.31L198.17,283.66L199.02,281.33L199.88,281.72L200.74,283.01L201.6,285.86L202.45,285.86L203.31,286.25L204.17,284.44L205.03,281.97L205.89,282.62L207.6,283.53L208.46,278.48L210.18,279.9L211.03,282.88L211.89,284.31L212.75,283.14L213.61,282.62L214.46,283.92L215.32,284.31L216.18,283.53L217.04,283.27L217.9,284.44L218.75,284.7L219.61,283.92L220.47,285.99L221.33,285.08L222.19,285.47L223.04,287.29L223.9,290.01L224.76,289.1L226.47,289.23L227.33,288.97L229.91,286.25L230.76,288.45L231.62,288.32L232.48,289.88L233.34,291.82L234.2,291.43L235.05,293.5L235.91,292.86L237.63,292.21L238.48,292.47L240.2,292.99L241.06,291.04L243.63,294.67L244.49,293.5L245.35,295.19L246.21,295.06L247.06,293.76L247.92,295.32L248.78,295.32L249.64,294.41L251.35,295.58L252.21,294.93L253.93,293.25L254.78,295.84L258.22,293.5L259.07,295.71L259.93,296.61L260.79,294.28L263.36,293.63L264.22,292.86L265.94,295.84L266.79,295.84L267.65,295.71L268.51,296.87L269.37,295.58L270.23,296.1L271.08,298.3L271.94,297L274.51,298.3L275.37,297.65L276.23,296.23L277.09,297L278.8,296.1L279.66,297.26L281.38,298.69L282.24,297.78L283.09,297.78L283.95,296.87L284.81,297.65L285.67,301.67L286.52,303.09L287.38,300.5L288.24,300.89L289.1,300.24L289.96,298.43L290.81,298.43L293.39,295.84L294.25,297.52L295.96,302.18L296.82,301.15L297.68,301.67L298.53,300.89L299.39,302.31L300.25,305.42L301.11,303.22L301.97,303.74L303.68,307.24L304.54,306.85L306.26,304.26L307.11,305.81L307.97,306.07L308.83,305.42L310.54,307.63L311.4,306.85L312.26,306.2L313.12,306.85L315.69,309.96L316.55,308.27L317.41,308.27L318.27,310.09L319.12,308.53L319.98,308.79L321.7,310.99L322.55,310.22L325.13,314.1L325.99,310.99L326.84,311.51L327.7,312.94L328.56,313.71L329.42,310.35L330.28,310.74L331.13,313.46L331.99,313.2L332.85,314.1L336.28,318.38L337.14,319.16L338,319.8L338.85,318.64L339.71,317.34L340.57,317.99L341.43,317.08L342.29,318.25L343.14,318.64L344,320.06L345.72,321.23L346.57,320.84L348.29,320.58L349.15,320.58L351.72,321.36L352.58,320.84L353.44,319.8L354.3,320.19L355.15,320.58L356.01,321.88L357.73,319.16L358.58,319.29L360.3,318.9L361.16,321.49L362.02,320.32L362.87,322.01L363.73,323.69L364.59,322.14L366.31,322.27L367.16,323.43L368.88,319.54L369.74,320.58L371.45,319.41L372.31,320.84L373.17,319.03L374.03,319.41L374.88,317.34L375.74,319.93L376.6,319.16L377.46,321.23L379.17,325.12L380.03,324.73L381.75,322.27L382.6,321.75L383.46,322.01L384.32,321.23L385.18,319.8L386.04,322.01L387.75,323.43L388.61,322.52L391.18,325.63L392.04,324.6L394.61,326.67L395.47,327.32L396.33,326.8L397.19,328.61L398.9,327.32L399.76,328.48L400.62,328.87L401.48,328.35L404.05,328.09L404.91,331.2L408.34,328.48L409.2,329.65L410.06,330.04L410.91,331.59L411.77,331.98L412.63,333.28L414.35,332.37L415.2,333.28L416.06,331.98L416.92,332.5L420.35,331.46L421.21,332.5L422.07,331.33L422.92,333.15L425.5,334.05L426.36,334.7L428.07,336.77L428.93,338.07L429.79,336.77L430.64,338.2L432.36,336.65L433.22,336.52L434.08,334.18L434.93,335.61L436.65,334.31L437.51,334.57L438.37,336L439.22,335.48L440.08,335.74L440.94,334.05L441.8,334.18L442.65,335.35L447.8,334.57L448.66,333.67L449.52,334.05L450.38,333.54L451.23,335.61L452.09,334.7L454.66,334.18L455.52,336.26L456.38,337.94L457.24,337.03L458.1,334.83L458.95,335.74L460.67,336L461.53,334.18L462.39,334.96L463.24,337.03L464.96,336.26L465.82,338.46L468.39,335.74L469.25,334.7L471.82,337.16L472.68,335.87L474.4,334.83L475.25,335.87L476.97,335.61L477.83,336.9L479.54,337.94L480.4,336.39L482.12,337.03L482.97,337.16L484.69,336.52L485.55,336.39L487.26,334.44L488.12,335.48L488.98,334.57L489.84,335.87L490.69,336.52L491.55,335.87L492.41,337.29L493.27,336.9L494.98,337.55L495.84,336.52L500.13,335.61L500.99,337.03L502.7,336.65L503.56,334.83L504.42,333.92L505.28,334.96L506.14,335.35L506.99,334.31L509.57,334.18L510.43,334.96L511.28,335.74L512.14,337.55L513,337.29L513.86,336.13L514.71,337.03L515.57,335.09L516.43,334.96L517.29,335.61L518.15,335.87L519,335.22L519.86,334.7L520.72,335.61L521.58,337.55L522.44,336.65L523.29,337.29L524.15,336.65L525.87,335.48L526.72,336.52L531.87,334.05L532.73,334.18L534.45,335.74L535.3,335.22L536.16,336.65L537.02,335.61L537.88,335.74L538.73,334.7L539.59,332.63L540.45,334.57L542.17,337.42L543.02,336.52L543.88,337.94L544.74,337.29L545.6,337.16L546.46,336.26L548.17,337.03L549.03,336L550.74,334.57L551.6,335.22L553.32,334.7L554.18,335.74L555.89,336.65L556.75,335.87L559.32,337.29L560.18,336.65L561.9,336.65L562.75,334.7L563.61,337.29L564.47,336.26L565.33,336.39L566.19,334.96L567.04,334.96L567.9,334.05L568.76,334.7L569.62,334.18L570.48,332.76L571.33,334.18L573.05,335.61L573.91,334.44L574.76,333.67L575.62,334.83L576.48,334.18L577.34,334.7L578.2,335.48L579.05,335.22L580.77,335.61L581.63,335.87L583.34,334.44L584.2,335.35L585.06,333.41L585.92,334.18L586.77,334.96L587.63,334.44L588.49,334.18L589.35,334.83L591.06,335.22L591.92,337.03L594.5,334.7L595.35,335.61L597.07,336.77L597.93,336L600.5,336.77L601.36,336.77L603.07,336.39L603.93,335.61L605.65,336.13L606.51,335.87L607.36,335.22L608.22,335.61L609.08,337.16L609.94,336.65L612.51,335.09L613.37,335.61L615.94,335.48L616.8,334.57L618.52,334.31L619.37,334.83L621.09,335.22L621.95,336.39L623.66,335.48L624.52,335.74L625.38,335.35L626.24,336.39L627.09,333.8L627.95,335.09L629.67,336.9L630.53,336.39L631.38,336.52L632.24,335.87L633.1,336.26L633.96,334.83L635.67,336L636.53,335.09L637.39,336.39L638.25,335.48L639.96,333.92L640.82,335.74L641.68,336.26L642.54,335.87L643.39,336.77L644.25,336L645.11,333.92L645.97,334.44L646.82,334.31L647.68,335.35L648.54,334.83L649.4,336.13L650.26,336.52L651.11,334.05L651.97,334.18L652.83,335.35L654.55,338.33L655.4,336.77L658.83,337.94L659.69,337.42L661.41,336.52L662.27,336.13L663.98,335.87L664.84,334.83L666.56,336.9L667.41,335.22L669.13,335.22L669.99,333.54L670.84,332.76L671.7,334.83L672.56,336.52L673.42,336.26L674.28,337.68L675.13,337.16L677.71,334.57L678.57,335.09L681.14,338.59L682,338.46L683.71,337.03L684.57,336.26L685.43,336.26L686.29,337.16L688,333.28L688.86,332.63L689.72,333.67L690.58,333.15L692.29,333.54L693.15,335.87L694.01,334.7L694.86,335.61L696.58,336.13L697.44,336.9L698.3,335.87L699.15,337.03L700.01,335.61L700.87,336L701.73,334.44L702.59,335.74L705.16,336.65L706.02,335.09L706.87,336.77L707.73,336.65L710.31,336L711.16,336.65L713.74,334.7L714.6,333.67L716.31,336.52L717.17,336.9L718.03,336.26L718.88,336.77L720.6,335.22L721.46,336.26L722.32,334.96L723.17,337.68L726.61,337.16L727.46,336L728.32,336.13L729.18,334.18L730.89,336.77L731.75,334.83L732.61,335.87L733.47,335.48L734.33,335.09L735.18,336L736.9,337.03L737.76,336.65L740.33,337.03L741.19,335.48L742.05,334.83L742.9,336.52L744.62,337.16L745.48,335.22L746.34,335.61L747.19,334.57L750.63,334.18L751.48,335.22L752.34,335.35L753.2,336.39L754.06,336.77L754.91,338.07L756.63,338.07L757.49,337.55L758.35,337.55L759.2,336L760.92,335.61L761.78,335.61L762.64,336.39L763.49,335.22L764.35,335.61L765.21,335.09L766.92,335.48L767.78,337.94L770.36,335.74L771.21,336.13L773.79,337.81L774.65,337.03L775.5,335.74L776.36,336.52L778.08,337.94L778.93,336.77L780.65,337.55L781.51,337.55L784.94,335.48L785.8,334.05L786.66,334.44L787.51,335.74L788.37,337.42L789.23,337.42L790.09,338.46L790.94,337.55L791.8,337.81L792.66,336.65L793.52,338.07L794.38,335.74L798.67,336.26L799.52,336L800.38,333.8L801.24,334.83L803.81,336.13L804.67,337.42L808.1,335.48L808.96,336.52L809.82,337.94L810.68,336.77L812.39,335.22L813.25,336.13L814.11,334.44L814.96,335.87L815.82,333.92L816.68,334.44L818.4,336.26L819.25,335.48L820.97,336L821.83,335.48L822.69,336.39L823.54,336.13L824.4,335.22L825.26,336L826.97,335.22L827.83,335.09L828.69,334.96L829.55,336.65L830.41,337.42L831.26,336.13L833.84,336.77L834.7,335.74L835.55,335.87L836.41,335.09L837.27,337.03L838.13,336L838.98,336.13L839.84,335.48L840.7,334.96L841.56,335.61L842.42,336.13L843.27,334.44L845.85,335.87L846.71,335.61L848.42,335.09L849.28,335.48L850.99,335.22L851.85,336.77L852.71,335.61L853.57,336.26L856.14,337.03L857,335.74" style="vector-effect: non-scaling-stroke; fill: none; stroke: rgb(171, 99, 250); stroke-opacity: 1; stroke-width: 2px; opacity: 1;"/></g><g class="points"/><g class="text"/></g><g class="trace scatter tracef2637e" style="stroke-miterlimit: 2; opacity: 1;"><g class="fills"/><g class="errorbars"/><g class="lines"><path class="js-line" d="M0,181.18L2.57,175.48L3.43,176.39L5.15,173.41L6.01,173.28L7.72,168.49L8.58,167.06L10.29,162.01L11.15,161.62L12.01,160.2L12.87,161.23L14.58,164.86L15.44,163.18L16.3,163.05L17.16,160.84L18.87,153.98L19.73,155.66L21.45,151.52L22.3,150.35L23.16,150.48L24.02,145.69L24.88,143.87L25.74,144.91L26.59,141.28L27.45,142.71L28.31,142.32L29.17,143.36L30.88,141.15L31.74,142.06L32.6,141.28L33.46,143.1L36.89,136.49L37.75,137.01L39.46,129.49L40.32,132.47L42.04,127.68L42.89,129.88L43.75,128.98L44.61,130.66L46.32,123.53L47.18,124.18L48.04,123.79L48.9,124.83L50.61,125.35L51.47,124.44L52.33,125.61L53.19,120.81L54.05,120.42L54.9,119L55.76,123.02L56.62,121.98L57.48,123.15L58.33,120.81L60.05,119.52L60.91,120.17L61.77,119.78L62.62,123.02L64.34,117.83L65.2,119.13L66.06,116.15L66.91,119.13L70.34,118.22L71.2,118.74L72.06,118.22L72.92,119.52L73.78,120.17L74.63,115.37L75.49,113.56L76.35,116.67L77.21,116.54L78.07,114.34L79.78,111.74L80.64,115.11L81.5,113.17L82.35,109.15L83.21,106.69L84.07,110.97L84.93,113.56L85.79,112.39L86.64,112.65L87.5,114.21L88.36,115.24L89.22,112.65L90.93,116.67L91.79,116.67L94.36,114.98L95.22,114.21L96.08,116.54L96.94,116.54L97.8,118.09L98.65,117.19L100.37,117.32L101.23,117.45L102.09,116.15L102.94,116.41L106.37,116.93L107.23,114.08L109.81,112.52L110.66,114.98L112.38,109.02L113.24,108.12L114.95,112L115.81,110.32L116.67,111.1L117.53,113.56L118.38,113.43L119.24,112.39L121.82,105.66L122.67,106.82L124.39,100.73L125.25,100.99L126.96,104.49L127.82,103.58L128.68,106.95L129.54,103.19L130.39,104.49L131.25,104.23L132.11,102.16L132.97,102.29L133.83,103.19L134.68,102.94L135.54,99.96L136.4,100.73L137.26,100.09L138.12,101.38L138.97,100.21L139.83,97.24L140.69,97.88L141.55,99.57L142.4,99.18L143.26,93.61L145.84,87.13L146.69,87.26L149.27,84.41L150.13,85.32L151.84,81.69L152.7,81.95L154.41,81.69L155.27,83.63L156.13,82.6L156.99,83.37L157.85,82.6L158.7,85.45L159.56,83.37L160.42,84.8L161.28,84.54L162.14,81.17L162.99,81.3L163.85,80L166.42,85.58L167.28,83.76L168.14,78.84L169,78.32L169.86,79.75L170.71,77.41L172.43,77.41L173.29,75.99L174.15,75.08L175,75.6L175.86,73.01L176.72,75.08L177.58,77.54L178.43,76.38L180.15,71.32L181.01,70.55L181.87,69.51L182.72,70.42L183.58,71.45L184.44,68.86L186.16,66.01L187.01,67.05L187.87,64.2L188.73,67.96L190.44,69.25L191.3,69.64L193.02,66.27L193.88,66.14L194.73,67.96L195.59,66.66L198.17,62.65L199.02,61.74L199.88,61.61L200.74,63.29L202.45,64.72L203.31,62.65L204.17,61.87L205.03,64.33L205.89,62.26L206.74,62.77L208.46,62.52L209.32,63.94L210.18,64.59L211.03,67.05L211.89,67.7L212.75,65.62L215.32,64.85L216.18,63.55L217.04,62.39L217.9,62.65L218.75,62.39L219.61,64.2L220.47,65.62L221.33,63.42L222.19,61.74L223.04,64.46L224.76,61.35L225.62,64.98L228.19,61.22L229.05,61.35L229.91,60.57L230.76,61.35L232.48,61.61L233.34,58.63L234.2,60.18L235.05,57.85L235.91,59.41L236.77,58.37L238.48,59.41L239.34,57.85L240.2,58.24L241.06,57.07L241.92,56.04L242.77,53.45L244.49,54.35L245.35,56.69L246.21,58.89L247.06,55.39L247.92,55.65L248.78,58.37L249.64,58.63L250.49,60.18L251.35,61.74L252.21,58.63L253.93,62L254.78,58.5L258.22,67.31L259.07,66.53L259.93,66.14L260.79,63.03L261.65,59.54L262.5,59.41L263.36,56.94L264.22,57.59L266.79,60.96L267.65,59.67L268.51,62.39L269.37,61.87L271.94,57.46L272.8,56.82L273.66,61.48L274.51,57.07L276.23,56.94L277.09,57.85L277.95,57.59L278.8,55.91L279.66,55.52L280.52,53.71L281.38,54.09L282.24,50.86L283.09,51.5L283.95,48.14L284.81,49.43L285.67,47.49L287.38,47.88L288.24,44.12L289.1,43.6L289.96,44.77L290.81,44.12L291.67,44.64L292.53,47.23L293.39,45.16L295.1,41.01L295.96,42.31L297.68,39.46L298.53,42.44L299.39,42.18L300.25,43.21L301.11,43.6L301.97,41.14L302.82,42.69L303.68,42.69L304.54,40.1L305.4,41.79L307.11,41.01L307.97,43.08L308.83,42.95L309.69,43.86L310.54,41.92L311.4,43.99L313.12,41.4L313.98,42.82L314.83,41.14L315.69,42.18L317.41,41.79L318.27,43.34L320.84,46.06L321.7,42.05L323.41,42.05L324.27,41.01L325.99,42.69L326.84,42.56L327.7,42.69L328.56,41.53L329.42,38.68L330.28,39.46L331.13,37.38L331.99,37.64L332.85,36.61L333.71,37.51L335.42,35.96L336.28,34.27L337.14,35.18L338,37.64L338.85,39.2L339.71,39.2L340.57,40.62L341.43,39.46L342.29,38.68L343.14,42.56L344.86,37.12L345.72,35.57L346.57,37.51L347.43,35.44L349.15,35.7L350.01,37.64L350.86,39.71L351.72,39.71L353.44,37.51L354.3,37.9L356.87,42.56L357.73,42.44L358.58,43.21L359.44,42.05L360.3,42.56L361.16,44.51L362.87,41.53L363.73,38.55L364.59,39.46L365.45,38.16L366.31,41.14L367.16,41.01L368.02,41.66L368.88,40.62L369.74,40.88L370.59,38.16L371.45,41.53L372.31,41.66L373.17,43.86L374.03,42.69L374.88,39.07L375.74,39.46L376.6,39.84L377.46,38.42L378.32,42.44L379.17,41.53L380.89,39.71L381.75,41.01L384.32,39.46L385.18,37.64L386.04,38.16L386.89,40.23L387.75,40.62L388.61,39.84L390.33,39.59L391.18,39.59L392.9,39.2L393.76,40.75L395.47,44.38L396.33,39.33L397.19,38.16L398.05,38.29L398.9,39.97L399.76,37.77L401.48,34.53L402.34,36.73L403.19,37.51L404.05,35.96L404.91,35.05L405.77,35.96L406.62,34.66L407.48,35.05L408.34,33.63L409.2,33.76L410.06,33.76L410.91,31.16L411.77,33.11L412.63,31.03L413.49,31.16L414.35,32.46L415.2,32.46L416.06,31.42L418.63,29.74L419.49,29.61L420.35,28.83L421.21,29.74L422.07,26.5L422.92,27.02L423.78,27.02L424.64,28.57L426.36,31.29L427.21,32.33L428.93,30.26L429.79,30.39L433.22,28.83L434.08,26.63L434.93,24.43L435.79,24.43L436.65,27.41L437.51,27.15L439.22,26.11L440.08,27.41L440.94,29.22L441.8,27.15L442.65,27.67L443.51,29.48L445.23,30.78L446.09,31.68L446.94,29.48L447.8,32.46L449.52,30.39L450.38,30.91L453.81,34.27L454.66,32.46L455.52,31.68L456.38,29.35L457.24,29.61L458.1,28.44L458.95,31.42L459.81,28.7L460.67,31.81L461.53,29.48L463.24,31.68L464.1,31.94L466.67,28.31L467.53,27.67L468.39,26.76L469.25,27.41L470.11,28.44L470.96,26.37L471.82,24.82L472.68,25.2L473.54,26.11L474.4,28.18L476.97,24.56L477.83,26.37L479.54,26.11L480.4,28.57L481.26,29.48L482.12,27.93L484.69,26.37L485.55,25.46L487.26,29.48L488.12,28.05L489.84,26.89L490.69,24.3L491.55,26.5L492.41,25.98L494.98,25.33L495.84,26.5L498.42,31.55L499.27,31.16L500.13,32.33L500.99,31.16L501.85,28.7L502.7,29.48L505.28,28.05L506.14,29.35L506.99,29.09L507.85,30.39L509.57,32.59L510.43,33.11L513,26.89L513.86,26.37L514.71,27.28L515.57,26.37L516.43,25.59L517.29,27.93L518.15,28.83L519,28.05L520.72,28.57L521.58,28.31L522.44,27.8L523.29,24.56L524.15,24.17L525.01,25.72L525.87,25.2L526.72,27.02L527.58,27.02L528.44,24.82L529.3,26.89L530.16,25.59L531.01,28.31L531.87,27.67L532.73,27.67L533.59,29.74L534.45,28.7L535.3,31.42L536.16,28.05L537.02,28.31L539.59,31.03L540.45,29.87L541.31,28.57L542.17,29.09L543.88,31.55L544.74,32.98L545.6,34.01L546.46,31.29L547.31,32.59L548.17,31.42L549.03,27.8L549.89,28.7L552.46,32.98L553.32,30.26L554.18,30.13L555.03,29.09L555.89,27.67L556.75,28.18L557.61,30.39L558.47,28.96L559.32,30.91L560.18,30.13L561.04,30L561.9,28.96L562.75,27.8L563.61,28.05L564.47,26.37L565.33,27.67L566.19,26.76L567.04,27.02L567.9,29.09L568.76,28.83L569.62,31.29L570.48,29.22L572.19,30.65L573.05,31.29L573.91,28.05L574.76,28.96L575.62,28.31L576.48,29.61L579.91,25.98L580.77,26.89L581.63,30.52L582.49,30.26L583.34,28.83L584.2,30.26L587.63,26.5L588.49,26.89L590.21,27.41L591.06,28.05L591.92,26.63L592.78,27.15L593.64,31.68L594.5,31.55L595.35,29.09L596.21,30.52L597.93,27.41L598.78,29.48L599.64,30L600.5,27.67L601.36,28.57L602.22,27.28L603.93,29.74L604.79,27.8L606.51,28.18L607.36,30.91L608.22,32.46L609.08,31.55L610.79,31.55L611.65,29.48L613.37,31.03L614.23,30.26L615.08,27.54L615.94,27.54L616.8,28.05L617.66,27.15L618.52,26.37L619.37,28.7L620.23,30.52L621.09,29.35L624.52,27.67L625.38,25.33L626.24,26.24L627.09,28.7L628.81,28.18L629.67,29.09L630.53,29.22L631.38,25.08L632.24,26.76L633.1,25.59L634.81,25.98L635.67,28.83L636.53,30.13L637.39,28.83L638.25,30.13L639.1,28.83L641.68,28.83L642.54,28.31L643.39,26.89L644.25,23.39L645.11,23.39L645.97,26.37L648.54,29.74L649.4,27.41L651.97,29.09L652.83,29.09L653.69,29.09L654.55,30.26L655.4,30.52L656.26,29.87L657.12,29.87L657.98,27.8L658.83,31.81L659.69,29.35L660.55,27.67L661.41,29.22L662.27,28.18L663.12,29.22L663.98,28.96L664.84,30.26L666.56,25.72L667.41,26.24L669.13,27.15L669.99,24.82L670.84,24.95L671.7,26.89L673.42,28.57L674.28,26.89L675.13,28.18L675.99,27.54L677.71,29.87L678.57,27.15L680.28,30L681.14,30.39L682,27.54L682.85,27.93L683.71,28.18L684.57,29.35L685.43,28.44L686.29,28.7L687.14,28.31L688,30.91L689.72,28.57L690.58,30.78L691.43,32.07L692.29,30.52L693.15,31.94L694.01,29.61L695.72,27.02L696.58,27.02L697.44,28.7L698.3,28.44L699.15,30.26L700.01,27.93L701.73,26.5L702.59,27.93L704.3,29.22L705.16,28.7L706.02,28.7L706.87,27.41L709.45,31.29L710.31,30.65L711.16,31.55L712.02,31.03L713.74,29.35L714.6,27.28L715.45,26.63L716.31,24.69L717.17,27.15L718.03,27.28L719.74,25.72L720.6,26.89L722.32,26.37L723.17,25.98L724.89,28.05L725.75,25.98L726.61,27.8L727.46,27.15L728.32,26.89L729.18,27.67L732.61,29.35L733.47,32.2L734.33,31.29L735.18,31.94L736.04,29.61L736.9,30.78L737.76,30.13L738.62,30.78L739.47,31.68L740.33,34.53L741.19,34.14L742.05,34.92L742.9,32.85L743.76,35.05L746.34,32.33L747.19,33.63L748.05,30.52L748.91,31.16L749.77,28.57L750.63,29.35L751.48,30.13L752.34,33.11L753.2,30.39L754.06,30.39L754.91,30L755.77,28.18L756.63,29.48L757.49,29.35L758.35,30.39L759.2,29.87L760.92,32.46L761.78,35.7L766.07,30.91L766.92,30.26L767.78,27.02L768.64,28.05L769.5,28.31L770.36,27.67L772.07,30.91L772.93,29.87L773.79,30.52L774.65,29.61L775.5,29.61L776.36,28.05L777.22,27.54L778.08,28.57L782.37,25.72L783.22,26.37L784.08,28.96L784.94,28.44L785.8,30.39L786.66,30L787.51,30.52L788.37,28.31L789.23,26.24L790.09,28.57L790.94,30.78L791.8,30.52L792.66,29.87L793.52,30.91L795.23,29.61L796.09,30.52L797.81,32.72L798.67,32.98L799.52,30.65L800.38,32.33L802.1,29.09L802.95,29.22L803.81,29.74L804.67,29.35L806.39,31.29L807.24,31.42L808.96,30.78L809.82,29.09L810.68,27.41L811.53,27.67L813.25,28.31L814.11,25.08L814.96,24.3L815.82,25.46L816.68,27.67L817.54,27.02L818.4,28.57L819.25,31.81L820.97,33.5L821.83,33.11L823.54,26.89L824.4,28.44L825.26,27.54L826.12,25.2L826.97,25.2L827.83,28.05L828.69,29.09L829.55,28.44L830.41,27.02L831.26,28.31L832.12,28.18L832.98,28.96L835.55,27.02L836.41,28.83L837.27,27.93L838.13,28.57L838.98,29.09L839.84,30.52L840.7,32.07L841.56,31.94L842.42,28.83L843.27,29.22L844.99,28.05L845.85,29.09L846.71,27.54L847.56,29.74L849.28,26.24L850.14,28.18L851.85,27.8L852.71,28.31L854.43,28.83L855.28,30.26L857,28.7" style="vector-effect: non-scaling-stroke; fill: none; stroke: rgb(255, 161, 90); stroke-opacity: 1; stroke-width: 2px; opacity: 1;"/></g><g class="points"/><g class="text"/></g><g class="trace scatter tracea310c5" style="stroke-miterlimit: 2; opacity: 1;"><g class="fills"/><g class="errorbars"/><g class="lines"><path class="js-line" d="M0,177.3L0.86,177.43L1.72,178.33L2.57,179.5L3.43,188.96L5.15,192.71L6.01,191.16L9.44,216.03L10.29,215.9L11.15,215L12.01,218.62L12.87,218.88L13.73,217.85L14.58,221.47L15.44,220.18L17.16,219.53L18.02,220.18L20.59,225.23L21.45,224.97L22.3,224.84L23.16,216.03L25.74,224.58L26.59,220.7L28.31,226.01L29.17,224.07L30.88,221.99L31.74,227.95L32.6,225.75L33.46,226.53L34.31,225.88L35.17,227.3L36.03,226.66L36.89,221.6L38.6,220.18L39.46,224.07L40.32,218.88L41.18,222.77L43.75,230.15L44.61,230.41L45.47,225.23L46.32,226.14L47.18,226.01L48.04,227.3L49.76,230.41L50.61,235.21L51.47,235.21L52.33,236.37L54.9,245.57L55.76,246.35L56.62,247.26L57.48,249.59L58.33,252.83L59.19,248.03L60.05,244.92L60.91,245.57L61.77,246.22L62.62,239.61L63.48,244.53L64.34,241.68L65.2,242.59L66.06,241.94L66.91,240.78L67.77,244.15L70.34,246.61L71.2,250.75L72.06,253.47L72.92,253.47L73.78,251.27L74.63,254.38L75.49,256.71L76.35,255.81L77.21,257.36L78.07,253.47L78.92,255.03L79.78,253.6L80.64,252.7L81.5,253.73L82.35,253.99L83.21,259.17L84.07,256.58L84.93,257.62L85.79,257.36L86.64,255.94L88.36,261.25L89.22,256.71L90.93,254.51L91.79,256.71L92.65,256.06L93.51,259.56L94.36,257.1L95.22,259.3L96.94,255.42L97.8,257.23L99.51,254.77L100.37,259.43L101.23,257.88L102.09,257.88L103.8,259.56L104.66,257.36L106.37,263.71L107.23,263.32L109.81,270.96L110.66,267.21L113.24,269.8L114.1,273.04L114.95,271.48L115.81,276.92L117.53,278.09L118.38,276.27L120.1,279.9L120.96,279L121.82,280.03L122.67,278.87L123.53,274.85L124.39,281.72L125.25,276.92L126.11,279.77L126.96,282.88L127.82,289.1L128.68,283.79L129.54,285.6L130.39,286.51L131.25,283.27L132.11,285.99L132.97,285.21L133.83,284.44L134.68,289.49L135.54,289.1L136.4,282.23L138.12,287.03L138.97,287.42L140.69,284.7L141.55,286.12L143.26,290.27L144.12,290.65L144.98,291.43L145.84,290.91L146.69,294.67L147.55,294.28L149.27,298.95L150.13,294.41L150.98,289.36L151.84,289.23L153.56,287.93L154.41,285.08L155.27,286.38L156.13,289.23L156.99,289.49L157.85,291.17L158.7,293.38L159.56,290.78L160.42,291.43L161.28,289.36L162.99,287.29L163.85,288.45L164.71,287.29L165.57,283.79L166.42,281.07L167.28,286.12L169,295.84L169.86,292.6L170.71,292.47L171.57,293.38L172.43,288.97L173.29,291.82L174.15,292.47L175,294.67L175.86,293.38L176.72,294.02L177.58,292.73L178.43,294.02L179.29,294.28L180.15,296.23L181.87,299.46L182.72,298.82L183.58,299.98L184.44,299.33L187.01,291.17L187.87,291.04L188.73,292.21L189.59,291.82L191.3,291.69L192.16,291.04L195.59,296.74L196.45,296.35L199.02,301.28L199.88,298.43L200.74,299.59L201.6,297.13L202.45,291.43L203.31,291.04L204.17,288.19L205.03,288.06L205.89,289.1L206.74,288.32L207.6,284.82L208.46,285.34L209.32,283.4L210.18,284.18L212.75,285.86L213.61,287.16L214.46,285.34L215.32,287.55L216.18,288.97L217.04,288.06L217.9,294.8L218.75,289.36L219.61,287.93L220.47,290.53L222.19,293.89L223.04,298.69L223.9,299.21L224.76,297.13L225.62,290.53L226.47,291.56L227.33,297.65L228.19,298.17L229.05,296.35L229.91,296.35L231.62,295.97L232.48,300.24L234.2,299.85L235.05,304.91L236.77,309.7L237.63,306.98L238.48,310.48L239.34,305.29L240.2,302.44L241.06,305.81L242.77,308.92L243.63,308.66L245.35,309.31L246.21,311.12L247.06,309.57L247.92,310.35L249.64,307.76L250.49,304.26L252.21,309.18L253.07,309.05L255.64,316.05L256.5,315.14L258.22,316.05L259.07,315.79L260.79,320.71L261.65,317.34L263.36,317.73L264.22,314.75L265.08,316.18L265.94,315.14L266.79,313.97L267.65,315.14L269.37,318.25L270.23,313.59L271.94,318.25L272.8,315.79L273.66,318.51L274.51,317.73L275.37,317.34L276.23,320.32L277.09,321.62L277.95,318.77L278.8,318.25L279.66,312.16L281.38,315.53L282.24,317.08L283.95,315.79L284.81,316.56L285.67,319.03L286.52,317.34L287.38,317.86L288.24,314.49L289.96,312.16L290.81,316.05L292.53,317.34L293.39,316.31L294.25,317.99L295.1,317.99L296.82,316.56L297.68,318.38L298.53,319.54L299.39,316.69L300.25,316.05L301.11,316.56L301.97,318.25L302.82,315.4L303.68,314.88L304.54,312.16L307.11,313.46L307.97,308.27L308.83,310.61L309.69,307.88L310.54,311.12L311.4,308.66L313.12,311.38L313.98,310.99L314.83,311.25L315.69,314.62L316.55,312.29L317.41,313.59L319.98,318.38L320.84,316.05L321.7,317.47L322.55,315.4L323.41,315.92L324.27,318.51L325.13,316.69L325.99,318.64L327.7,314.62L328.56,316.31L329.42,314.49L330.28,315.66L331.13,316.95L331.99,312.94L332.85,311.77L333.71,314.23L334.56,316.05L335.42,314.88L336.28,312.29L337.14,313.33L338,316.05L338.85,314.36L339.71,312.94L340.57,316.05L341.43,319.29L342.29,316.56L343.14,314.88L344,318.64L344.86,316.95L345.72,320.45L346.57,317.99L347.43,318.9L348.29,319.67L349.15,322.14L351.72,316.44L352.58,316.44L353.44,315.53L354.3,316.95L355.15,312.68L356.01,313.33L356.87,307.24L357.73,310.35L359.44,308.53L360.3,310.86L362.02,315.92L362.87,319.16L363.73,319.54L364.59,322.27L365.45,320.06L366.31,321.49L367.16,322.01L368.02,320.71L368.88,318.12L369.74,319.03L370.59,315.53L371.45,317.99L374.03,321.75L374.88,320.58L375.74,321.23L376.6,322.91L377.46,320.45L378.32,321.1L379.17,317.86L380.03,319.03L380.89,315.27L381.75,317.47L382.6,318.64L383.46,321.1L384.32,320.84L385.18,319.16L386.04,316.82L386.89,319.93L388.61,317.21L389.47,317.99L391.18,314.23L392.04,316.82L392.9,320.32L393.76,318.9L394.61,321.36L395.47,318.77L396.33,319.29L397.19,321.75L398.05,321.49L398.9,322.91L399.76,323.04L400.62,319.93L401.48,318.9L402.34,320.06L403.19,319.29L404.05,316.18L404.91,316.18L405.77,317.08L406.62,316.69L407.48,315.14L409.2,311.64L410.06,313.2L411.77,308.66L412.63,308.14L414.35,309.7L415.2,308.66L416.06,311.9L416.92,312.03L418.63,310.86L419.49,312.68L422.92,317.73L423.78,320.32L424.64,318.12L425.5,318.51L426.36,317.6L427.21,315.4L428.93,314.1L429.79,313.59L431.5,309.83L432.36,310.09L434.08,307.88L434.93,308.14L436.65,306.46L437.51,306.98L438.37,304.26L439.22,305.68L440.94,306.2L441.8,309.18L444.37,314.88L445.23,313.33L446.09,315.92L446.94,314.49L447.8,313.33L448.66,313.46L451.23,305.55L452.09,308.92L452.95,309.44L453.81,310.99L454.66,310.35L455.52,311.38L458.1,311.9L458.95,310.99L459.81,311.77L460.67,310.99L461.53,309.18L462.39,311.51L463.24,310.22L464.1,310.74L464.96,315.14L465.82,315.4L468.39,320.84L469.25,320.06L470.96,313.59L471.82,313.33L473.54,320.06L474.4,319.41L476.97,314.36L477.83,315.66L480.4,315.66L481.26,312.16L482.12,313.71L482.97,311.64L483.83,311.77L484.69,310.22L486.41,316.31L487.26,315.92L488.12,317.47L488.98,314.88L489.84,313.71L490.69,314.88L492.41,306.85L493.27,307.37L494.98,307.5L495.84,309.7L496.7,311.38L497.56,311.25L499.27,311.64L500.13,310.35L500.99,309.18L501.85,310.35L502.7,309.96L503.56,312.16L507.85,310.48L508.71,307.88L509.57,309.57L510.43,309.57L511.28,306.07L512.14,308.66L513,310.35L513.86,309.18L514.71,309.83L515.57,313.59L516.43,312.03L517.29,313.84L518.15,313.07L519,315.53L519.86,316.95L520.72,315.01L522.44,310.74L523.29,311.9L525.87,303.35L526.72,304.78L527.58,305.81L528.44,304.13L529.3,301.54L530.16,301.54L531.01,302.44L531.87,306.2L532.73,306.59L533.59,304.78L534.45,301.93L535.3,303.22L536.16,306.98L537.02,305.42L537.88,305.29L538.73,306.85L539.59,306.72L540.45,310.86L542.17,311.51L543.02,310.22L543.88,309.18L544.74,310.22L545.6,312.42L546.46,310.74L547.31,313.33L548.17,311.77L549.03,309.31L549.89,312.42L550.74,308.27L551.6,309.7L552.46,309.96L553.32,311.64L555.03,319.41L555.89,315.79L556.75,314.49L557.61,316.44L558.47,315.92L559.32,314.36L560.18,315.27L561.04,319.16L563.61,322.52L564.47,322.14L565.33,320.84L566.19,322.65L567.04,321.23L567.9,317.86L570.48,324.99L571.33,324.21L573.05,322.01L573.91,323.04L575.62,319.41L576.48,320.06L577.34,319.03L578.2,322.39L579.05,320.71L579.91,322.14L583.34,324.47L584.2,323.56L585.92,321.88L586.77,317.6L587.63,316.18L588.49,316.82L589.35,317.47L590.21,315.14L591.06,315.53L591.92,314.36L592.78,316.05L593.64,314.62L594.5,315.79L595.35,310.48L597.07,314.36L597.93,310.48L598.78,310.48L599.64,313.2L601.36,311.51L602.22,312.55L603.07,311.12L603.93,312.29L606.51,306.2L607.36,308.27L608.22,311.64L609.08,311.64L609.94,310.74L610.79,311.25L611.65,312.68L612.51,308.4L613.37,313.2L614.23,310.99L615.08,310.99L615.94,311.77L618.52,316.18L619.37,317.21L620.23,319.93L621.09,319.29L622.8,319.67L623.66,319.03L626.24,313.33L627.09,314.62L628.81,316.82L629.67,315.4L630.53,316.56L631.38,315.53L632.24,313.46L633.1,315.14L635.67,313.71L636.53,315.79L637.39,315.01L638.25,310.74L639.1,310.48L639.96,311.12L641.68,313.97L642.54,314.1L644.25,317.6L645.11,312.94L645.97,316.31L646.82,314.23L647.68,316.82L648.54,315.53L650.26,315.66L651.11,319.93L651.97,320.58L652.83,316.69L653.69,314.88L654.55,317.73L655.4,317.34L656.26,313.59L657.12,311.64L657.98,312.55L661.41,319.03L662.27,317.21L663.12,319.29L663.98,317.47L666.56,319.54L667.41,316.82L668.27,315.92L669.13,313.71L669.99,313.07L670.84,308.53L672.56,308.4L673.42,309.83L675.13,311.64L675.99,310.35L679.42,305.81L680.28,308.01L682,309.7L682.85,308.92L683.71,309.05L684.57,311.64L686.29,307.63L687.14,310.61L688.86,307.63L689.72,309.83L690.58,306.46L691.43,306.59L692.29,306.59L693.15,305.68L694.86,309.18L695.72,305.94L696.58,305.81L697.44,302.96L698.3,303.74L699.15,303.35L700.01,299.33L700.87,301.93L701.73,298.56L702.59,301.02L704.3,305.42L705.16,304L706.87,308.92L707.73,308.14L708.59,307.24L709.45,310.48L711.16,315.14L712.02,314.62L712.88,312.16L713.74,314.49L714.6,315.53L715.45,314.23L717.17,320.19L718.03,320.71L719.74,319.67L720.6,318.77L722.32,311.25L723.17,312.55L724.03,312.81L724.89,311.51L725.75,311.64L726.61,310.86L727.46,308.66L728.32,308.53L729.18,310.22L730.04,309.31L731.75,310.86L732.61,311.77L733.47,311.77L734.33,308.27L736.04,307.5L736.9,304.13L737.76,304.26L738.62,305.29L739.47,303.74L740.33,305.03L741.19,307.24L742.05,311.77L742.9,311.51L743.76,306.33L744.62,306.2L745.48,304.78L746.34,303.61L747.19,304.91L748.05,304.65L748.91,303.35L749.77,299.59L750.63,302.44L751.48,300.24L752.34,304.52L753.2,306.59L754.06,301.8L754.91,301.41L755.77,305.29L756.63,304.91L757.49,306.98L758.35,307.24L759.2,303.74L760.06,304.65L760.92,303.09L763.49,298.82L764.35,301.93L766.07,295.45L766.92,296.74L768.64,295.45L769.5,297.91L770.36,295.45L771.21,298.17L772.07,299.21L772.93,305.03L774.65,308.92L775.5,306.59L777.22,303.09L778.08,309.57L779.79,306.85L780.65,303.74L781.51,307.63L782.37,306.33L783.22,306.59L784.08,303.22L785.8,310.35L786.66,307.37L788.37,313.33L789.23,313.46L790.09,313.97L790.94,311.77L791.8,310.74L792.66,308.27L793.52,309.31L794.38,312.42L795.23,309.83L796.09,312.03L796.95,312.55L797.81,316.31L798.67,315.53L799.52,312.68L800.38,312.81L801.24,309.57L802.95,307.63L803.81,306.98L805.53,304.39L806.39,304.91L807.24,308.01L808.1,306.59L809.82,302.7L810.68,303.61L811.53,305.81L812.39,305.94L813.25,303.48L814.11,306.85L814.96,312.29L815.82,312.42L816.68,307.5L817.54,308.4L818.4,306.72L819.25,309.18L820.11,314.36L820.97,309.96L822.69,314.49L823.54,313.71L824.4,316.05L825.26,313.33L826.97,315.79L827.83,316.69L828.69,319.41L829.55,317.73L830.41,317.86L831.26,317.21L832.12,319.03L832.98,317.6L833.84,317.08L834.7,315.14L835.55,319.67L836.41,319.41L838.13,321.75L838.98,320.06L840.7,317.21L841.56,319.8L842.42,318.51L843.27,319.29L844.13,319.8L844.99,318.25L845.85,319.16L846.71,323.3L848.42,324.86L849.28,324.34L850.99,317.34L851.85,314.49L852.71,315.92L853.57,315.79L854.43,317.08L855.28,320.58L856.14,319.29L857,322.01" style="vector-effect: non-scaling-stroke; fill: none; stroke: rgb(25, 211, 243); stroke-opacity: 1; stroke-width: 2px; opacity: 1;"/></g><g class="points"/><g class="text"/></g><g class="trace scatter trace74fc94" style="stroke-miterlimit: 2; opacity: 1;"><g class="fills"/><g class="errorbars"/><g class="lines"><path class="js-line" d="M0,181.05L1.72,190.25L2.57,189.22L3.43,188.31L4.29,190.64L6.01,180.28L6.86,177.56L7.72,177.43L8.58,178.46L9.44,176.65L10.29,180.54L12.01,184.94L12.87,188.7L13.73,190.38L14.58,190.25L15.44,191.42L16.3,190.25L18.02,195.18L18.87,191.55L19.73,191.16L20.59,192.33L21.45,190.38L22.3,191.16L23.16,192.07L24.02,190.38L24.88,187.66L25.74,189.99L26.59,190.64L27.45,192.58L28.31,191.81L29.17,192.2L30.03,188.05L30.88,188.31L32.6,185.59L33.46,187.53L35.17,185.46L36.03,184.81L36.89,186.11L37.75,185.85L38.6,182.74L39.46,186.63L40.32,189.09L41.18,186.11L42.04,186.24L42.89,185.46L43.75,185.46L44.61,180.93L45.47,182.22L46.32,177.3L47.18,182.61L48.04,183L48.9,182.74L49.76,183.9L50.61,184.42L51.47,176.65L53.19,171.21L54.05,171.73L54.9,173.15L55.76,172.89L56.62,171.08L57.48,176.13L60.05,169.52L60.91,169.01L62.62,168.23L63.48,164.21L64.34,168.88L65.2,164.6L68.63,166.8L69.49,170.95L70.34,172.25L71.2,171.86L72.06,175.22L72.92,173.28L73.78,173.67L74.63,170.3L76.35,170.43L77.21,175.1L78.07,175.48L78.92,170.56L80.64,167.19L81.5,169.4L82.35,169.01L83.21,170.82L84.07,173.8L84.93,173.67L85.79,177.04L86.64,175.1L87.5,172.76L88.36,175.74L89.22,178.59L90.08,177.95L92.65,187.53L93.51,184.55L95.22,183L96.08,179.37L96.94,176.13L97.8,179.24L99.51,183.65L100.37,181.7L102.09,184.29L102.94,181.57L103.8,180.67L104.66,183.26L105.52,182.74L106.37,184.16L108.09,183.26L108.95,179.5L109.81,180.41L110.66,178.2L111.52,175.1L112.38,175.74L113.24,177.17L114.1,176.52L114.95,178.85L115.81,178.46L116.67,179.24L117.53,178.85L118.38,180.28L119.24,176.91L120.1,175.1L120.96,177.04L121.82,177.69L122.67,179.63L124.39,179.24L125.25,181.05L126.11,178.07L126.96,179.89L128.68,180.93L129.54,184.81L130.39,186.5L131.25,185.59L133.83,191.68L134.68,192.97L137.26,195.82L138.12,195.56L139.83,198.28L140.69,198.03L141.55,196.6L142.4,201.26L144.12,200.88L144.98,205.67L145.84,208.78L146.69,208.91L147.55,208.91L148.41,213.44L150.98,215.64L151.84,217.33L152.7,215.77L153.56,220.7L154.41,220.44L155.27,217.2L158.7,217.98L159.56,216.68L160.42,217.98L161.28,213.05L162.14,208.65L162.99,208.39L164.71,211.63L165.57,209.17L168.14,205.54L169,206.45L169.86,209.56L170.71,209.04L172.43,202.82L173.29,204.24L174.15,203.86L175,208.91L175.86,207.09L176.72,209.04L177.58,206.96L178.43,208.39L179.29,205.93L180.15,209.43L181.87,208.26L182.72,214.48L185.3,204.37L186.16,203.86L187.01,205.41L187.87,205.28L188.73,203.99L189.59,198.03L192.16,201.52L193.02,199.71L194.73,199.58L195.59,203.08L197.31,195.31L198.17,200.36L200.74,191.94L201.6,189.86L202.45,186.75L203.31,191.94L204.17,192.2L205.03,191.55L207.6,195.56L208.46,194.27L209.32,190.77L210.18,194.4L211.03,198.93L211.89,195.18L212.75,193.49L213.61,198.41L216.18,197.9L217.04,196.21L218.75,198.93L219.61,198.67L220.47,196.47L221.33,199.45L222.19,204.37L223.04,202.3L224.76,204.24L225.62,202.69L226.47,202.04L227.33,206.32L228.19,204.63L229.05,210.85L229.91,212.28L230.76,206.45L232.48,211.11L233.34,209.43L234.2,208.65L235.05,205.41L235.91,201.78L236.77,202.95L239.34,206.58L240.2,203.86L241.92,204.89L242.77,199.84L247.06,207.22L247.92,206.96L249.64,204.24L250.49,206.96L251.35,209.56L252.21,208.91L253.93,212.92L254.78,211.5L255.64,211.89L256.5,209.43L257.36,207.87L258.22,202.69L259.07,202.69L259.93,205.93L260.79,206.58L261.65,203.34L262.5,208.26L263.36,206.19L264.22,199.71L265.08,203.34L266.79,209.69L267.65,207.87L268.51,205.41L269.37,205.41L270.23,206.45L271.08,204.76L272.8,202.3L273.66,206.06L274.51,212.41L275.37,211.76L276.23,214.87L277.09,214.35L277.95,215.39L278.8,213.57L279.66,214.87L280.52,213.05L281.38,212.28L282.24,214.22L283.09,214.22L283.95,216.42L284.81,209.43L285.67,216.03L287.38,216.94L288.24,219.4L289.1,224.84L289.96,224.84L291.67,232.49L292.53,234.43L294.25,235.08L295.1,236.24L295.96,237.67L296.82,240.91L298.53,235.21L299.39,234.17L301.11,230.28L301.97,228.73L302.82,233.13L303.68,232.23L304.54,230.28L305.4,235.98L307.97,241.3L308.83,245.05L310.54,251.53L311.4,250.88L312.26,251.53L313.12,254.25L313.98,254.51L314.83,252.05L316.55,247.64L317.41,247L318.27,249.59L319.12,247.26L320.84,248.81L321.7,245.96L322.55,244.53L323.41,247.77L324.27,249.46L325.13,254.38L325.99,253.47L326.84,249.46L328.56,255.03L329.42,255.16L331.13,260.73L331.99,262.67L332.85,257.75L333.71,259.04L335.42,260.6L336.28,263.32L339.71,265L340.57,267.47L341.43,267.21L342.29,266.04L344,263.32L344.86,263.19L345.72,259.43L346.57,262.54L348.29,262.41L349.15,260.86L351.72,262.15L352.58,263.06L353.44,261.64L354.3,257.75L356.01,264.36L356.87,259.3L358.58,263.19L359.44,259.95L361.16,261.12L362.02,260.47L362.87,263.84L363.73,259.04L364.59,258.53L365.45,260.99L366.31,260.34L367.16,264.1L368.02,266.17L368.88,260.73L369.74,261.12L370.59,260.08L372.31,264.23L373.17,261.38L375.74,266.56L376.6,270.19L377.46,268.11L378.32,270.32L379.17,269.28L380.03,264.74L380.89,264.1L381.75,267.47L382.6,272.39L383.46,268.11L384.32,272.78L385.18,271.74L386.04,274.07L386.89,272.39L387.75,270.19L388.61,271.74L389.47,275.5L390.33,275.37L392.04,279.51L392.9,280.42L393.76,284.31L394.61,283.27L395.47,280.55L396.33,282.75L397.19,282.62L398.05,278.87L399.76,285.21L400.62,284.18L402.34,280.81L403.19,280.55L404.91,287.03L405.77,285.47L406.62,283.92L407.48,287.8L408.34,287.42L409.2,288.06L410.91,293.5L411.77,288.84L412.63,288.45L413.49,293.76L415.2,286.9L416.06,287.8L416.92,285.99L417.78,287.68L418.63,289.88L419.49,288.58L420.35,283.66L421.21,284.57L422.92,281.59L423.78,285.99L425.5,289.75L426.36,292.47L427.21,292.99L428.07,291.69L429.79,288.32L430.64,287.55L431.5,290.01L432.36,285.99L433.22,291.56L434.08,288.71L435.79,296.87L436.65,295.45L437.51,295.45L438.37,292.86L440.08,292.73L440.94,296.23L441.8,299.33L442.65,297.78L444.37,304.78L445.23,301.02L446.09,296.1L446.94,299.72L447.8,299.46L448.66,298.04L449.52,295.32L450.38,297.65L451.23,299.72L452.09,297.91L453.81,298.95L454.66,304.26L455.52,307.24L456.38,304.78L457.24,305.29L458.1,308.27L458.95,309.7L459.81,306.72L461.53,302.83L462.39,304.26L464.1,300.11L464.96,303.35L466.67,299.85L467.53,300.89L468.39,302.31L469.25,301.41L470.96,304.65L471.82,304.52L472.68,305.55L473.54,304.39L475.25,299.33L476.11,298.69L478.68,303.87L479.54,303.22L480.4,304L481.26,303.74L482.97,300.63L483.83,300.76L484.69,301.02L485.55,305.81L487.26,297.65L488.12,297.78L489.84,296.35L490.69,301.28L491.55,300.5L492.41,293.76L493.27,292.99L494.13,294.15L494.98,294.15L495.84,296.23L496.7,296.1L497.56,292.21L499.27,285.99L500.13,289.1L504.42,280.68L505.28,279.77L506.14,279.51L506.99,276.53L507.85,277.57L508.71,276.27L510.43,283.27L511.28,282.23L512.14,281.72L513,283.4L514.71,291.04L515.57,292.99L516.43,296.87L517.29,297L518.15,295.45L519,297.26L519.86,295.97L520.72,298.95L521.58,295.45L522.44,295.71L523.29,295.06L524.15,301.15L525.87,294.28L526.72,294.67L527.58,295.19L528.44,291.82L529.3,293.63L530.16,292.86L531.01,292.08L531.87,292.99L532.73,292.08L533.59,293.63L534.45,288.19L535.3,292.47L536.16,295.58L537.02,291.3L539.59,282.1L540.45,281.2L542.17,281.46L543.02,283.79L543.88,287.68L544.74,285.34L545.6,287.03L546.46,286.51L548.17,291.69L549.03,291.82L550.74,289.36L551.6,291.17L552.46,290.78L553.32,296.48L555.03,291.69L555.89,294.54L557.61,296.87L558.47,293.12L559.32,292.86L560.18,295.58L561.9,297.78L562.75,296.48L563.61,299.46L564.47,299.08L565.33,299.33L566.19,296.74L567.04,297.78L567.9,295.84L569.62,301.67L570.48,303.61L571.33,301.41L572.19,304L573.91,303.74L574.76,301.02L575.62,303.61L576.48,302.96L577.34,304.65L578.2,308.27L579.05,307.76L579.91,309.31L581.63,306.98L582.49,304.52L583.34,307.24L584.2,305.94L587.63,305.55L588.49,307.11L589.35,309.83L590.21,308.4L591.06,307.63L591.92,302.57L592.78,304.65L593.64,304.65L594.5,306.72L595.35,305.42L597.93,296.87L598.78,298.56L600.5,298.82L601.36,297.78L602.22,294.8L603.07,296.61L603.93,295.19L604.79,296.48L605.65,302.44L606.51,301.54L608.22,306.33L609.08,307.11L610.79,304.78L611.65,304.65L612.51,304.65L613.37,308.53L614.23,312.03L615.08,309.96L615.94,308.53L616.8,312.29L617.66,312.29L618.52,310.61L619.37,308.66L620.23,309.31L622.8,308.53L623.66,307.37L624.52,307.76L625.38,311.12L626.24,313.59L627.09,308.92L627.95,307.37L628.81,308.79L631.38,305.81L632.24,299.33L633.1,302.31L633.96,302.44L635.67,295.19L636.53,295.84L637.39,298.69L638.25,297.91L639.1,300.76L639.96,299.85L640.82,297.26L641.68,297.52L642.54,291.95L643.39,294.15L645.11,293.12L645.97,294.02L646.82,292.86L647.68,293.25L648.54,292.34L649.4,293.5L651.11,293.76L651.97,297.65L652.83,298.69L653.69,298.17L655.4,294.15L656.26,296.48L657.98,299.59L658.83,295.06L659.69,299.08L660.55,298.69L662.27,305.03L663.12,306.85L663.98,305.68L664.84,307.11L666.56,306.33L667.41,309.18L668.27,306.72L669.13,306.98L670.84,305.94L671.7,306.59L672.56,308.92L673.42,308.79L674.28,309.44L675.13,311.77L675.99,307.88L676.85,309.7L677.71,310.48L678.57,315.01L679.42,313.07L680.28,314.62L681.14,314.88L682,312.16L683.71,308.01L684.57,308.14L685.43,308.4L686.29,312.94L687.14,310.09L688,310.35L688.86,310.22L689.72,310.86L692.29,305.29L693.15,304.65L694.01,305.55L694.86,304.91L695.72,305.68L696.58,300.5L698.3,305.29L699.15,304.26L700.01,302.18L700.87,302.57L701.73,300.76L702.59,302.7L704.3,306.46L705.16,305.55L706.02,304.65L706.87,310.22L707.73,311.64L708.59,310.61L709.45,309.44L710.31,310.48L711.16,311.12L712.02,306.07L712.88,307.11L713.74,309.44L714.6,310.48L715.45,308.92L716.31,310.22L717.17,308.01L718.03,310.09L718.88,308.4L720.6,302.31L721.46,303.61L723.17,308.79L724.03,306.33L724.89,306.59L725.75,303.74L726.61,304.65L727.46,307.76L728.32,307.63L729.18,303.22L730.89,308.66L731.75,307.37L733.47,308.92L734.33,305.55L736.04,310.35L736.9,307.63L738.62,312.68L739.47,310.09L740.33,309.96L741.19,312.55L742.9,311.25L743.76,311.77L744.62,307.88L745.48,310.09L746.34,311.9L747.19,308.53L750.63,312.16L751.48,311.77L752.34,313.2L753.2,312.55L754.91,311.25L755.77,310.61L756.63,307.24L757.49,309.44L758.35,306.07L759.2,307.37L760.06,309.05L760.92,308.66L761.78,309.44L762.64,306.07L763.49,307.63L764.35,304.65L765.21,304.26L766.07,307.37L766.92,308.27L767.78,310.61L769.5,305.55L770.36,303.35L771.21,302.57L772.07,303.74L773.79,300.37L774.65,299.21L775.5,299.72L776.36,304.13L778.08,304.91L778.93,303.22L779.79,305.29L780.65,301.54L782.37,293.63L783.22,294.8L784.08,290.91L784.94,291.56L785.8,291.43L786.66,293.89L787.51,294.8L788.37,293.76L789.23,296.74L790.09,295.32L790.94,292.6L791.8,294.54L792.66,293.12L793.52,296.1L795.23,298.3L796.09,301.02L796.95,300.24L797.81,301.54L798.67,303.09L799.52,302.57L800.38,305.94L801.24,305.03L802.1,307.11L802.95,303.74L804.67,301.28L805.53,300.11L806.39,306.46L807.24,302.7L808.1,303.48L808.96,301.93L810.68,301.8L811.53,300.11L813.25,302.31L814.11,300.89L814.96,301.28L815.82,300.63L817.54,304.78L818.4,305.03L820.11,301.15L820.97,301.54L821.83,302.83L822.69,302.7L823.54,301.93L824.4,305.42L825.26,307.37L826.12,307.11L826.97,305.16L827.83,305.42L829.55,301.15L830.41,301.67L832.98,301.15L833.84,302.44L834.7,306.98L835.55,304.91L837.27,301.93L838.13,303.09L838.98,302.44L839.84,300.5L842.42,305.29L843.27,301.02L845.85,295.71L846.71,290.53L847.56,291.56L848.42,291.3L849.28,288.71L850.14,289.75L850.99,291.95L851.85,289.36L853.57,284.31L854.43,284.82L856.14,281.85L857,280.29" style="vector-effect: non-scaling-stroke; fill: none; stroke: rgb(255, 102, 146); stroke-opacity: 1; stroke-width: 2px; opacity: 1;"/></g><g class="points"/><g class="text"/></g><g class="trace scatter trace418d2f" style="stroke-miterlimit: 2; opacity: 1;"><g class="fills"/><g class="errorbars"/><g class="lines"><path class="js-line" d="M0,177.69L0.86,175.87L1.72,180.54L2.57,178.98L3.43,180.41L4.29,180.15L5.15,185.98L6.86,199.32L7.72,196.99L8.58,202.82L9.44,203.47L10.29,203.99L11.15,202.82L12.87,195.82L13.73,198.16L15.44,195.05L16.3,196.21L17.16,193.1L18.02,195.05L19.73,192.33L20.59,195.69L21.45,194.4L22.3,195.31L24.02,199.84L24.88,203.73L25.74,201.01L26.59,200.88L28.31,199.19L29.17,197.9L31.74,190.64L32.6,192.46L33.46,190.64L34.31,195.05L35.17,189.09L36.03,189.22L36.89,188.44L37.75,188.83L38.6,188.05L39.46,184.94L40.32,182.74L41.18,182.74L42.04,182.74L42.89,184.42L43.75,188.44L44.61,188.44L48.04,197.9L48.9,197.25L49.76,192.71L50.61,195.69L52.33,198.41L53.19,193.88L55.76,191.68L56.62,192.2L59.19,197.25L60.05,194.53L60.91,194.53L61.77,195.31L62.62,190.77L63.48,194.79L66.06,197.77L66.91,202.69L67.77,201.14L68.63,201.39L69.49,203.34L70.34,201.01L72.06,206.19L72.92,204.63L74.63,209.17L75.49,205.28L76.35,208.26L77.21,206.84L79.78,200.49L80.64,205.41L81.5,206.06L82.35,204.63L84.07,203.6L84.93,203.6L86.64,208.91L87.5,207.87L88.36,206.45L89.22,206.96L90.93,204.5L91.79,206.84L92.65,205.8L93.51,207.22L94.36,205.41L95.22,206.84L96.08,204.76L96.94,206.84L98.65,204.11L99.51,198.54L101.23,195.69L102.09,194.14L102.94,193.88L103.8,194.53L104.66,194.4L105.52,191.68L106.37,192.2L107.23,191.68L108.09,191.16L108.95,187.66L109.81,185.72L110.66,190.12L111.52,189.73L112.38,190.25L113.24,185.72L114.1,189.35L115.81,186.75L116.67,188.7L118.38,184.68L119.24,186.63L120.1,180.8L120.96,180.67L121.82,180.28L122.67,185.2L123.53,183.39L124.39,177.82L125.25,171.6L126.11,172.63L127.82,168.36L128.68,168.1L129.54,166.8L130.39,167.58L131.25,170.69L132.11,165.38L132.97,161.75L133.83,167.32L134.68,161.75L135.54,162.92L136.4,163.69L137.26,161.36L138.12,162.53L138.97,167.84L139.83,169.78L140.69,166.29L141.55,160.46L142.4,163.82L144.12,160.84L144.98,162.79L145.84,160.59L146.69,165.12L147.55,163.57L148.41,167.32L149.27,170.95L150.13,168.23L151.84,164.47L152.7,167.32L154.41,162.66L155.27,165.9L156.13,164.6L156.99,166.67L157.85,168.75L158.7,163.18L160.42,163.18L161.28,160.72L162.14,161.1L162.99,163.44L163.85,163.31L164.71,164.86L165.57,162.79L166.42,169.14L167.28,168.36L168.14,163.69L169.86,165.77L170.71,166.42L172.43,166.03L173.29,167.06L175,169.27L175.86,169.4L176.72,171.6L177.58,168.62L179.29,161.75L180.15,159.55L181.87,157.99L182.72,155.53L183.58,153.07L184.44,154.5L186.16,153.72L187.01,148.15L187.87,148.54L188.73,144.52L191.3,157.48L192.16,155.01L193.02,154.5L193.88,158.64L194.73,156.83L195.59,157.99L197.31,156.7L198.17,156.96L200.74,164.99L201.6,162.53L202.45,158.9L203.31,161.1L204.17,162.4L205.03,160.2L205.89,166.03L206.74,165.64L208.46,162.4L209.32,164.21L211.03,165.9L211.89,161.75L213.61,151.52L214.46,153.2L216.18,145.95L217.04,150.35L217.9,154.63L218.75,148.41L219.61,147.63L220.47,150.09L221.33,149.96L222.19,144.91L223.04,146.72L223.9,144.39L225.62,147.11L226.47,144.78L227.33,146.72L228.19,146.08L229.05,139.86L229.91,141.28L230.76,144.13L231.62,141.28L232.48,143.74L233.34,141.28L234.2,134.93L235.05,139.34L235.91,137.14L236.77,139.21L237.63,137.14L238.48,142.32L239.34,141.54L240.2,145.17L243.63,128.46L244.49,130.4L245.35,129.36L246.21,130.01L247.06,130.14L247.92,133.12L249.64,137.27L250.49,133.9L252.21,132.21L253.07,132.73L253.93,131.57L254.78,137.14L255.64,137.66L256.5,135.97L258.22,143.23L259.07,141.67L260.79,141.28L261.65,138.69L262.5,139.21L263.36,138.3L265.08,140.51L265.94,145.69L267.65,144.26L268.51,136.1L269.37,137.27L270.23,136.49L271.08,137.78L271.94,135.45L273.66,144.39L274.51,144.91L275.37,146.46L276.23,146.46L277.09,145.69L277.95,147.24L278.8,144.26L279.66,147.63L280.52,149.06L281.38,145.82L282.24,147.63L283.09,144.26L284.81,147.5L285.67,146.98L286.52,145.04L287.38,147.5L288.24,147.11L289.1,151.78L290.81,145.17L291.67,144L292.53,142.06L293.39,144.91L294.25,142.58L295.1,144.91L295.96,145.17L296.82,142.71L297.68,143.87L298.53,141.02L300.25,140.25L301.11,140.63L301.97,140.76L302.82,138.43L303.68,139.6L304.54,138.3L306.26,143.48L307.11,140.51L307.97,138.69L308.83,134.93L309.69,137.91L310.54,144.52L312.26,142.58L313.12,140.12L313.98,139.73L314.83,138.17L315.69,138.17L316.55,139.6L317.41,132.6L318.27,133.77L319.12,135.45L319.98,131.83L320.84,130.53L321.7,124.96L323.41,120.81L324.27,127.29L325.13,128.33L325.99,125.74L326.84,120.04L327.7,125.74L328.56,123.53L329.42,123.92L331.13,123.79L331.99,123.15L333.71,113.82L334.56,109.54L335.42,109.67L336.28,106.69L338,106.56L338.85,103.58L339.71,102.81L340.57,105.01L341.43,102.16L342.29,107.6L343.14,109.93L344,107.73L344.86,111.36L345.72,111.49L346.57,108.38L347.43,113.43L349.15,108.25L350.01,114.85L351.72,118.09L352.58,113.17L353.44,115.11L354.3,112.52L356.01,120.3L356.87,116.02L357.73,115.63L358.58,108.51L360.3,108.77L361.16,106.95L362.02,108.89L362.87,104.36L363.73,103.45L364.59,98.4L365.45,99.44L366.31,97.36L369.74,101.9L370.59,100.21L371.45,102.16L372.31,99.7L374.03,104.23L374.88,103.58L375.74,102.94L376.6,98.53L378.32,94L379.17,100.6L380.89,90.89L381.75,91.02L383.46,89.46L384.32,86.09L386.04,89.98L386.89,94.26L387.75,95.81L388.61,93.48L391.18,90.5L392.04,94L392.9,94.39L393.76,89.07L394.61,87.13L395.47,88.43L396.33,85.32L397.19,85.83L398.05,82.6L398.9,83.24L400.62,81.43L401.48,84.41L402.34,86.22L403.19,84.93L404.05,84.15L404.91,85.71L405.77,87.39L406.62,86.61L408.34,89.33L409.2,90.11L410.06,83.63L410.91,83.5L412.63,82.6L413.49,81.95L416.06,72.36L416.92,73.4L417.78,71.71L418.63,73.92L420.35,78.84L421.21,80.13L422.92,81.82L423.78,84.41L426.36,77.15L427.21,75.86L428.07,75.73L428.93,76.51L431.5,81.17L432.36,78.84L434.08,83.89L434.93,80.13L436.65,74.95L437.51,74.95L439.22,84.67L440.08,82.86L440.94,81.04L441.8,82.98L444.37,87.65L445.23,86.87L446.09,85.83L446.94,92.44L447.8,90.5L448.66,91.92L450.38,95.81L451.23,100.86L452.95,108.89L453.81,111.23L455.52,115.5L456.38,112.26L457.24,108.25L458.1,109.93L458.95,111.36L459.81,108.38L461.53,116.8L462.39,112L464.1,105.92L464.96,105.53L465.82,105.14L466.67,101.25L468.39,100.6L469.25,101.77L470.96,97.88L471.82,98.66L473.54,104.23L474.4,100.34L476.11,106.95L476.97,104.1L477.83,102.42L478.68,103.19L479.54,102.81L480.4,100.34L482.12,97.11L482.97,94.9L483.83,92.18L484.69,92.05L486.41,89.07L487.26,92.05L488.98,95.42L489.84,94.51L490.69,95.68L491.55,93.74L494.13,93.87L494.98,92.05L495.84,91.53L496.7,92.44L498.42,93.09L499.27,92.05L500.13,91.92L500.99,90.24L501.85,91.66L502.7,87.39L503.56,90.63L504.42,88.04L505.28,85.58L506.14,85.83L506.99,83.76L507.85,87L510.43,95.94L511.28,94L512.14,96.46L513,94.64L513.86,97.11L514.71,97.24L516.43,95.29L517.29,96.98L519,95.03L519.86,95.42L520.72,96.07L521.58,98.01L523.29,89.59L524.15,93.35L525.01,93.74L525.87,96.2L526.72,100.99L527.58,97.49L528.44,98.01L529.3,97.24L530.16,96.07L531.01,97.75L533.59,97.62L534.45,95.55L536.16,90.11L537.02,90.76L537.88,89.07L538.73,85.19L539.59,86.61L540.45,84.67L541.31,82.08L542.17,82.73L543.88,77.93L544.74,77.8L546.46,80L547.31,78.58L548.17,81.17L549.03,79.23L549.89,79.49L550.74,75.21L551.6,74.69L552.46,76.12L553.32,74.56L554.18,76.64L555.03,75.21L555.89,75.99L558.47,71.84L559.32,68.86L561.04,71.84L561.9,72.62L562.75,72.49L563.61,73.4L565.33,78.58L566.19,77.54L568.76,84.93L569.62,86.48L570.48,89.2L571.33,88.17L572.19,87.26L573.05,90.11L573.91,87.39L574.76,88.17L575.62,90.5L576.48,85.71L577.34,83.37L578.2,86.61L579.91,79.88L580.77,81.95L581.63,80.65L582.49,81.04L583.34,75.34L584.2,76.12L585.92,79.88L586.77,81.3L587.63,81.56L588.49,77.28L589.35,73.14L590.21,73.53L591.06,70.03L591.92,75.73L592.78,77.15L593.64,75.73L594.5,75.86L595.35,77.15L596.21,78.97L597.07,85.71L598.78,78.58L599.64,78.45L600.5,80.26L601.36,73.66L602.22,74.82L603.07,74.05L604.79,78.19L605.65,75.6L606.51,73.79L607.36,77.8L609.08,82.34L609.94,81.04L611.65,84.28L612.51,79.1L613.37,80.52L614.23,73.53L615.94,78.32L616.8,77.67L618.52,79.23L619.37,80.13L621.09,71.32L621.95,70.94L622.8,73.27L623.66,71.71L625.38,70.29L626.24,67.57L627.09,65.75L627.95,70.94L628.81,70.03L629.67,63.81L630.53,64.07L631.38,60.44L632.24,60.57L633.1,61.48L635.67,70.16L636.53,70.68L638.25,67.7L639.1,61.35L639.96,60.31L640.82,57.59L641.68,61.48L642.54,60.96L644.25,52.02L645.11,56.17L645.97,56.43L646.82,55.52L647.68,56.82L648.54,60.05L651.11,64.33L651.97,63.29L652.83,62.26L653.69,66.53L655.4,63.68L656.26,65.88L657.12,64.98L657.98,62.65L660.55,72.75L661.41,71.2L663.12,66.27L663.98,67.96L665.7,59.54L666.56,62.13L669.99,58.63L670.84,57.07L671.7,59.54L672.56,58.5L673.42,59.92L674.28,59.41L675.99,67.31L676.85,67.57L677.71,65.88L678.57,69.12L679.42,67.18L680.28,67.31L681.14,63.55L682,64.59L682.85,63.81L683.71,59.92L685.43,55.91L686.29,54.74L688.86,63.16L689.72,63.16L691.43,70.29L692.29,71.84L693.15,74.05L694.01,70.42L694.86,67.96L695.72,68.35L696.58,72.1L697.44,71.45L700.01,70.55L700.87,66.27L702.59,69.12L703.44,68.73L705.16,72.49L706.02,71.84L707.73,68.22L708.59,63.16L710.31,63.29L711.16,66.92L713.74,71.07L714.6,69.25L716.31,71.97L717.17,74.05L718.88,74.18L719.74,79.23L720.6,76.25L721.46,76.12L722.32,79.75L723.17,79.49L724.89,74.56L725.75,76.12L728.32,83.5L729.18,80.13L730.89,80.91L731.75,79.75L733.47,76.25L734.33,78.32L735.18,80.52L736.04,79.88L736.9,81.69L737.76,80.52L738.62,83.37L739.47,82.47L740.33,88.17L741.19,78.71L742.05,77.15L742.9,80.91L744.62,79.36L745.48,80.78L747.19,85.96L748.05,83.37L748.91,81.04L749.77,76.51L751.48,71.45L752.34,73.79L753.2,75.73L754.06,75.34L754.91,78.45L755.77,78.06L756.63,80.13L757.49,85.58L758.35,85.06L759.2,81.82L761.78,73.01L762.64,78.58L763.49,78.19L764.35,76.38L765.21,78.06L766.07,75.86L767.78,76.25L768.64,74.05L770.36,75.34L771.21,74.69L772.07,71.58L772.93,71.58L773.79,69.38L774.65,70.81L776.36,68.09L777.22,68.47L779.79,83.37L780.65,83.37L781.51,81.69L782.37,82.08L784.94,78.71L785.8,75.99L786.66,72.23L787.51,73.66L788.37,72.1L789.23,73.27L790.09,72.23L790.94,72.75L792.66,75.99L793.52,73.01L794.38,72.88L795.23,74.82L796.95,71.71L797.81,75.21L798.67,73.4L799.52,73.4L802.1,81.04L802.95,78.45L804.67,81.43L805.53,80.39L806.39,81.95L807.24,79.88L808.1,79.88L808.96,83.63L809.82,82.47L810.68,83.63L812.39,88.94L813.25,88.04L814.11,95.68L814.96,94.26L815.82,94.9L816.68,94.39L818.4,96.33L819.25,101.25L820.11,101.38L820.97,97.24L822.69,107.34L823.54,107.73L826.12,102.16L826.97,102.42L828.69,99.96L829.55,99.96L831.26,96.98L832.12,95.94L833.84,102.68L834.7,101.25L835.55,100.34L836.41,98.27L837.27,103.97L838.13,101.9L839.84,104.88L840.7,103.97L842.42,98.92L843.27,100.99L844.13,102.94L844.99,108.25L845.85,107.86L846.71,105.66L847.56,107.34L848.42,105.53L849.28,104.75L850.14,106.95L851.85,107.73L852.71,110.19L853.57,111.36L854.43,109.02L855.28,105.4L856.14,108.77L857,106.17" style="vector-effect: non-scaling-stroke; fill: none; stroke: rgb(182, 232, 128); stroke-opacity: 1; stroke-width: 2px; opacity: 1;"/></g><g class="points"/><g class="text"/></g></g></g><g class="overplot"/><path class="xlines-above crisp" d="M0,0" style="fill: none;"/><path class="ylines-above crisp" d="M0,0" style="fill: none;"/><g class="overlines-above"/><g class="xaxislayer-above"><g class="xtick"><text text-anchor="middle" x="0" y="472" transform="translate(55,0)" style="font-family: 'Open Sans', verdana, arial, sans-serif; font-size: 12px; fill: rgb(0, 255, 255); fill-opacity: 1; white-space: pre; opacity: 1;">0</text></g><g class="xtick"><text text-anchor="middle" x="0" y="472" style="font-family: 'Open Sans', verdana, arial, sans-serif; font-size: 12px; fill: rgb(0, 255, 255); fill-opacity: 1; white-space: pre; opacity: 1;" transform="translate(140.79000000000002,0)">100</text></g><g class="xtick"><text text-anchor="middle" x="0" y="472" style="font-family: 'Open Sans', verdana, arial, sans-serif; font-size: 12px; fill: rgb(0, 255, 255); fill-opacity: 1; white-space: pre; opacity: 1;" transform="translate(226.57,0)">200</text></g><g class="xtick"><text text-anchor="middle" x="0" y="472" style="font-family: 'Open Sans', verdana, arial, sans-serif; font-size: 12px; fill: rgb(0, 255, 255); fill-opacity: 1; white-space: pre; opacity: 1;" transform="translate(312.36,0)">300</text></g><g class="xtick"><text text-anchor="middle" x="0" y="472" style="font-family: 'Open Sans', verdana, arial, sans-serif; font-size: 12px; fill: rgb(0, 255, 255); fill-opacity: 1; white-space: pre; opacity: 1;" transform="translate(398.14,0)">400</text></g><g class="xtick"><text text-anchor="middle" x="0" y="472" style="font-family: 'Open Sans', verdana, arial, sans-serif; font-size: 12px; fill: rgb(0, 255, 255); fill-opacity: 1; white-space: pre; opacity: 1;" transform="translate(483.93,0)">500</text></g><g class="xtick"><text text-anchor="middle" x="0" y="472" style="font-family: 'Open Sans', verdana, arial, sans-serif; font-size: 12px; fill: rgb(0, 255, 255); fill-opacity: 1; white-space: pre; opacity: 1;" transform="translate(569.71,0)">600</text></g><g class="xtick"><text text-anchor="middle" x="0" y="472" style="font-family: 'Open Sans', verdana, arial, sans-serif; font-size: 12px; fill: rgb(0, 255, 255); fill-opacity: 1; white-space: pre; opacity: 1;" transform="translate(655.5,0)">700</text></g><g class="xtick"><text text-anchor="middle" x="0" y="472" style="font-family: 'Open Sans', verdana, arial, sans-serif; font-size: 12px; fill: rgb(0, 255, 255); fill-opacity: 1; white-space: pre; opacity: 1;" transform="translate(741.29,0)">800</text></g><g class="xtick"><text text-anchor="middle" x="0" y="472" style="font-family: 'Open Sans', verdana, arial, sans-serif; font-size: 12px; fill: rgb(0, 255, 255); fill-opacity: 1; white-space: pre; opacity: 1;" transform="translate(827.07,0)">900</text></g></g><g class="yaxislayer-above"><g class="ytick"><text text-anchor="end" x="54" y="4.199999999999999" transform="translate(0,441.05)" style="font-family: 'Open Sans', verdana, arial, sans-serif; font-size: 12px; fill: rgb(0, 255, 255); fill-opacity: 1; white-space: pre; opacity: 1;">1</text></g><g class="ytick"><text text-anchor="end" x="54" y="4.199999999999999" style="font-family: 'Open Sans', verdana, arial, sans-serif; font-size: 12px; fill: rgb(0, 255, 255); fill-opacity: 1; white-space: pre; opacity: 1;" transform="translate(0,360.08)">0.5</text></g><g class="ytick"><text text-anchor="end" x="54" y="4.199999999999999" style="font-family: 'Open Sans', verdana, arial, sans-serif; font-size: 12px; fill: rgb(0, 255, 255); fill-opacity: 1; white-space: pre; opacity: 1;" transform="translate(0,279.11)">0</text></g><g class="ytick"><text text-anchor="end" x="54" y="4.199999999999999" style="font-family: 'Open Sans', verdana, arial, sans-serif; font-size: 12px; fill: rgb(0, 255, 255); fill-opacity: 1; white-space: pre; opacity: 1;" transform="translate(0,198.14)">0.5</text></g><g class="ytick"><text text-anchor="end" x="54" y="4.199999999999999" style="font-family: 'Open Sans', verdana, arial, sans-serif; font-size: 12px; fill: rgb(0, 255, 255); fill-opacity: 1; white-space: pre; opacity: 1;" transform="translate(0,117.17)">1</text></g></g><g class="overaxes-above"/></g></g><g class="polarlayer"/><g class="smithlayer"/><g class="ternarylayer"/><g class="geolayer"/><g class="funnelarealayer"/><g class="pielayer"/><g class="iciclelayer"/><g class="treemaplayer"/><g class="sunburstlayer"/><g class="glimages"/><defs id="topdefs-2a1208"><g class="clips"/><clipPath id="legend2a1208"><rect width="773" height="29" x="0" y="0"/></clipPath></defs><g class="layer-above"><g class="imagelayer"/><g class="shapelayer"/></g><g class="infolayer"><g class="legend" pointer-events="all" transform="translate(97,64.09999999999997)"><rect class="bg" shape-rendering="crispEdges" style="stroke: rgb(68, 68, 68); stroke-opacity: 1; fill: rgb(255, 255, 255); fill-opacity: 0; stroke-width: 0px;" width="773" height="29" x="0" y="0"/><g class="scrollbox" transform="" clip-path="url(#legend2a1208)"><g class="groups"><g class="traces" transform="translate(0,14.5)" style="opacity: 1;"><text class="legendtext" text-anchor="start" x="40" y="4.680000000000001" style="font-family: 'Open Sans', verdana, arial, sans-serif; font-size: 12px; fill: rgb(0, 255, 255); fill-opacity: 1; white-space: pre;">T*=1.0</text><g class="layers" style="opacity: 1;"><g class="legendfill"/><g class="legendlines"><path class="js-line" d="M5,0h30" style="fill: none; stroke: rgb(99, 110, 250); stroke-opacity: 1; stroke-width: 2px;"/></g><g class="legendsymbols"><g class="legendpoints"/></g></g><rect class="legendtoggle" x="0" y="-9.5" width="88.34375" height="19" style="fill: rgb(0, 0, 0); fill-opacity: 0;"/></g><g class="traces" transform="translate(90.84375,14.5)" style="opacity: 1;"><text class="legendtext" text-anchor="start" x="40" y="4.680000000000001" style="font-family: 'Open Sans', verdana, arial, sans-serif; font-size: 12px; fill: rgb(0, 255, 255); fill-opacity: 1; white-space: pre;">T*=1.25</text><g class="layers" style="opacity: 1;"><g class="legendfill"/><g class="legendlines"><path class="js-line" d="M5,0h30" style="fill: none; stroke: rgb(239, 85, 59); stroke-opacity: 1; stroke-width: 2px;"/></g><g class="legendsymbols"><g class="legendpoints"/></g></g><rect class="legendtoggle" x="0" y="-9.5" width="95.96875" height="19" style="fill: rgb(0, 0, 0); fill-opacity: 0;"/></g><g class="traces" transform="translate(189.3125,14.5)" style="opacity: 1;"><text class="legendtext" text-anchor="start" x="40" y="4.680000000000001" style="font-family: 'Open Sans', verdana, arial, sans-serif; font-size: 12px; fill: rgb(0, 255, 255); fill-opacity: 1; white-space: pre;">T*=1.5</text><g class="layers" style="opacity: 1;"><g class="legendfill"/><g class="legendlines"><path class="js-line" d="M5,0h30" style="fill: none; stroke: rgb(0, 204, 150); stroke-opacity: 1; stroke-width: 2px;"/></g><g class="legendsymbols"><g class="legendpoints"/></g></g><rect class="legendtoggle" x="0" y="-9.5" width="88.34375" height="19" style="fill: rgb(0, 0, 0); fill-opacity: 0;"/></g><g class="traces" transform="translate(280.15625,14.5)" style="opacity: 1;"><text class="legendtext" text-anchor="start" x="40" y="4.680000000000001" style="font-family: 'Open Sans', verdana, arial, sans-serif; font-size: 12px; fill: rgb(0, 255, 255); fill-opacity: 1; white-space: pre;">T*=1.75</text><g class="layers" style="opacity: 1;"><g class="legendfill"/><g class="legendlines"><path class="js-line" d="M5,0h30" style="fill: none; stroke: rgb(171, 99, 250); stroke-opacity: 1; stroke-width: 2px;"/></g><g class="legendsymbols"><g class="legendpoints"/></g></g><rect class="legendtoggle" x="0" y="-9.5" width="95.96875" height="19" style="fill: rgb(0, 0, 0); fill-opacity: 0;"/></g><g class="traces" transform="translate(378.625,14.5)" style="opacity: 1;"><text class="legendtext" text-anchor="start" x="40" y="4.680000000000001" style="font-family: 'Open Sans', verdana, arial, sans-serif; font-size: 12px; fill: rgb(0, 255, 255); fill-opacity: 1; white-space: pre;">T*=2.0</text><g class="layers" style="opacity: 1;"><g class="legendfill"/><g class="legendlines"><path class="js-line" d="M5,0h30" style="fill: none; stroke: rgb(255, 161, 90); stroke-opacity: 1; stroke-width: 2px;"/></g><g class="legendsymbols"><g class="legendpoints"/></g></g><rect class="legendtoggle" x="0" y="-9.5" width="88.34375" height="19" style="fill: rgb(0, 0, 0); fill-opacity: 0;"/></g><g class="traces" transform="translate(469.46875,14.5)" style="opacity: 1;"><text class="legendtext" text-anchor="start" x="40" y="4.680000000000001" style="font-family: 'Open Sans', verdana, arial, sans-serif; font-size: 12px; fill: rgb(0, 255, 255); fill-opacity: 1; white-space: pre;">T*=2.262</text><g class="layers" style="opacity: 1;"><g class="legendfill"/><g class="legendlines"><path class="js-line" d="M5,0h30" style="fill: none; stroke: rgb(25, 211, 243); stroke-opacity: 1; stroke-width: 2px;"/></g><g class="legendsymbols"><g class="legendpoints"/></g></g><rect class="legendtoggle" x="0" y="-9.5" width="103.609375" height="19" style="fill: rgb(0, 0, 0); fill-opacity: 0;"/></g><g class="traces" transform="translate(575.578125,14.5)" style="opacity: 1;"><text class="legendtext" text-anchor="start" x="40" y="4.680000000000001" style="font-family: 'Open Sans', verdana, arial, sans-serif; font-size: 12px; fill: rgb(0, 255, 255); fill-opacity: 1; white-space: pre;">T*=2.381</text><g class="layers" style="opacity: 1;"><g class="legendfill"/><g class="legendlines"><path class="js-line" d="M5,0h30" style="fill: none; stroke: rgb(255, 102, 146); stroke-opacity: 1; stroke-width: 2px;"/></g><g class="legendsymbols"><g class="legendpoints"/></g></g><rect class="legendtoggle" x="0" y="-9.5" width="103.234375" height="19" style="fill: rgb(0, 0, 0); fill-opacity: 0;"/></g><g class="traces" transform="translate(681.3125,14.5)" style="opacity: 1;"><text class="legendtext" text-anchor="start" x="40" y="4.680000000000001" style="font-family: 'Open Sans', verdana, arial, sans-serif; font-size: 12px; fill: rgb(0, 255, 255); fill-opacity: 1; white-space: pre;">T*=2.5</text><g class="layers" style="opacity: 1;"><g class="legendfill"/><g class="legendlines"><path class="js-line" d="M5,0h30" style="fill: none; stroke: rgb(182, 232, 128); stroke-opacity: 1; stroke-width: 2px;"/></g><g class="legendsymbols"><g class="legendpoints"/></g></g><rect class="legendtoggle" x="0" y="-9.5" width="88.34375" height="19" style="fill: rgb(0, 0, 0); fill-opacity: 0;"/></g></g></g><rect class="scrollbar" rx="20" ry="3" width="0" height="0" style="fill: rgb(128, 139, 164); fill-opacity: 1;" x="0" y="0"/></g><g class="g-gtitle"><text class="gtitle" x="456" y="50" text-anchor="middle" dy="0.7em" style="font-family: 'Open Sans', verdana, arial, sans-serif; font-size: 17px; fill: rgb(0, 255, 255); opacity: 1; font-weight: normal; white-space: pre;">magnetization in a system of 50x50 spins for various temperatures</text></g><g class="g-xtitle" transform="translate(0,-2.8000000000000114)"><text class="xtitle" x="483.5" y="499.8" text-anchor="middle" style="font-family: 'Open Sans', verdana, arial, sans-serif; font-size: 14px; fill: rgb(0, 255, 255); opacity: 1; font-weight: normal; white-space: pre;">time t [MCS]</text></g><g class="g-ytitle" transform="translate(14.2529296875,0)"><text class="ytitle" transform="rotate(-90,-0.25312499999999716,279.5)" x="-0.25312499999999716" y="279.5" text-anchor="middle" style="font-family: 'Open Sans', verdana, arial, sans-serif; font-size: 14px; fill: rgb(0, 255, 255); opacity: 1; font-weight: normal; white-space: pre;">magnetization m [-]</text></g></g></svg>